<?xml version="1.0" encoding="UTF-8"?>
<svg xmlns="http://www.w3.org/2000/svg" id="Layer_2" data-name="Layer 2" viewBox="0 0 180.78 144.04">
  <defs>
    <style>
      .cls-1 {
        fill: #fff;
        stroke-width: 0px;
      }
    </style>
  </defs>
  <g id="Layer_1-2" data-name="Layer 1">
    <g>
      <path class="cls-1" d="M85.73,129.06h-.02c-3.16,0-4.73,1.89-4.73,5.66,0,1.07.15,1.98.44,2.73.29.75.69,1.31,1.19,1.68.5.36,1.02.63,1.55.78.53.16,1.11.24,1.74.24h.06c1.39,0,2.64-.23,3.75-.7v-1.79c-1.02.54-2.26.81-3.71.81-1.78,0-2.79-.92-3.02-2.76h7.41c.04-.47.06-.96.06-1.47,0-1.57-.43-2.83-1.29-3.77-.86-.94-2-1.41-3.44-1.41ZM82.95,133.94c.09-1.15.35-1.95.77-2.42s1.09-.7,1.99-.7c.5,0,.94.1,1.3.3.36.2.64.47.83.8.19.34.34.67.43.99.09.33.16.67.18,1.02h-5.51Z"></path>
      <path class="cls-1" d="M74.25,139.95h1.96v-8.64c1.11-.29,2.2-.44,3.26-.45v-1.81c-1.69,0-3.44.36-5.23,1.07v9.83Z"></path>
      <rect class="cls-1" x="70.52" y="83.75" width="4.08" height="4.08"></rect>
      <path class="cls-1" d="M70.47,130.59c-.33-.39-.72-.71-1.17-.96-.45-.24-.87-.4-1.25-.47-.38-.07-.77-.1-1.17-.1-.78,0-1.46.1-2.04.29-.59.19-1.03.42-1.32.69-.29.27-.53.57-.7.92-.17.35-.28.64-.32.87-.04.23-.06.46-.06.69v11.53h1.96v-4.23c.73.21,1.49.31,2.28.31.64,0,1.22-.08,1.75-.24.53-.16,1.05-.42,1.56-.78.51-.36.91-.92,1.2-1.67.29-.75.44-1.66.44-2.72,0-.93-.11-1.75-.33-2.46s-.49-1.26-.82-1.65ZM69.42,136.63c-.16.51-.39.88-.69,1.12-.3.24-.61.4-.92.48-.31.08-.69.13-1.13.13-.78,0-1.54-.14-2.28-.43v-5.54c0-1.07.83-1.61,2.48-1.61.37,0,.7.05.99.14.29.09.58.26.87.51.29.25.52.65.68,1.2.16.55.24,1.24.24,2.07,0,.78-.08,1.42-.24,1.93Z"></path>
      <rect class="cls-1" x="70.72" y="92.31" width="3.68" height="25.44"></rect>
      <path class="cls-1" d="M55.04,129.04c-1.27,0-2.58.27-3.93.81-.75-.54-1.71-.81-2.87-.81-1.54,0-3.02.36-4.46,1.07v9.85h1.96v-8.72c.8-.22,1.58-.33,2.35-.33.99,0,1.65.18,1.98.55.33.36.5.86.5,1.49v7.01h1.96v-6.96c0-.57-.08-1.08-.25-1.53.97-.4,1.93-.6,2.88-.6.88,0,1.47.19,1.77.57.3.38.45.87.45,1.49v7.03h1.96v-6.9c0-1.27-.38-2.25-1.14-2.96-.76-.71-1.82-1.06-3.17-1.06Z"></path>
      <path class="cls-1" d="M36.43,129.06h-.02c-3.16,0-4.73,1.89-4.73,5.66,0,1.07.15,1.98.44,2.73.29.75.69,1.31,1.19,1.68.5.36,1.02.63,1.55.78.53.16,1.11.24,1.74.24h.06c1.39,0,2.64-.23,3.75-.7v-1.79c-1.02.54-2.26.81-3.71.81-1.78,0-2.79-.92-3.02-2.76h7.41c.04-.47.06-.96.06-1.47,0-1.57-.43-2.83-1.29-3.77-.86-.94-2-1.41-3.44-1.41ZM33.65,133.94c.09-1.15.35-1.95.77-2.42.42-.47,1.09-.7,1.99-.7.5,0,.94.1,1.3.3.36.2.64.47.83.8.19.34.34.67.43.99.09.33.16.67.18,1.02h-5.51Z"></path>
      <rect class="cls-1" x="58.77" y="82.63" width="3.68" height="35.12"></rect>
      <path class="cls-1" d="M33.21,115.93c.76.56,1.66,1.02,2.7,1.37,1.04.36,1.97.59,2.79.69.82.1,1.62.15,2.4.15,1.01,0,2.03-.1,3.07-.3,1.04-.2,2.15-.56,3.33-1.07,1.18-.51,2.15-1.35,2.91-2.5.75-1.15,1.13-2.54,1.13-4.17v-7.64c0-3.47-.94-6.1-2.81-7.9s-4.59-2.7-8.15-2.7c-2.59,0-5.13.44-7.64,1.32v3.56c2.21-.81,4.68-1.22,7.44-1.22,2.45,0,4.3.49,5.55,1.48,1.25.99,1.88,2.63,1.88,4.94l-4.08-.24c-.58,0-1.08,0-1.51.02-.42.02-1.14.07-2.14.17-1,.1-1.87.24-2.6.43-.73.19-1.57.48-2.51.88-.95.4-1.73.88-2.34,1.45-.61.56-1.13,1.3-1.56,2.2-.42.91-.63,1.93-.63,3.07,0,1.37.27,2.57.81,3.61.54,1.04,1.19,1.84,1.96,2.4ZM43.35,104.9c1.89,0,3.4.1,4.52.3v4.88c0,3.07-2.25,4.61-6.76,4.61h-.07c-4.6,0-6.91-1.58-6.91-4.75,0-3.35,3.07-5.03,9.22-5.03Z"></path>
      <path class="cls-1" d="M159.67,130.12c-.52-.38-1.05-.65-1.6-.81s-1.14-.24-1.79-.24-1.24.08-1.79.24c-.55.16-1.08.43-1.6.81-.52.38-.93.95-1.23,1.71-.3.76-.45,1.68-.45,2.77s.15,2.01.45,2.77c.3.76.71,1.33,1.23,1.71.52.38,1.05.65,1.6.8.54.16,1.14.24,1.79.24s1.24-.08,1.79-.24c.54-.16,1.08-.43,1.6-.8.52-.38.93-.95,1.23-1.71.3-.76.45-1.68.45-2.77s-.15-2.01-.45-2.77c-.3-.76-.71-1.33-1.23-1.71ZM159.11,136.58c-.16.52-.39.9-.71,1.15-.31.25-.63.42-.95.5s-.71.13-1.17.13-.85-.04-1.17-.13-.64-.25-.95-.5c-.31-.25-.55-.64-.71-1.15-.16-.52-.24-1.18-.24-1.98s.08-1.46.24-1.98c.16-.52.39-.9.71-1.15.31-.25.63-.42.95-.5.32-.08.71-.13,1.17-.13s.85.04,1.17.13c.32.08.64.25.95.5.31.25.55.63.71,1.15.16.52.24,1.18.24,1.98s-.08,1.46-.24,1.98Z"></path>
      <path class="cls-1" d="M155.12,116.77v-3.56c-2.21.98-4.59,1.47-7.14,1.47-3.02,0-5.22-.76-6.6-2.28-1.38-1.52-2.07-4-2.07-7.42s.69-5.83,2.07-7.36c1.38-1.53,3.58-2.3,6.6-2.3,2.44,0,4.82.47,7.14,1.42v-3.46c-2.47-.95-4.99-1.42-7.54-1.42-1.53,0-2.93.19-4.21.56-1.28.37-2.53,1.01-3.75,1.9-1.22.9-2.19,2.25-2.91,4.07-.72,1.82-1.08,4.02-1.08,6.61,0,2.44.32,4.53.95,6.28.63,1.75,1.51,3.09,2.61,4.03,1.11.94,2.25,1.63,3.44,2.07,1.19.44,2.49.69,3.92.76h.32s0,4.26,0,4.26h1.96v-4.3h.68c1.83-.21,3.69-.65,5.6-1.33Z"></path>
      <path class="cls-1" d="M97.77,116.77c1.19-.51,2.16-1.35,2.91-2.5.75-1.15,1.13-2.54,1.13-4.17v-7.64c0-3.47-.94-6.1-2.81-7.9-1.87-1.8-4.59-2.7-8.15-2.7-2.59,0-5.13.44-7.64,1.32v3.56c2.21-.81,4.69-1.22,7.44-1.22,2.45,0,4.3.49,5.55,1.48,1.25.99,1.88,2.63,1.88,4.94l-4.08-.24c-.58,0-1.08,0-1.51.02-.42.02-1.14.07-2.14.17-1,.1-1.87.24-2.6.43-.73.19-1.57.48-2.51.88-.95.4-1.73.88-2.34,1.45-.61.56-1.13,1.3-1.56,2.2-.42.91-.63,1.93-.63,3.07,0,1.37.27,2.57.81,3.61.54,1.04,1.19,1.84,1.96,2.4.76.56,1.67,1.02,2.7,1.37,1.04.36,1.97.59,2.79.69.82.1,1.62.15,2.4.15,1.01,0,2.03-.1,3.07-.3s2.15-.56,3.33-1.07ZM91.29,114.68c-4.61,0-6.91-1.58-6.91-4.75,0-3.35,3.07-5.03,9.22-5.03,1.89,0,3.4.1,4.52.3v4.88c0,3.07-2.25,4.61-6.76,4.61h-.07Z"></path>
      <path class="cls-1" d="M177.97,94.56c-1.87-1.8-4.59-2.7-8.15-2.7-2.59,0-5.13.44-7.64,1.32v3.56c2.21-.81,4.69-1.22,7.44-1.22,2.45,0,4.3.49,5.55,1.48,1.25.99,1.88,2.63,1.88,4.94l-4.08-.24c-.58,0-1.08,0-1.51.02-.42.02-1.14.07-2.14.17-1,.1-1.87.24-2.6.43-.73.19-1.57.48-2.51.88-.95.4-1.73.88-2.34,1.45-.61.56-1.13,1.3-1.56,2.2-.42.91-.63,1.93-.63,3.07,0,1.37.27,2.57.81,3.61.54,1.04,1.19,1.84,1.96,2.4.76.56,1.66,1.02,2.7,1.37,1.04.36,1.97.59,2.79.69.82.1,1.62.15,2.4.15,1.01,0,2.03-.1,3.07-.3,1.04-.2,2.15-.56,3.33-1.07s2.15-1.35,2.91-2.5c.75-1.15,1.13-2.54,1.13-4.17v-7.64c0-3.47-.94-6.1-2.81-7.9ZM177.1,110.08c0,3.07-2.25,4.61-6.76,4.61h-.07c-4.6,0-6.91-1.58-6.91-4.75,0-3.35,3.07-5.03,9.22-5.03,1.89,0,3.4.1,4.52.3v4.88Z"></path>
      <path class="cls-1" d="M146.88,129.37c-.75-.21-1.52-.32-2.29-.32-.62,0-1.19.08-1.72.23-.53.15-1.05.41-1.56.78-.51.37-.91.93-1.2,1.67s-.44,1.65-.44,2.71c0,.94.11,1.77.34,2.48.22.71.5,1.26.82,1.65.32.39.71.71,1.16.96.45.25.87.4,1.25.47.38.07.78.1,1.19.1.77,0,1.44-.1,2.02-.29.58-.19,1.02-.42,1.31-.69.29-.27.53-.58.7-.93s.28-.65.32-.88c.05-.23.07-.46.07-.69v-11.49h-1.96v4.21ZM146.88,136.76c0,1.07-.81,1.6-2.46,1.6-.39,0-.73-.04-1.02-.14-.29-.09-.58-.26-.87-.51-.29-.25-.52-.65-.68-1.2-.16-.55-.24-1.23-.24-2.06,0-.77.08-1.41.24-1.92s.39-.88.69-1.11c.3-.24.61-.4.93-.48.32-.08.69-.13,1.12-.13.8,0,1.57.15,2.29.45v5.49Z"></path>
      <path class="cls-1" d="M174.87,129.06c-1.15,0-2.23.19-3.24.58v1.68c1.05-.36,2.04-.54,2.97-.54,1.03,0,1.77.2,2.22.59.45.39.7,1.04.74,1.94-.63-.08-1.28-.13-1.95-.13-1.58,0-2.81.3-3.71.89-.9.6-1.34,1.43-1.34,2.49,0,.23.02.47.06.71.04.24.15.54.33.91.18.37.42.68.72.95.3.27.75.5,1.35.7.6.2,1.29.3,2.08.3s1.45-.1,2.04-.29c.59-.19,1.03-.42,1.33-.69.3-.27.53-.58.7-.93.17-.36.28-.65.33-.88.05-.23.07-.46.07-.69v-3.1c0-1.45-.41-2.56-1.22-3.33-.81-.77-1.97-1.16-3.47-1.16ZM177.55,136.61c0,1.16-.81,1.74-2.43,1.74h-.03c-1.72,0-2.58-.61-2.58-1.82,0-.35.12-.66.36-.92.24-.26.54-.44.9-.55.36-.11.7-.19,1.02-.25.31-.05.61-.08.9-.08.73,0,1.35.05,1.86.14v1.73Z"></path>
      <path class="cls-1" d="M163.92,139.95h1.96v-8.64c1.11-.29,2.2-.44,3.26-.45v-1.81c-1.69,0-3.44.36-5.23,1.07v9.83Z"></path>
      <path class="cls-1" d="M109.42,129.04c-1.56,0-3.08.37-4.57,1.1v9.82h1.96v-8.72c.81-.26,1.65-.39,2.52-.39.97,0,1.62.18,1.95.55.32.36.48.86.48,1.49v7.07h2v-6.92c0-1.25-.39-2.23-1.16-2.94-.77-.71-1.84-1.06-3.19-1.06Z"></path>
      <path class="cls-1" d="M132.83,129.06h-.02c-3.16,0-4.73,1.89-4.73,5.66,0,1.07.15,1.98.44,2.73.29.75.69,1.31,1.19,1.68.5.36,1.02.63,1.55.78.53.16,1.11.24,1.74.24h.06c1.39,0,2.64-.23,3.75-.7v-1.79c-1.02.54-2.26.81-3.71.81-1.78,0-2.79-.92-3.02-2.76h7.41c.04-.47.06-.96.06-1.47,0-1.57-.43-2.83-1.29-3.77-.86-.94-2-1.41-3.44-1.41ZM130.05,133.94c.09-1.15.35-1.95.77-2.42s1.09-.7,1.99-.7c.5,0,.94.1,1.3.3.36.2.64.47.83.8.19.34.34.67.43.99.09.33.16.67.18,1.02h-5.51Z"></path>
      <path class="cls-1" d="M97.53,129.06h-.02c-3.16,0-4.73,1.89-4.73,5.66,0,1.07.15,1.98.44,2.73.29.75.69,1.31,1.19,1.68.5.36,1.02.63,1.55.78.53.16,1.11.24,1.74.24h.06c1.39,0,2.64-.23,3.75-.7v-1.79c-1.02.54-2.26.81-3.71.81-1.78,0-2.79-.92-3.02-2.76h7.41c.04-.47.06-.96.06-1.47,0-1.57-.43-2.83-1.29-3.77-.86-.94-2-1.41-3.44-1.41ZM94.75,133.94c.09-1.15.35-1.95.77-2.42.42-.47,1.09-.7,1.99-.7.5,0,.94.1,1.3.3.36.2.64.47.83.8.19.34.34.67.43.99.09.33.16.67.18,1.02h-5.51Z"></path>
      <path class="cls-1" d="M129.63,117.75v-16.58c0-2.95-.88-5.24-2.65-6.87-1.76-1.63-4.25-2.44-7.45-2.44-3.84,0-7.42.83-10.76,2.49v23.4h3.68v-21.21c2.32-.68,4.55-1.02,6.68-1.02,1.46,0,2.67.17,3.63.51.96.34,1.66.83,2.09,1.46.43.63.72,1.22.87,1.78.15.56.22,1.19.22,1.9v16.58h3.68Z"></path>
      <path class="cls-1" d="M123.66,129.37c-.75-.21-1.52-.32-2.29-.32-.62,0-1.19.08-1.72.23-.53.15-1.05.41-1.56.78-.51.37-.91.93-1.2,1.67s-.44,1.65-.44,2.71c0,.94.11,1.77.34,2.48.22.71.5,1.26.82,1.65.32.39.71.71,1.16.96.45.25.87.4,1.25.47.38.07.78.1,1.19.1.77,0,1.44-.1,2.02-.29.58-.19,1.02-.42,1.31-.69.29-.27.53-.58.7-.93s.28-.65.32-.88c.05-.23.07-.46.07-.69v-11.49h-1.96v4.21ZM123.66,136.76c0,1.07-.81,1.6-2.46,1.6-.39,0-.73-.04-1.02-.14-.29-.09-.58-.26-.87-.51-.29-.25-.52-.65-.68-1.2-.16-.55-.24-1.23-.24-2.06,0-.77.08-1.41.24-1.92s.39-.88.69-1.11c.3-.24.61-.4.93-.48.32-.08.69-.13,1.12-.13.8,0,1.57.15,2.29.45v5.49Z"></path>
      <g>
        <path class="cls-1" d="M76.6,32.34c5.29-3.17,6.92-10,2.44-13.52-3.82-3-9.42-1.1-12.22,2.8-2.21,3.08-2.31,6.97-.48,9.44,2.02,2.72,6.33,3.63,10.26,1.28Z"></path>
        <path class="cls-1" d="M68.43,37.29c-8.44,3.39-17.68,10.44-26.42,18.57,6.02-.2,12.02.72,17.83,1.61,5.28.81,10.26,1.57,14.36,1.29,9.92-.69,19.66-6.45,27.9-12.03-9.57-8.44-19.42-15.17-33.67-9.45Z"></path>
        <path class="cls-1" d="M151.53,20.17c5.82-4.77,6.91-13.13,1.67-17.71-5.03-4.4-12.9-2.59-17.11,3.03-3.63,4.85-3.42,11.18.16,14.8,3.69,3.74,10.3,3.96,15.28-.12Z"></path>
        <path class="cls-1" d="M143.38,25.57c-13.04.48-26.35,11.82-40.2,21.26l.5.44.04.04c.21.18.41.37.62.56l.04.03c2.02,1.72,6.37,5.08,12.69,8.19,13.22,6.52,31.63,13.66,45.15,15.82,2.73.4,5.27.62,7.55.61,5.44-.45,9.88-2.49,10.7-7.75,3.1-19.86-17.41-39.92-37.09-39.2Z"></path>
        <path class="cls-1" d="M116.46,57.33c-6.46-3.19-10.9-6.62-12.97-8.38l-.04-.03c-.31-.28-.61-.55-.9-.81-8.32,5.61-18.13,11.33-28.25,12.04-4.26.29-9.31-.48-14.67-1.3-5.92-.91-12.05-1.85-18.11-1.58-14.14,13.33-27.02,29.74-33.03,37.76,6.8-6.06,22.98-19.35,41.96-26.93.01,0,.02,0,.03-.01,7.33-2.98,14.91-5.32,24.74-6.41,15.45-1.7,35.59.09,54.12,3.96,3.45.72,11.56,2.79,19.9,4.49-11.16-3.21-23.29-8.12-32.77-12.8Z"></path>
        <path class="cls-1" d="M2.95,100.27c.1-.17,17.71-25.1,37.21-43.61-5.15.38-10.17,1.71-14.72,4.76C10.14,71.66,0,103.14,0,103.14l2.95-2.88h0Z"></path>
        <path class="cls-1" d="M27.39,56.25c2.49,1.09,5.85,0,7.65-3.2,2.42-4.31.83-9.72-3.68-10.38-3.86-.57-7,2.98-7.39,6.82-.31,3.02,1.17,5.77,3.43,6.76Z"></path>
      </g>
    </g>
  </g>
</svg>
