<svg xmlns="http://www.w3.org/2000/svg" viewBox="0 0 1004.084 254.701"><g transform="translate(322.706 -355.167)"><path d="M122.746,358.513c12.713,0,25.29-.286,37.844.135a35.06,35.06,0,0,1,15.54,3.969c4.463,2.413,7.365,6.424,10.463,10.234,1.349,5.182,3.342,10.31,2.444,15.787a22.635,22.635,0,0,1-5.954,12.258c-1.93,1.995-4.549,3.324-6.825,4.93a20.293,20.293,0,0,1,10.646,6.753,22.115,22.115,0,0,1,4.648,10.384,31.8,31.8,0,0,1,.779,3.765,30.124,30.124,0,0,1-3,13.922,25.516,25.516,0,0,1-11.072,11.432c-4.32,2.444-8.956,3.477-13.872,4.257-6.9,1.1-13.752.409-20.615.616-6.953.208-13.918.046-21.022.046Zm19.7,56.631v24.622c5.177,0,10.213.005,15.249,0a15.324,15.324,0,0,0,11.981-5.657,4.194,4.194,0,0,0,1.28-2.3c-.04-2.371,1.943-4.737.072-7.105.118-4.446-6.162-9.4-10.911-9.524C154.266,415.025,148.411,415.144,142.442,415.144Zm-.015-16.415c5.1,0,10.019.208,14.913-.072a13.8,13.8,0,0,0,9.018-3.9c2.72-2.669,3.447-6.346,2.3-10.332a11.314,11.314,0,0,1-.173-2.6c-1.112-1.114-2.1-2.061-3.042-3.051a9.961,9.961,0,0,0-6.956-2.958c-5.3-.231-10.621-.07-16.06-.07Z" fill="#fff" fill-rule="evenodd"/><path d="M65.189,356.741c9.269.253,16.445,1.524,23.217,4.878a47.31,47.31,0,0,1,15.844,13.224c3.9,4.822,6.274,10.271,8.163,15.923a32.78,32.78,0,0,1,2.015,11.492c-.04,1.133-.372,2.316.638,3.448a3.005,3.005,0,0,1,.083,2.734c-1.1,2.042-.409,4.206-.8,6.249-.93,4.886-1.665,9.764-3.575,14.5a49.15,49.15,0,0,1-13.8,19.253,40.457,40.457,0,0,1-17.32,8.631,51.287,51.287,0,0,1-17.366,1.467,48.624,48.624,0,0,1-17.538-5.1,30.263,30.263,0,0,1-8.524-6.111c-2.249-2.472-4.743-4.662-6.8-7.383a47.666,47.666,0,0,1-6.888-13.582c-.656-1.9-1.8-3.726-1.7-5.857.088-1.992-1.394-3.755-.825-5.811-1.468-3.2-.8-6.607-.752-9.91.034-2.69,1-5.34,1.335-8a45.039,45.039,0,0,1,2.691-9.578,46.883,46.883,0,0,1,5.752-11.168c2.038-2.914,4.633-5.209,7.042-7.717a34.513,34.513,0,0,1,15.154-8.91C56.327,357.861,61.52,356.31,65.189,356.741Zm28.687,50.947c-.2-2.971.121-6.255-.68-9.606a75.017,75.017,0,0,0-2.321-7.675c-1.661-4.67-5.215-7.928-8.74-11.1a25.091,25.091,0,0,0-5.609-3.224,12.284,12.284,0,0,0-4.047-1.013,56.425,56.425,0,0,0-10.639-.06,16.589,16.589,0,0,0-5.412,1.718c-3.4,1.557-6.356,4.247-9.172,7.429-2.443,2.761-3.7,6.089-5.089,9.385-1.851,4.4-1.73,9.153-2.392,13.753-.474,3.288,1.351,6.525.753,9.9,1.207,1.761,1.035,3.949,1.783,5.823s1.919,3.575,2.843,5.383a23.865,23.865,0,0,0,8.476,8.908c5.9,3.919,12.57,3.317,19.144,3.28.976-1.7,3.268.063,4.251-1.616,12.311-5.725,15.576-15.675,16.82-25.617A48.55,48.55,0,0,0,93.876,407.688Z" fill="#fff" fill-rule="evenodd"/><path d="M251.6,358.6H313.71v17.9H271.25v22.075h41.7c.118,5.808.022,11.467.065,17.272H271.348v23.029h42.315v18.044H251.6Z" fill="#fff" fill-rule="evenodd"/><path d="M656.089,384.631c.252-5.235-3.217-7.72-7.1-9.646-2.765-1.373-9.383-1.089-12.9-.248-1.368.327-2.993.183-4.059,1.068a55.867,55.867,0,0,0-4.791,5.162c-.209,1.189-.592,3.361-.919,5.225a9.2,9.2,0,0,1,.586,1.021c2.066,5.663,7.144,7.417,12.134,9q10.338,3.276,20.591,6.8a26.858,26.858,0,0,1,11.733,7.311,23.836,23.836,0,0,1,6.2,12.658c.288,2.079.915,4.186.61,6.235-.546,3.67-.762,7.443-2.393,10.891a35.863,35.863,0,0,1-8.955,11.466c-1.533,1.359-8.652,5.258-10.469,5.361-2.381.134-4.592,1.48-7.042.891-3.491,1.434-7.155.8-10.738.777a45.354,45.354,0,0,1-16.592-3.492,24.607,24.607,0,0,1-9.8-7.078,28.86,28.86,0,0,1-5.281-9.306c-1.167-3.558-2.084-7.254-1.634-11.157.549-.045.938-.107,1.327-.107,6-.005,12,0,18.25,0-.219,3.182,1.24,5.812,2.574,8.382,1.386,2.669,4.311,3.682,6.921,4.672,3.966,1.5,8.23,1.079,12.345.807,2.9-.191,5.458-1.972,8.049-3.257a6.138,6.138,0,0,0,2.994-4.407c.37-1.7,1.779-3.378-.007-5.066-.19-3.31-2.354-4.74-5.1-6.131-5.345-2.709-11.037-4.414-16.6-6.487-3.912-1.456-7.8-2.976-11.759-4.3-5.226-1.745-9-5.434-12.5-9.362-2.108-2.367-3.211-5.5-4.053-8.544-1.739-6.285-1.2-10.785,1.261-17.229.718-1.883,2.187-3.518,2.7-5.431.57-2.122,3.29-2.481,3.374-4.771,4.643-3.157,8.8-6.794,14.757-8.033a57.14,57.14,0,0,1,16.178-1.3,46.1,46.1,0,0,1,10.216,1.965,30.549,30.549,0,0,1,9.176,4.548,26.646,26.646,0,0,1,9.6,13.975,15.507,15.507,0,0,1,.662,7.146Z" fill="#fff" fill-rule="evenodd"/><path d="M462.943,429.924a64.92,64.92,0,0,0,2.645-8.314c.625-3.42,1.739-6.706,2.681-10,1-3.523,1.741-7.141,3.058-10.609,1.218-3.2,1.449-6.775,2.639-9.991.883-2.386,1.378-4.872,2.3-7.246.873-2.245,1.078-4.741,1.734-7.081.719-2.56,1.665-5.057,2.426-7.605.875-2.927,1.627-5.89,2.5-8.817a7.943,7.943,0,0,1,.987-1.673h20.425c-.326,1.475-.517,2.84-.935,4.13-1.873,5.785-3.84,11.538-5.718,17.321-1.725,5.306-3.335,10.648-5.078,15.949-2.374,7.218-4.854,14.4-7.229,21.618-1.23,3.737-2.292,7.527-3.5,11.271-2.094,6.515-4.237,13.014-6.366,19.517-.907,2.772-1.826,5.541-2.8,8.48H452.1q-15.888-48.857-31.926-98.172h21.593c.794,2.587,1.668,5.471,2.564,8.345,1.625,5.208,3.142,10.454,4.706,15.674.98,3.267,1.843,6.647,2.758,9.963.9,3.281,1.277,6.782,3.2,9.739-.092,3.576,1.749,6.679,2.562,10.034.8,3.3,1.417,6.73,3.183,9.741C460.421,425.034,462.494,427.224,462.943,429.924Z" fill="#fff" fill-rule="evenodd"/><path d="M341.74,456.858V376.715H316.326c-.068-6.07-.013-12-.037-18.068h71.262c.343,5.785.018,11.721.184,17.789H361.573v80.422Z" fill="#fff" fill-rule="evenodd"/><path d="M194.082,457.935V440.586c4.413,0,8.76.153,13.091-.047,3.556-.165,7.073-.876,9.355-4.055a30.43,30.43,0,0,0,1.993-3.8V376.629H194.475l-1.15-1.149V359.6l1.005-.993h43.994v4.1q0,32.8,0,65.6a19.454,19.454,0,0,1-.675,5.028c-.445,1.7-.431,3.589-.934,5.371-.452,1.593-1.743,2.806-1.753,4.641,0,.92-1.744,1.267-1.584,2.59-3.848,3.978-7.622,8.06-13.322,9.413-3.421.813-6.937,1.167-10.358,1.813C204.563,458.137,199.495,457.422,194.082,457.935Z" fill="#fff" fill-rule="evenodd"/><path d="M351.727,608.759H338.581V539.275h14.474L381.1,585.719V539.151h13.018v69.634c-2.1.111-4.37.034-6.637.048-2.187.014-4.375,0-7.032,0-1.322-2.037-2.816-4.27-4.239-6.546-2.916-4.665-5.9-9.3-8.651-14.059-1.724-2.984-3.516-5.923-5.286-8.88-2.827-4.72-5.685-9.419-8.654-14.051-.64-1-1.093-2.12-1.9-3.705Z" fill="#fff" fill-rule="evenodd"/><path d="M91.414,539.074h13.825c.042,1.025.12,2.064.121,3.1q.014,20.5,0,40.99a14.507,14.507,0,0,0,5.675,11.962c4.222,3.277,13.947,3.219,18.223.009,3.919-2.943,5.548-7.27,5.6-11.983.147-13.252.051-26.507.051-39.759v-4.184h13.953v2.972c0,13.936.022,27.873-.012,41.809-.012,5.6-3.2,14.015-7.564,18.231a33.954,33.954,0,0,1-9.776,6.215,15.364,15.364,0,0,1-5.643,1.165c-3.819.173-7.65.042-11.476.055-2.374.01-4.514-.936-6.691-1.666-4.817-1.613-8.315-5.1-11.473-8.817-2.045-2.41-3.109-5.53-3.944-8.58a30.2,30.2,0,0,1-.917-8.254c.1-12.98.045-25.96.045-38.941Z" fill="#fff" fill-rule="evenodd"/><path d="M479.714,539.1h14.608c.526,1.338,1.174,2.829,1.7,4.359,1.977,5.734,3.927,11.473,6.25,17.083.966,2.333,1.5,4.838,2.361,7.22,1.881,5.228,3.9,10.409,5.757,15.645,2.113,5.959,4.081,11.968,6.179,17.933.627,1.782,1.515,3.47,2.2,5.233a10.112,10.112,0,0,1,.32,2.091H503.8c-1.483-4.741-3.025-9.677-4.535-14.505H474.229c-1.6,4.821-3.149,9.515-4.793,14.48H454.352Q467.042,573.84,479.714,539.1Zm6.793,17.3c-2.98,9.349-5.758,18.061-8.54,26.787h17.549C492.667,574.26,489.849,565.625,486.507,556.4Z" fill="#fff" fill-rule="evenodd"/><path d="M211.2,557.011c-4.6.482-9.192-.633-13.83,1.2a7.237,7.237,0,0,0-3.9-6.728c-2.7-1.519-5.895-2.571-9.021-1.505-2.119.722-4.568.708-6.266,2.772-1.789,2.175-3.113,4.186-1.429,6.972.122.2.016.537.016.864,2.2,3.387,5.795,4.515,9.4,5.557,4.391,1.268,8.663,2.893,13.029,4.242a21.346,21.346,0,0,1,7.9,4.548,14.1,14.1,0,0,1,4.986,9.366c.121,1.678,1.115,3.189.823,5-1.065,6.6-2.273,11.472-9.287,16.312a21.5,21.5,0,0,1-13.109,4.061c-2.871-.066-5.746.059-8.615-.026-8.192-.244-14.393-4.009-18.83-10.817-.749-3.384-2.759-6.553-1.674-10.373h13.615c.235,1.581-.014,3.531,1.464,4.91,1.453,1.355,2.624,3.2,4.613,3.7a23.26,23.26,0,0,0,5.3,1.194c3.408.073,6.283-1.162,9.261-2.5a5.475,5.475,0,0,0,3.1-5.391,6,6,0,0,0-3.469-5.5c-4.431-2.288-9.2-3.572-13.718-5.544-2.661-1.161-5.474-1.966-8.178-3.034a17.583,17.583,0,0,1-9.916-10.1c-1.244-3.09-2.491-6.585-.809-10.207.685-1.476.309-3.465,1.054-4.887,3.13-5.973,7.5-10.4,14.451-12.12,4.995-1.24,9.932-.631,14.864-.575a17.131,17.131,0,0,1,7.936,2.453,19.25,19.25,0,0,1,8.06,8.005C210.206,551.323,211.463,553.936,211.2,557.011Z" fill="#fff" fill-rule="evenodd"/><path d="M77.319,557.064c-4.688.333-9.143-.6-13.763,1.113.028-2.213-.032-4.367-1.761-5.548-2.2-1.5-4.5-2.83-7.4-2.95-3.419-.144-6.334,1.145-9.195,2.6-.918.467-1.415,1.766-2.362,3.026a29.9,29.9,0,0,0,.665,5.147c.857,2.914,3.71,3.815,6.088,4.809,3.727,1.556,7.667,2.6,11.526,3.839a38.19,38.19,0,0,1,5.383,1.869c3.968,1.934,5.88,2.757,8.416,5.383A14.111,14.111,0,0,1,79.046,586.5c-.019,2.479.849,5.113-.764,7.448a16.751,16.751,0,0,1-8.961,12.4c-3.752,2.11-7.7,3.577-12.156,3.334-2.861-.157-5.738-.071-8.606-.021-5.88.1-10.773-2.44-15.132-5.977-2.982-2.419-4.432-5.946-5.207-9.694-.365-1.763-.7-3.53-1.1-5.517H40.949a39.875,39.875,0,0,0,2.082,5.062,9.607,9.607,0,0,0,7.045,4.455c2.622.4,5.473.726,8.281-.56,3.257-1.491,3.391-1.2,6.759-4.569v-5.277c-1.535-1.2-3.113-3.009-5.1-3.866-4.052-1.748-8.369-2.876-12.5-4.464-3.886-1.493-8.093-2.664-11.393-5.041-4.172-3-7.168-7.3-7.088-12.945.01-.683.042-1.369,0-2.049-.318-4.639,1.275-8.5,3.916-12.348A19.1,19.1,0,0,1,43,539.454a16.46,16.46,0,0,1,6.471-1.237c2.587.157,5.192.1,7.786.021,4.437-.134,8.278,1.618,11.979,3.741a11.245,11.245,0,0,1,3.671,2.913,43.353,43.353,0,0,1,4.32,7.622C77.761,553.747,77.319,555.4,77.319,557.064Z" fill="#fff" fill-rule="evenodd"/><path d="M281.967,539.158h44.054v12.153H295.872v16.332h29.257a36.5,36.5,0,0,1,.183,6.107c.045,2.032.01,4.065.01,6.239H295.969v16.464h30.005v12.3H281.967Z" fill="#fff" fill-rule="evenodd"/><path d="M598.71,551.239V567.7h29.28v12.361H598.782v16.344c4.823.266,9.826.076,14.822.111,5.041.034,10.083.007,15.255.007v12.118H584.781v-69.4h44.126v12Z" fill="#fff" fill-rule="evenodd"/><path d="M395.228,359.6l.978-.979H414.48c.4.4.689.689,1.05,1.052v96.168l-1.05,1.052H396.206l-.978-.979Z" fill="#fff" fill-rule="evenodd"/><path d="M546.571,589.378c2.349-8.4,4.613-16.583,6.919-24.749,2.285-8.083,4.614-16.153,7.109-24.872-.157.156.23-.231.577-.578H575.9c-1.5,4.778-2.7,9.423-4.417,13.874-1.774,4.61-3.029,9.39-4.658,14.04-1.579,4.51-2.818,9.24-4.43,13.759-1.657,4.645-3.1,9.38-4.617,14.048-1.485,4.571-3.092,9.122-4.412,13.832H538.67c-2.018-5.554-3.914-11.315-5.726-17.113s-3.807-11.536-5.722-17.3-3.9-11.505-5.726-17.3c-1.827-5.808-3.492-11.667-5.308-17.774h15.038c.8,2.611,1.551,5.541,2.589,8.367,1.884,5.127,2.54,10.627,4.842,15.617-.13,3.585,1.876,6.626,2.682,9.985.784,3.266,1.262,6.767,3.1,9.753-.558,1.677.87,2.972.894,4.57C545.344,588.078,546.028,588.607,546.571,589.378Z" fill="#fff" fill-rule="evenodd"/><path d="M253.227,608.762H239.145v-4.033q0-24.789-.006-49.582c0-1.31.421-2.776-1.372-3.774H220.4v-12.1h50.615v12.112c-5.785,0-11.724,0-17.787,0Z" fill="#fff" fill-rule="evenodd"/><path d="M423.939,552.746c-.68-.681-.969-.971-1.4-1.395h-17.49V539.26H455.69v12.018H437.881v57.5c-2.362.108-4.637.041-6.907.053-2.3.012-4.605,0-7.035,0Z" fill="#fff" fill-rule="evenodd"/><path d="M640.617,539.147H654.3V595.1a3.826,3.826,0,0,0,.408.45.656.656,0,0,0,.347.143c8.728.007,17.457.006,26.326.006v12.745c-3.275.552-29.875.728-40.761.24Z" fill="#fff" fill-rule="evenodd"/><path d="M487.87,491.681v26.791h-8.1V476.793c1.418-.03,3-.075,4.591-.091,1.621-.017,3.242,0,4.833,0,1.5,3.372,3.1,6.544,4.342,9.852,1.6,4.261,3.915,8.218,5.047,12.691.48,1.893,1.866,3.556,2.932,5.489,4.031-9.368,8.027-18.653,12.025-27.943H523v41.586h-8.18V492.318l-.433-.05c-3.426,8.674-6.853,17.35-10.329,26.154H498.81Z" fill="#fff" fill-rule="evenodd"/><path d="M573.922,491.832v26.624h-7.963V476.8h8.588c3.478,3.72,5.61,8.729,8.475,13.245,2.879,4.537,5.689,9.119,8.526,13.679a1.193,1.193,0,0,0,.311-.162.565.565,0,0,0,.193-.325c.008-8.731.008-17.463.008-26.366h8.116v41.512h-8.824c-5.584-8.718-10.806-18.1-16.737-27.015Z" fill="#fff" fill-rule="evenodd"/><path d="M304.66,518.482h-8.691l-16.387-27.313c-.465,4.746-.148,9.178-.208,13.594-.061,4.494-.013,8.991-.013,13.639h-7.8c-.611-3.253-.8-27.987-.286-41.559h8.75l16.535,27.552V476.779h8.1Z" fill="#fff" fill-rule="evenodd"/><path d="M144.275,518.456H122.707V476.7h3.015c4.231,0,8.464-.1,12.691.036,2.485.077,5.2-.039,7.387.906,3.88,1.671,7.582,3.695,9.869,7.788a25.434,25.434,0,0,1,2.937,15.521c-.71,5-2.435,9.846-6.624,13.157-1.454,1.15-2.712,2.8-4.954,2.884C146.122,517.026,145.248,517.91,144.275,518.456Zm-12.235-6.467c1.737,0,3.637.1,5.519-.034a12.276,12.276,0,0,0,3.743-.821c2.585-1.069,5.112-2.1,6.52-4.977a19.564,19.564,0,0,0,1.836-10.7c-.623-6.6-4.393-10.753-11.525-11.349-2.03-.17-4.085-.026-6.093-.026l-1.125,1.124v25.656C131.31,511.261,131.6,511.551,132.04,511.989Z" fill="#fff" fill-rule="evenodd"/><path d="M30,476.7c5.65,0,11.244-.3,16.783.11a25.034,25.034,0,0,1,10.28,2.789,16.272,16.272,0,0,1,5.54,5.074c1.723,2.472,2.553,5.488,3.332,8.418.467,1.756-.484,7.912-.726,10.3-.633,6.231-4.522,10.1-9.323,13.23a11.75,11.75,0,0,1-5.736,1.849c-6.662.222-13.337.086-20.15.086Zm26.941,16.477c-.417-.955-.6-1.429-.824-1.88-2.384-4.745-6.151-7.276-11.546-7.213-1.769.021-3.54,0-5.276,0-.419.419-.805.806-1.125,1.124v25.656c.4.4.685.685.954.952a22.593,22.593,0,0,0,12.945-1.933c.143-.141.547-.511.911-.916,2.507-2.795,4.269-5.865,3.986-9.826C56.823,497.105,56.943,495.049,56.943,493.175Z" fill="#fff" fill-rule="evenodd"/><path d="M369.65,519.376c-3.911,0-6.432-.34-8.344-1.386-3.806-2.083-7.153-4.5-9.012-8.8-1.141-2.636-2.754-4.993-2.35-8.03a4.528,4.528,0,0,1-.731-4.543c1.091-3.5,1.1-7.2,3.054-10.616,2.679-4.7,6.971-6.886,11.28-9.307,2.438.552,4.67-1.1,7.019-.768,2.648.375,5.478.68,7.8,1.86a18.813,18.813,0,0,1,8.654,8.038A24.967,24.967,0,0,1,390,501.706c-.624,3.917-1.853,7.958-5.012,11-2.756,2.65-5.429,5.085-9.339,6.194C373.444,519.522,371.39,518.887,369.65,519.376Zm-3.8-35.2c-3.579,2.187-5.479,4.3-6.6,7.436a17.857,17.857,0,0,0-.292,11.931c1.982,6.029,6.587,8.892,11.585,8.5a9.336,9.336,0,0,0,4.752-1.369c2.078-1.564,4.215-3.37,5-6.066a20.651,20.651,0,0,0-.032-12.838c-1.451-4.185-3.909-7.509-8.948-7.716-.449-.019-.879-.463-1.289-.693C368.877,484.726,367.227,483.745,365.852,484.174Z" fill="#fff" fill-rule="evenodd"/><path d="M658.578,519.31a15.743,15.743,0,0,1-10.254-2.293,20.312,20.312,0,0,1-9.483-12.806,26.976,26.976,0,0,1-.79-3.347c-.137-1.212-.009-2.452-.034-3.679-.1-4.834,1.808-8.928,4.286-12.971a14.848,14.848,0,0,1,9.729-7.028c3.144-.692,6.426-2.611,9.779-.488,3.647-.247,6.265,1.946,9.107,3.718,3.336,2.083,5.035,5.334,6.432,8.743a9.81,9.81,0,0,1,.959,4.549c-.1,1.222.772,2.514.7,3.744-.381,6.334-1.917,12.25-6.75,16.832C668.361,517.977,663.894,520.054,658.578,519.31Zm9.81-29.89c-.5-.5-.9-.872-1.27-1.275-2.2-2.407-4.441-4.728-8.169-4.06-1.435-1.423-2.829.179-4.191.273a6.439,6.439,0,0,0-4.172,2.5c-1.615,2.234-3.335,4.682-3.474,7.538-.205,4.2-.573,8.511,1.735,12.379a8.547,8.547,0,0,0,1.43,1.463c.968.967,1.935,1.935,3.084,3.085l7.413.82c1.06-.525,1.509-.77,1.975-.976,5.01-2.2,6.708-6.568,7.231-11.516.319-3.005.222-6.057-1.559-8.774C668.178,490.509,668.388,489.84,668.388,489.42Z" fill="#fff" fill-rule="evenodd"/><path d="M198.183,506.346h8.025c1.079,1.969,1.57,4.675,4.363,5.369,1.283.318,2.666.866,3.89.654,2.387-.416,5.018-.634,6.554-3.627v-2.017a10.042,10.042,0,0,0-4.745-3.739c-3.339-1.184-6.745-2.173-10.1-3.318-3.852-1.315-7.218-6.152-7.241-10.284-.006-1.089,0-2.179,0-3.044a9.813,9.813,0,0,0,1.425-2.5c.675-3.359,3.446-4.663,5.888-6.312.094-.063.35.047.393-.016,1.2-1.811,3.242-.272,4.834-1.264a5.12,5.12,0,0,1,4.932.169,8.083,8.083,0,0,0,3.107.351c5.22,2.159,8.978,5.116,8.993,11.286-1.316.045-2.629.108-3.943.131-1.345.022-2.69.005-3.931.005-1.8-3.862-4.689-5.407-9.427-4.784l-4.139,4.128c.617,3.952,3.561,4.605,6.163,5.558,2.849,1.044,5.819,1.77,8.633,2.895,3.053,1.222,5.788,2.93,6.644,6.5.082.344.517.6.795.911,0,1.213-.032,2.444.006,3.671a11.768,11.768,0,0,1-8.492,11.546c-2.77.863-5.511.629-8.281.774-3.81.2-7.255-.617-10.111-3.295-1.812.18-.733-2.284-2.207-2.412C199.141,511.385,197.806,509.156,198.183,506.346Z" fill="#fff" fill-rule="evenodd"/><path d="M245.855,511.19h17.789v7.181H236.786V477.826l.983-.983h25.922c.172,2.218.029,4.607.089,7.136H245.9v9.891h16.884v7.43H245.855Z" fill="#fff" fill-rule="evenodd"/><path d="M559.148,476.837v7.141H541.69l-1.212,1.213v8.722h17.786v7.15c.058-.054-.031.057-.143.128a.726.726,0,0,1-.356.124c-5.447.006-10.892.005-16.181.005l-1.128,1.129v8.676h18.689v7.284H532.553c-.6-3.259-.785-29.229-.269-41.572Z" fill="#fff" fill-rule="evenodd"/><path d="M166.243,476.776h25.993V484H175.628l-1.239,1.239v8.556h17.769v7.429H174.492v9.89H192.2v7.367H166.243Z" fill="#fff" fill-rule="evenodd"/><path d="M81.709,493.955H99.5v7.285H81.666v9.891H99.541v7.283h-25.8c-.541-3.21-.715-31.764-.224-41.59h25.91v7.191H82.866l-1.157,1.158Z" fill="#fff" fill-rule="evenodd"/><path d="M429.458,476.84c2.946,10.121,5.854,20.117,8.824,30.322.942-2.943,2.023-5.746,2.72-8.641.835-3.469,1.935-6.853,2.87-10.289.7-2.577,1.334-5.175,2.124-7.726a34.568,34.568,0,0,1,1.6-3.718h7.96c.93,2.156-.429,3.859-1,5.622-1.9,5.892-4.482,11.609-5.887,17.607-1.37,5.85-4.015,11.26-5.2,17.132-.093.461-.64.83-1.033,1.311h-8.851c-1.045-3.374-2.1-6.887-3.225-10.378s-2.276-6.986-3.421-10.471c-1.1-3.354-2.348-6.675-3.369-10.066-1.053-3.5-2.983-6.757-3.1-10.705Z" fill="#fff" fill-rule="evenodd"/><path d="M310.371,476.8h8.983c2.94,10.1,5.852,20.1,8.875,30.474.733-2.078,1.841-3.878,1.9-5.713.088-2.563,1.2-4.784,1.9-7.059,1.076-3.511,1.607-7.177,3.073-10.6a48.53,48.53,0,0,0,1.882-7.1h8.541c.985,1.21-.263,2.109-.489,3.176a112.677,112.677,0,0,1-3.323,11.335c-2.212,6.864-4.558,13.685-6.8,20.539-.554,1.691-.894,3.452-1.408,5.157a6.2,6.2,0,0,1-.927,1.4h-8.929c-1.521-4.237-3.413-8.676-4.688-13.286-1.32-4.777-2.837-9.483-4.316-14.206C313.208,486.326,311.177,481.907,310.371,476.8Z" fill="#fff" fill-rule="evenodd"/><path d="M637.057,484.093H626.933c-.426.426-.715.715-1.122,1.12v33.144h-8.189V484.1c-1.819-.007-3.538-.014-5.257-.016-1.755,0-3.512,0-5.4,0V476.9h30.09Z" fill="#fff" fill-rule="evenodd"/><path d="M397.671,476.775h7.954v33.883a3.712,3.712,0,0,0,.417.38.718.718,0,0,0,.354.125c5.169.007,10.339.006,15.64.006v7.19H397.671Z" fill="#fff" fill-rule="evenodd"/><path d="M469.627,518.465H461.72V477.773c.339-.339.629-.628,1-1h6.911Z" fill="#fff" fill-rule="evenodd"/><path d="M480.225,534.826c2.693-4.221,5.222-8.185,7.712-12.086h11.532l-12.087,12.086Z" fill="#fff" fill-rule="evenodd"/><path d="M548.277,381.5V358.971c-5.555.156-10.541.721-15.592,3.087,2.772,7.109,5.423,13.912,8.114,20.81C543.594,382.355,545.872,381.936,548.277,381.5Zm-12.41,53.85c-3.966,6.449-7.8,12.676-11.755,19.1a37.12,37.12,0,0,0,15.243,5.8c1.411-7.593,2.743-14.765,4.09-22.039C540.771,437.192,538.6,436.373,535.867,435.346ZM500.149,422.8c7.318-2.1,14.328-4.105,21.456-6.148-.212-2.881-.394-5.275-.6-8.046l-22.286-1.974A37.726,37.726,0,0,0,500.149,422.8Zm22.2-3.55-21.567,6.2c1.834,5.578,3.886,10.166,7.425,14.535,6.137-4.645,11.952-9.049,17.785-13.463C524.685,423.917,523.644,421.835,522.346,419.249ZM564.046,435c-2.52,1.053-4.749,1.981-7.368,3.075,1.394,7.407,2.76,14.656,4.169,22.129a40.33,40.33,0,0,0,15.046-6.057C571.87,447.641,568.019,441.417,564.046,435Zm14.093-28.731c7.6-.718,14.867-1.408,22.4-2.121a40.174,40.174,0,0,0-4.427-15.6c-6.885,3.444-13.434,6.718-20.163,10.082C576.692,401.206,577.328,403.428,578.139,406.269Zm22.6.457-22.267,2.112c-.318,2.893-.573,5.176-.86,7.766,7.424,2.113,14.453,4.107,21.867,6.217C600.625,417.3,601.592,412.446,600.734,406.726Zm-78.951,46.323c4.076-6.592,7.886-12.75,11.777-19.046-2.108-1.89-3.916-3.505-5.965-5.342L509.743,442.3C513.436,446.589,516.9,450.161,521.783,453.049Zm47.668-89.927c-2.766,7.232-5.366,14.023-7.963,20.814,2.531,1.562,4.5,2.776,6.662,4.109,5.074-5.56,9.986-10.953,15.035-16.486A41.983,41.983,0,0,0,569.451,363.122Zm8.7,89.535c4.8-3.235,8.673-6.425,11.682-11.018-6.148-4.627-11.923-8.973-17.671-13.3-2.143,1.983-3.912,3.617-5.786,5.347C570.372,440.119,574.137,446.184,578.155,452.657Zm-73.416-66.809c6.966,3.466,13.423,6.679,20.038,9.969,1.7-2.271,3.135-4.2,4.707-6.3-5.04-5.537-9.883-10.86-14.858-16.325A39.447,39.447,0,0,0,504.739,385.848Zm80.55-12.342c-5.162,5.63-10.1,11.024-15.137,16.512,1.754,2.219,3.187,4.029,4.83,6.106,6.683-3.329,13.151-6.544,19.84-9.876A41.674,41.674,0,0,0,585.289,373.506Zm-33.874,8.022c2.594.513,4.945.978,7.535,1.488,2.74-7.164,5.351-13.983,8.044-21.026a36.974,36.974,0,0,0-15.579-2.912ZM516.6,371.176c5.123,5.621,10.046,11.018,15.095,16.554l6.531-4-8.139-20.893A47.289,47.289,0,0,0,516.6,371.176Zm6.651,27.23-19.519-9.734a39.2,39.2,0,0,0-4.637,14.969c7.56.677,14.634,1.313,21.943,1.97C521.792,403.157,522.433,401.059,523.249,398.406Zm50.665,27.54,17.571,13.164c3.184-4.356,5.5-8.295,6.5-13.639l-20.782-6.008C576.035,421.77,575.093,423.632,573.914,425.946Z" fill="#fff" fill-rule="evenodd"/><path d="M542.108,461.065c1.266-7.364,2.532-14.725,3.813-22.185H554.2c1.373,7.473,2.723,14.829,4.071,22.185Z" fill="#fff" fill-rule="evenodd"/><path d="M548.277,381.5c-2.4.44-4.683.859-7.478,1.372-2.691-6.9-5.342-13.7-8.114-20.81,5.051-2.366,10.037-2.931,15.592-3.087Z" fill="#fff" fill-rule="evenodd"/><path d="M535.867,435.346c2.73,1.027,4.9,1.846,7.578,2.857-1.347,7.274-2.679,14.446-4.09,22.039a37.12,37.12,0,0,1-15.243-5.8C528.065,448.022,531.9,441.8,535.867,435.346Z" fill="#fff" fill-rule="evenodd"/><path d="M500.149,422.8a37.726,37.726,0,0,1-1.429-16.168l22.286,1.974c.205,2.771.387,5.165.6,8.046C514.477,418.694,507.467,420.7,500.149,422.8Z" fill="#fff" fill-rule="evenodd"/><path d="M522.346,419.249c1.3,2.586,2.339,4.668,3.643,7.268-5.833,4.414-11.648,8.818-17.785,13.463-3.539-4.369-5.591-8.957-7.425-14.535Z" fill="#fff" fill-rule="evenodd"/><path d="M564.046,435c3.973,6.417,7.824,12.641,11.847,19.147a40.33,40.33,0,0,1-15.046,6.057c-1.409-7.473-2.775-14.722-4.169-22.129C559.3,436.981,561.526,436.053,564.046,435Z" fill="#fff" fill-rule="evenodd"/><path d="M578.139,406.269c-.811-2.841-1.447-5.063-2.187-7.638,6.729-3.364,13.278-6.638,20.163-10.082a40.174,40.174,0,0,1,4.427,15.6C593.006,404.861,585.741,405.551,578.139,406.269Z" fill="#fff" fill-rule="evenodd"/><path d="M600.734,406.726c.858,5.72-.109,10.578-1.26,16.1-7.414-2.11-14.443-4.1-21.867-6.217.287-2.59.542-4.873.86-7.766Z" fill="#fff" fill-rule="evenodd"/><path d="M521.783,453.049c-4.887-2.888-8.347-6.46-12.04-10.744l17.852-13.644c2.049,1.837,3.857,3.452,5.965,5.342C529.669,440.3,525.859,446.457,521.783,453.049Z" fill="#fff" fill-rule="evenodd"/><path d="M569.451,363.122a41.983,41.983,0,0,1,13.734,8.437c-5.049,5.533-9.961,10.926-15.035,16.486-2.164-1.333-4.131-2.547-6.662-4.109C564.085,377.145,566.685,370.354,569.451,363.122Z" fill="#fff" fill-rule="evenodd"/><path d="M578.155,452.657c-4.018-6.473-7.783-12.538-11.775-18.972,1.874-1.73,3.643-3.364,5.786-5.347,5.748,4.328,11.523,8.674,17.671,13.3C586.828,446.232,582.96,449.422,578.155,452.657Z" fill="#fff" fill-rule="evenodd"/><path d="M504.739,385.848a39.447,39.447,0,0,1,9.887-12.659c4.975,5.465,9.818,10.788,14.858,16.325-1.572,2.1-3.007,4.032-4.707,6.3C518.162,392.527,511.7,389.314,504.739,385.848Z" fill="#fff" fill-rule="evenodd"/><path d="M585.289,373.506a41.674,41.674,0,0,1,9.533,12.742c-6.689,3.332-13.157,6.547-19.84,9.876-1.643-2.077-3.076-3.887-4.83-6.106C575.185,384.53,580.127,379.136,585.289,373.506Z" fill="#fff" fill-rule="evenodd"/><path d="M551.415,381.528v-22.45a36.974,36.974,0,0,1,15.579,2.912c-2.693,7.043-5.3,13.862-8.044,21.026C556.36,382.506,554.009,382.041,551.415,381.528Z" fill="#fff" fill-rule="evenodd"/><path d="M516.6,371.176a47.289,47.289,0,0,1,13.487-8.339l8.139,20.893-6.531,4C526.644,382.194,521.721,376.8,516.6,371.176Z" fill="#fff" fill-rule="evenodd"/><path d="M523.249,398.406c-.816,2.653-1.457,4.751-2.213,7.2-7.309-.657-14.383-1.293-21.943-1.97a39.2,39.2,0,0,1,4.637-14.969Z" fill="#fff" fill-rule="evenodd"/><path d="M573.914,425.946c1.179-2.314,2.121-4.176,3.293-6.483l20.782,6.008c-1,5.344-3.32,9.283-6.5,13.639Z" fill="#fff" fill-rule="evenodd"/><g transform="translate(-592.14 164.905)"><path d="M324.871,196.558c-9.5,9.534-15.585,21.808-26.079,30.556-3.008,2.508-6.28,4.779-9.514,8.051,2.657-18.807,15.2-36.134,35.593-38.607Z" transform="translate(16.181 3.932)" fill="#fff" fill-rule="evenodd"/><path d="M325.168,196.413l-.22.221a123.531,123.531,0,0,0-11.135,13.527c-4.44,5.949-9.031,12.1-14.951,17.036-.908.757-1.82,1.476-2.786,2.238a69.773,69.773,0,0,0-6.721,5.806l-.229.232.046-.323a52.893,52.893,0,0,1,3.822-13.646,46.379,46.379,0,0,1,7.348-11.837,39.173,39.173,0,0,1,10.686-8.771,37.725,37.725,0,0,1,13.831-4.444Zm-35.736,38.444a71.847,71.847,0,0,1,6.511-5.592c.965-.761,1.876-1.48,2.781-2.235,5.9-4.919,10.484-11.06,14.916-17A125.925,125.925,0,0,1,324.574,196.7C302.363,199.564,291.785,218.934,289.432,234.858Z" transform="translate(16.181 3.932)" fill="#fff"/><path d="M397.516,196.558c9.5,9.534,15.585,21.808,26.081,30.556,3.006,2.508,6.279,4.779,9.513,8.051-2.659-18.807-15.2-36.134-35.593-38.607Z" transform="translate(104.923 3.932)" fill="#fff" fill-rule="evenodd"/><path d="M397.219,196.413l.31.038a37.722,37.722,0,0,1,13.831,4.444,39.175,39.175,0,0,1,10.686,8.771,46.387,46.387,0,0,1,7.348,11.837,52.9,52.9,0,0,1,3.823,13.646l.046.323-.229-.232a69.787,69.787,0,0,0-6.714-5.8c-.968-.764-1.882-1.485-2.791-2.244-5.922-4.936-10.513-11.088-14.954-17.038a123.528,123.528,0,0,0-11.134-13.525Zm35.736,38.444c-2.356-15.923-12.935-35.294-35.143-38.154a125.918,125.918,0,0,1,10.934,13.326c4.433,5.94,9.017,12.081,14.919,17,.907.757,1.82,1.477,2.787,2.24A71.845,71.845,0,0,1,432.956,234.858Z" transform="translate(104.923 3.932)" fill="#fff"/><path d="M304.968,203.443c-14.088,7.509-11.427,25.669-16.35,37.035l.453.087c4.675-11.223,22.743-13.9,27.91-26.694-.355,23.771-24.94,28.225-34.922,46.492-.644-21.06-5.254-49.521,22.909-56.92Z" transform="translate(9.716 9.577)" fill="#fff" fill-rule="evenodd"/><path d="M305.834,203.1l-.815.435c-9.523,5.076-11.339,14.951-13.1,24.5-.825,4.487-1.6,8.727-3.153,12.357l.235.045a18.453,18.453,0,0,1,5.346-6.85,70.156,70.156,0,0,1,7.823-5.488c5.922-3.778,12.045-7.684,14.707-14.273l.217-.537-.009.579a28.1,28.1,0,0,1-5.886,17.2c-3.456,4.573-7.951,8.216-12.711,12.072-6.089,4.933-12.385,10.033-16.338,17.267l-.191.349-.012-.4c-.066-2.148-.171-4.333-.282-6.647-.242-5.03-.492-10.231-.338-15.367a57.871,57.871,0,0,1,2.094-14.814,28.587,28.587,0,0,1,7.039-12.327,27.2,27.2,0,0,1,6.155-4.616,36.2,36.2,0,0,1,8.321-3.257Zm-16.7,37.584-.672-.13.053-.123c1.574-3.634,2.36-7.908,3.192-12.434.869-4.726,1.767-9.612,3.646-13.948a23.379,23.379,0,0,1,3.681-6.019,19.772,19.772,0,0,1,5.1-4.253c-10.73,3.055-17.443,9.546-20.509,19.82-2.752,9.22-2.218,20.317-1.747,30.108.1,2.174.2,4.235.27,6.259,3.983-7.09,10.193-12.12,16.2-16.988,9.288-7.524,18.067-14.637,18.5-28.545-2.793,6.337-8.777,10.155-14.57,13.85-5.594,3.568-10.877,6.939-13.119,12.321Z" transform="translate(9.716 9.577)" fill="#fff"/><path d="M417.417,203.443c14.088,7.509,11.427,25.669,16.35,37.035l-.453.087c-4.673-11.223-22.743-13.9-27.91-26.694.355,23.771,24.938,28.225,34.922,46.492.644-21.06,5.254-49.521-22.909-56.92Z" transform="translate(111.391 9.577)" fill="#fff" fill-rule="evenodd"/><path d="M416.551,203.1l.893.235a36.2,36.2,0,0,1,8.321,3.257,27.194,27.194,0,0,1,6.155,4.616,28.587,28.587,0,0,1,7.039,12.327,57.869,57.869,0,0,1,2.094,14.814c.154,5.136-.1,10.337-.338,15.367-.111,2.313-.216,4.5-.282,6.647l-.012.4-.191-.349c-3.953-7.234-10.249-12.334-16.338-17.266-4.76-3.856-9.256-7.5-12.711-12.072a28.1,28.1,0,0,1-5.886-17.2l-.009-.579.217.537c2.662,6.589,8.785,10.5,14.707,14.273a70.141,70.141,0,0,1,7.823,5.489,18.447,18.447,0,0,1,5.345,6.851l.235-.045c-1.548-3.629-2.328-7.87-3.153-12.357-1.756-9.55-3.572-19.426-13.1-24.5Zm23.679,56.864c.066-2.024.165-4.085.27-6.259.471-9.791,1-20.889-1.747-30.108-3.066-10.274-9.779-16.765-20.509-19.82a19.771,19.771,0,0,1,5.1,4.253,23.379,23.379,0,0,1,3.681,6.019c1.879,4.335,2.777,9.222,3.646,13.948.832,4.525,1.618,8.8,3.192,12.434l.053.123-.672.13-.034-.081c-2.241-5.382-7.525-8.753-13.119-12.321-5.792-3.7-11.777-7.513-14.57-13.85.437,13.909,9.216,21.021,18.5,28.546C430.037,247.848,436.247,252.879,440.23,259.968Z" transform="translate(111.391 9.577)" fill="#fff"/><path d="M286.831,214.784c-7.582,13.857.54,27.533-2.275,50.553.118.122.118.533.562.386,4.39-20.068,21.083-23.289,25.467-33.335-3.01,22.75-23.134,34.09-26.612,54.72-.966-10.694-24.821-45.659,2.857-72.324Z" transform="translate(3.246 18.875)" fill="#fff" fill-rule="evenodd"/><path d="M287.265,214.216l-.339.62c-4.3,7.867-3.543,15.522-2.58,25.214.716,7.2,1.528,15.362.323,25.256a.847.847,0,0,1,.065.128c.064.144.105.212.214.212a.362.362,0,0,0,.079-.01,34.1,34.1,0,0,1,6.827-14.4,61.406,61.406,0,0,1,9.522-9.008c3.988-3.241,7.433-6.039,9.111-9.886l.307-.7-.1.76c-1.57,11.864-7.819,20.682-13.863,29.21-5.7,8.044-11.086,15.643-12.75,25.514l-.139.824-.075-.832c-.213-2.354-1.529-5.858-3.195-10.294-5.8-15.45-15.515-41.309,6.085-62.117Zm-2.317,51.646c-.261,0-.352-.205-.412-.341a.472.472,0,0,0-.058-.109l-.036-.037.006-.051c1.21-9.889.4-18.051-.318-25.252a88.577,88.577,0,0,1-.68-13.272,27.529,27.529,0,0,1,2.96-11.454c-20.853,20.627-11.277,46.122-5.537,61.4a59.568,59.568,0,0,1,3.118,9.646,43.359,43.359,0,0,1,4.8-12.864,126.386,126.386,0,0,1,7.866-12.043c5.907-8.335,12.011-16.948,13.725-28.4-1.788,3.563-5.084,6.241-8.867,9.314-6.374,5.179-13.6,11.049-16.288,23.347l-.013.06-.058.019A.647.647,0,0,1,284.949,265.862Z" transform="translate(3.246 18.875)" fill="#fff"/><path d="M436.228,214.784c7.582,13.857-.54,27.533,2.275,50.553-.118.122-.118.533-.562.386-4.391-20.068-21.081-23.289-25.467-33.335,3.01,22.75,23.134,34.09,26.614,54.72.966-10.694,24.82-45.659-2.859-72.324Z" transform="translate(117.186 18.875)" fill="#fff" fill-rule="evenodd"/><path d="M435.794,214.216l.509.49c21.6,20.809,11.889,46.668,6.086,62.118-1.666,4.436-2.982,7.94-3.195,10.293l-.075.832-.139-.824c-1.665-9.871-7.05-17.469-12.751-25.513-6.044-8.528-12.294-17.346-13.864-29.211l-.1-.759.307.7c1.679,3.846,5.123,6.645,9.111,9.886a61.412,61.412,0,0,1,9.521,9.008,34.108,34.108,0,0,1,6.828,14.4.362.362,0,0,0,.079.01c.109,0,.151-.068.214-.212a.851.851,0,0,1,.065-.128c-1.2-9.894-.393-18.054.323-25.256.964-9.692,1.725-17.347-2.58-25.214Zm3.275,72.178a59.559,59.559,0,0,1,3.118-9.646c5.739-15.281,15.315-40.776-5.539-61.4a27.529,27.529,0,0,1,2.96,11.454,88.577,88.577,0,0,1-.68,13.272c-.716,7.2-1.527,15.363-.318,25.252l.006.051-.036.037a.471.471,0,0,0-.058.109.449.449,0,0,1-.412.341.647.647,0,0,1-.2-.037l-.058-.019-.013-.06c-2.691-12.3-9.915-18.169-16.288-23.348-3.782-3.074-7.078-5.751-8.867-9.314,1.714,11.456,7.818,20.069,13.726,28.4a126.4,126.4,0,0,1,7.866,12.043A43.365,43.365,0,0,1,439.069,286.394Z" transform="translate(117.186 18.875)" fill="#fff"/><path d="M274.176,235.9c-3,14.674,10.741,31.979,14.206,52.15.246.095.419-.118.5-.282-1.161-15.576,3.345-23.043,11.316-34.612a38.512,38.512,0,0,0,4.036-10.21c3.935,5.287.184,16.879-3.916,31.378-2.9,10.246-7.048,18.927-5.9,34.159-5.045-6.12-20.022-24.556-21.407-31.7-4.408-13.773-5.229-27.595,1.165-40.88Z" transform="translate(0 36.189)" fill="#fff" fill-rule="evenodd"/><path d="M274.456,235.07l-.175.854c-1.729,8.442,2.191,17.961,6.342,28.038,3.138,7.619,6.382,15.5,7.853,24,.145.019.252-.14.3-.219-.551-7.429.141-13.236,2.242-18.824,2.014-5.356,5.173-10.134,9.093-15.824a38.755,38.755,0,0,0,4.023-10.179l.059-.214.132.178c3.67,4.931.735,15.22-2.981,28.245-.3,1.049-.609,2.134-.918,3.227-.556,1.966-1.168,3.906-1.76,5.782-2.489,7.89-5.063,16.049-4.137,28.34l.026.34-.217-.263c-4.73-5.739-8.794-10.944-12.08-15.472-5.6-7.723-8.75-13.2-9.349-16.274a65.963,65.963,0,0,1-3.471-20.65,48.487,48.487,0,0,1,1.136-10.225,46.728,46.728,0,0,1,3.507-10.079ZM288.5,288.184a.439.439,0,0,1-.158-.031l-.057-.022-.01-.06c-1.462-8.51-4.71-16.4-7.852-24.027a129.6,129.6,0,0,1-5.416-14.739,29.466,29.466,0,0,1-1.089-12.6c-5.405,11.747-5.667,24.858-.805,40.048l0,.012c.59,3.043,3.723,8.492,9.313,16.195,3.233,4.455,7.221,9.568,11.856,15.2a60.985,60.985,0,0,1,.8-15.482,102.4,102.4,0,0,1,3.373-12.6c.591-1.874,1.2-3.812,1.758-5.775.309-1.093.619-2.178.918-3.227,3.654-12.808,6.549-22.958,3.146-27.875a38.382,38.382,0,0,1-3.989,10.02l0,0c-7.995,11.6-12.461,18.928-11.3,34.543l0,.03-.013.027A.592.592,0,0,1,288.5,288.184Z" transform="translate(0 36.189)" fill="#fff"/><path d="M448.556,235.9c3,14.674-10.741,31.979-14.206,52.15-.246.095-.419-.118-.5-.282,1.165-15.576-3.343-23.043-11.312-34.612a38.455,38.455,0,0,1-4.038-10.21c-3.935,5.287-.184,16.879,3.916,31.378,2.9,10.246,7.048,18.927,5.9,34.159,5.043-6.12,20.022-24.556,21.405-31.7,4.409-13.773,5.23-27.595-1.163-40.88Z" transform="translate(120.761 36.189)" fill="#fff" fill-rule="evenodd"/><path d="M448.275,235.07l.378.785a46.726,46.726,0,0,1,3.507,10.079,48.482,48.482,0,0,1,1.136,10.225,65.947,65.947,0,0,1-3.473,20.65c-.6,3.075-3.743,8.55-9.348,16.274-3.277,4.516-7.341,9.721-12.079,15.472l-.217.263.026-.34c.927-12.291-1.647-20.45-4.137-28.34-.592-1.876-1.2-3.815-1.76-5.782-.309-1.093-.618-2.178-.918-3.227-3.716-13.026-6.651-23.314-2.981-28.245l.132-.178.059.214a38.7,38.7,0,0,0,4.025,10.179c3.92,5.691,7.079,10.47,9.092,15.824,2.1,5.589,2.792,11.4,2.24,18.824.049.087.155.237.3.219,1.472-8.508,4.716-16.386,7.853-24,4.15-10.078,8.07-19.6,6.342-28.038Zm-19.829,73.086c4.643-5.643,8.631-10.755,11.855-15.2,5.59-7.7,8.723-13.152,9.312-16.195l0-.012c4.863-15.19,4.6-28.3-.8-40.048a29.466,29.466,0,0,1-1.089,12.6,129.591,129.591,0,0,1-5.416,14.738c-3.141,7.628-6.39,15.516-7.852,24.027l-.01.06-.057.022a.44.44,0,0,1-.158.031.573.573,0,0,1-.479-.364l-.014-.027,0-.03c1.167-15.611-3.3-22.937-11.294-34.543l0,0a38.33,38.33,0,0,1-3.991-10.02c-3.4,4.917-.507,15.067,3.146,27.875.3,1.049.609,2.134.918,3.227.555,1.963,1.167,3.9,1.758,5.776a102.4,102.4,0,0,1,3.373,12.6A60.985,60.985,0,0,1,428.446,308.155Z" transform="translate(120.761 36.189)" fill="#fff"/><path d="M270.293,261.687c1.909,16.592,22.637,29.2,31.469,44.447.253.093.339-.113.362-.269-8.714-18.215,1.292-31.768.954-46.946,10.53,23.2,1.84,40.227,13.886,66.011-30.266-15.942-51.308-34.547-46.671-63.243Z" transform="translate(0.09 55.061)" fill="#fff" fill-rule="evenodd"/><path d="M302.958,258.394l.218.481a63.128,63.128,0,0,1,4.835,15.955,141.344,141.344,0,0,1,1.482,15.04c.661,10.665,1.345,21.693,7.569,35.015l.136.291-.284-.15a174.389,174.389,0,0,1-20.726-12.58,83.137,83.137,0,0,1-15.731-14.286,52.969,52.969,0,0,1-5.509-8,43.55,43.55,0,0,1-3.678-8.693A41.721,41.721,0,0,1,269.617,272a47.62,47.62,0,0,1,.569-10.326l.125-.771.089.776c1.162,10.1,9.483,18.887,17.53,27.387,5.142,5.432,10.459,11.048,13.9,16.982a.191.191,0,0,0,.044.006c.082,0,.118-.1.133-.169-5.65-11.835-3.414-21.737-1.253-31.314,1.2-5.309,2.33-10.324,2.211-15.644Zm13.772,66.291c-6.116-13.228-6.8-24.195-7.453-34.8-.62-10.006-1.207-19.465-6.084-30.442.037,5.152-1.062,10.024-2.224,15.173-2.155,9.549-4.383,19.424,1.252,31.2l.014.03,0,.033c-.036.241-.168.384-.352.384a.449.449,0,0,1-.154-.03l-.037-.013-.02-.034c-3.432-5.926-8.751-11.545-13.9-16.978a129.988,129.988,0,0,1-11.43-13.187,40.285,40.285,0,0,1-4.068-6.947,25.254,25.254,0,0,1-1.991-6.626C265.759,293.389,292.618,311.95,316.73,324.685Z" transform="translate(0.09 55.061)" fill="#fff"/><path d="M457.374,261.687c-1.907,16.592-22.639,29.2-31.467,44.447-.255.093-.342-.113-.364-.269,8.714-18.215-1.294-31.768-.952-46.946-10.534,23.2-1.842,40.227-13.888,66.011,30.266-15.942,51.308-34.547,46.671-63.243Z" transform="translate(115.735 55.061)" fill="#fff" fill-rule="evenodd"/><path d="M424.71,258.394l-.012.528c-.12,5.321,1.012,10.338,2.21,15.648,2.161,9.576,4.395,19.477-1.254,31.311.014.074.05.169.134.169a.2.2,0,0,0,.045-.006c3.444-5.935,8.762-11.552,13.905-16.985,8.046-8.5,16.367-17.288,17.527-27.384l.089-.776.125.771A47.62,47.62,0,0,1,458.049,272a41.721,41.721,0,0,1-1.651,9.468,43.551,43.551,0,0,1-3.678,8.693,52.969,52.969,0,0,1-5.509,8,83.136,83.136,0,0,1-15.731,14.286,174.388,174.388,0,0,1-20.726,12.58l-.284.15.136-.291c6.223-13.32,6.907-24.347,7.568-35.012a141.294,141.294,0,0,1,1.482-15.042,63.114,63.114,0,0,1,4.837-15.956Zm1.078,47.871c-.188,0-.32-.144-.353-.386l0-.032.014-.029c5.635-11.779,3.407-21.652,1.253-31.2-1.162-5.15-2.262-10.024-2.223-15.177-4.879,10.978-5.465,20.438-6.086,30.445-.658,10.607-1.338,21.572-7.453,34.8,24.112-12.734,50.972-31.3,46.446-62.235a25.249,25.249,0,0,1-1.99,6.625,40.273,40.273,0,0,1-4.068,6.946A129.965,129.965,0,0,1,439.9,289.207c-5.145,5.435-10.465,11.054-13.9,16.981l-.02.034-.037.013A.454.454,0,0,1,425.789,306.265Z" transform="translate(115.735 55.061)" fill="#fff"/><path d="M275.181,289.309c2.557,5.986,9.078,12.111,17.653,17.143,10.854,6.37,21.558,8.557,31.677,18.222-9.685-11.465-11.624-21.733-16.124-49.357,8.146,7.849,12.748,17.7,16.83,29.113,3.836,10.723,5.958,22.876,16.435,31.68-7.867-3.208-24.643-3.527-38.45-10.275a51.614,51.614,0,0,1-28.021-36.527Z" transform="translate(4.623 68.506)" fill="#fff" fill-rule="evenodd"/><path d="M308.228,275.015l.234.225a54.58,54.58,0,0,1,9.959,13.245,107.216,107.216,0,0,1,6.9,15.909c.719,2.01,1.392,4.113,2.042,6.146,2.886,9.022,5.87,18.352,14.361,25.488l.526.442-.637-.26c-3.082-1.257-7.522-2.066-12.663-3-7.752-1.413-17.4-3.172-25.794-7.275a51.994,51.994,0,0,1-18.468-15.157,51.04,51.04,0,0,1-9.611-21.447l-.181-.968.387.905c2.485,5.818,8.739,11.888,17.608,17.092a119.456,119.456,0,0,0,11.214,5.6c3.421,1.558,6.959,3.169,10.377,5.139a52.646,52.646,0,0,1,8.934,6.415,48.581,48.581,0,0,1-9.014-17.427c-2.242-7.4-3.808-16.554-6.121-30.752ZM341.1,335.781c-8.17-7.12-11.105-16.3-13.945-25.174-.65-2.032-1.322-4.133-2.04-6.139-3.617-10.114-8.128-20.6-16.569-28.844,4.6,28.218,6.544,37.732,16.048,48.982l1.3,1.543-1.46-1.4c-6.595-6.3-13.312-9.358-20.423-12.6a119.61,119.61,0,0,1-11.234-5.611,59.212,59.212,0,0,1-11.1-8.229,29.527,29.527,0,0,1-6.211-8.127,51.428,51.428,0,0,0,27.785,35.549c8.367,4.089,18,5.845,25.738,7.256A79.175,79.175,0,0,1,341.1,335.781Z" transform="translate(4.623 68.506)" fill="#fff"/><path d="M461.117,289.309c-2.555,5.986-9.079,12.111-17.653,17.143-10.852,6.37-21.558,8.557-31.677,18.222,9.687-11.465,11.624-21.733,16.124-49.357-8.146,7.849-12.748,17.7-16.828,29.113-3.838,10.723-5.96,22.876-16.437,31.68,7.869-3.208,24.641-3.527,38.449-10.275a51.607,51.607,0,0,0,28.022-36.527Z" transform="translate(102.57 68.506)" fill="#fff" fill-rule="evenodd"/><path d="M428.07,275.015l-.052.32c-2.313,14.2-3.88,23.355-6.12,30.752a48.563,48.563,0,0,1-9.014,17.426,52.644,52.644,0,0,1,8.933-6.414c3.418-1.97,6.956-3.581,10.377-5.138a119.384,119.384,0,0,0,11.216-5.6c8.873-5.208,15.126-11.278,17.608-17.092l.387-.907-.182.969a51.039,51.039,0,0,1-9.611,21.447,51.987,51.987,0,0,1-18.471,15.157c-8.394,4.1-18.042,5.861-25.793,7.275-5.14.937-9.579,1.747-12.662,3l-.636.259.526-.442c8.49-7.135,11.474-16.462,14.361-25.483.651-2.035,1.325-4.14,2.044-6.151a107.139,107.139,0,0,1,6.9-15.909,54.575,54.575,0,0,1,9.958-13.245ZM410.4,326.149l1.3-1.544c9.5-11.247,11.447-20.763,16.048-48.982-8.443,8.246-12.953,18.731-16.568,28.844-.719,2.008-1.391,4.11-2.042,6.144-2.84,8.877-5.776,18.051-13.945,25.17A79.18,79.18,0,0,1,407.31,333c7.739-1.411,17.37-3.167,25.737-7.256a51.422,51.422,0,0,0,27.786-35.549,29.51,29.51,0,0,1-6.211,8.126,59.256,59.256,0,0,1-11.1,8.229,119.55,119.55,0,0,1-11.235,5.612c-7.111,3.238-13.827,6.3-20.422,12.6Z" transform="translate(102.57 68.506)" fill="#fff"/><path d="M287.373,311.587c16.04,16.706,43.273,10.928,58.067,14.681-15.829-7.159-20.011-21.169-26.594-33.777,16.07,6.2,24.366,31.162,52.9,35.924-15.038,1.891-33.458,12.932-57.719,6.628-12.1-3.871-20.647-11.3-26.656-23.456Z" transform="translate(14.619 82.586)" fill="#fff" fill-rule="evenodd"/><path d="M318.618,292.287l.267.1a30.37,30.37,0,0,1,8.838,5.57c2.781,2.383,5.456,5.179,8.289,8.14,8.67,9.06,18.5,19.329,35.754,22.209l.728.122-.733.092a99.3,99.3,0,0,0-14.518,3.46c-8.262,2.388-17.626,5.094-28.153,5.094A59.206,59.206,0,0,1,314,335.148l-.006,0a43.091,43.091,0,0,1-15.649-8.644,46.981,46.981,0,0,1-11.071-14.867l-.311-.628.485.505c11.116,11.578,27.338,12.315,41.65,12.965,5.642.256,10.994.5,15.349,1.447a36.505,36.505,0,0,1-7.548-4.836,38.672,38.672,0,0,1-6.233-6.607c-3.566-4.745-6.171-10.165-8.69-15.407-1.035-2.155-2.106-4.383-3.228-6.533ZM371.039,328.4c-16.9-3.047-26.606-13.19-35.183-22.153-5.445-5.69-10.591-11.068-16.781-13.552,1.076,2.073,2.1,4.212,3.1,6.283,5.024,10.456,10.219,21.268,23.311,27.189l1.113.5-1.184-.3c-4.5-1.142-10.244-1.4-16.322-1.679-6.875-.312-14.667-.666-21.961-2.388-8.1-1.911-14.435-5.234-19.351-10.15,5.949,11.706,14.316,18.955,26.28,22.784a58.991,58.991,0,0,0,15.031,1.92c10.5,0,19.845-2.7,28.093-5.085A106.141,106.141,0,0,1,371.039,328.4Z" transform="translate(14.619 82.586)" fill="#fff"/><path d="M456.991,311.587c-16.04,16.706-43.273,10.928-58.067,14.681,15.828-7.159,20.011-21.169,26.594-33.777-16.07,6.2-24.365,31.162-52.9,35.924,15.036,1.891,33.457,12.932,57.719,6.628,12.1-3.871,20.648-11.3,26.656-23.456Z" transform="translate(84.508 82.586)" fill="#fff" fill-rule="evenodd"/><path d="M425.746,292.287l-.133.254c-1.122,2.149-2.193,4.377-3.228,6.531-2.519,5.242-5.124,10.663-8.69,15.408a38.679,38.679,0,0,1-6.234,6.607,36.506,36.506,0,0,1-7.548,4.837c4.355-.947,9.707-1.19,15.349-1.447,14.312-.65,30.533-1.387,41.65-12.965l.485-.505-.31.628a46.962,46.962,0,0,1-11.07,14.867,43.1,43.1,0,0,1-15.65,8.644l-.006,0a59.213,59.213,0,0,1-15.09,1.928c-10.529,0-19.893-2.706-28.155-5.094a99.288,99.288,0,0,0-14.516-3.459l-.733-.092.728-.122c17.258-2.88,27.085-13.149,35.755-22.21,2.833-2.96,5.508-5.756,8.289-8.139a30.368,30.368,0,0,1,8.837-5.57Zm-27.98,34.386,1.113-.5c13.092-5.922,18.287-16.734,23.312-27.191.995-2.07,2.022-4.208,3.1-6.281-6.189,2.484-11.336,7.862-16.78,13.551-8.577,8.963-18.282,19.106-35.184,22.153a106.13,106.13,0,0,1,13.853,3.372c8.248,2.384,17.6,5.086,28.095,5.086a59,59,0,0,0,15.032-1.92c11.966-3.83,20.333-11.079,26.28-22.784-4.916,4.916-11.254,8.24-19.351,10.151-7.294,1.721-15.086,2.075-21.961,2.388-6.078.276-11.819.537-16.322,1.679Z" transform="translate(84.508 82.586)" fill="#fff"/><path d="M473.045,335c-16.011,6.088-33.071.875-45.61-8.83-5.718-3.749-16.568-11.336-24.4-9.159,12.162,5.771,22.366,13.254,32.747,23.433a59.4,59.4,0,0,1-6.51,5.907c-9.947-10.967-21.043-20.643-33.4-26.78-10.264,4.16-26.654,18.173-33.509,26.849l-6.859-6.071c10.313-10.543,20.7-17.205,33.124-23.1-11.909-2.8-18.561,4.888-27.251,10.757-10.776,7.629-27.786,12.89-40.88,7.644-6.977-2.75-14.417-6.928-19.2-13.675,10.235,7.2,29.591,5.8,41.222,1.154,15.662-6.95,31.54-15.791,53.29-8.746,16.557-5.612,32.59-1.638,47.553,6.5,15.791,6.9,30.19,9.867,46.558,1.234-5.119,6.51-9.645,10.286-16.872,12.883Z" transform="translate(26.033 98.387)" fill="#fff" fill-rule="evenodd"/><path d="M362.376,346.577l-7.03-6.222.079-.081c9.392-9.6,19.237-16.487,32.873-22.986a21.233,21.233,0,0,0-4.571-.521c-6.978,0-12.114,3.84-17.552,7.905-1.526,1.141-3.1,2.321-4.741,3.426a55.521,55.521,0,0,1-13.612,6.951,48.22,48.22,0,0,1-15.63,2.825,31.44,31.44,0,0,1-11.739-2.122,54.345,54.345,0,0,1-10.443-5.349,33.592,33.592,0,0,1-8.806-8.363l-.363-.511.513.361c5.878,4.132,14.01,5,19.8,5a60.578,60.578,0,0,0,21.322-3.858c1.376-.611,2.783-1.249,4.144-1.867,10.262-4.657,20.873-9.473,33.349-9.473a50.8,50.8,0,0,1,15.837,2.58,49.279,49.279,0,0,1,15.817-2.615,56.469,56.469,0,0,1,16.2,2.5,82.729,82.729,0,0,1,15.58,6.635c10.348,4.519,18.371,6.535,26.017,6.535a42.982,42.982,0,0,0,20.444-5.3l.449-.237-.314.4a45.16,45.16,0,0,1-7.664,7.927,32.48,32.48,0,0,1-9.256,4.991,40.288,40.288,0,0,1-14.371,2.618c-10.658,0-21.787-4.071-31.338-11.462l-.983-.647c-5.031-3.32-13.452-8.878-20.373-8.878a11.217,11.217,0,0,0-2.667.307,108.419,108.419,0,0,1,16.791,9.946,135.291,135.291,0,0,1,15.718,13.38l.073.072-.068.077a59.386,59.386,0,0,1-6.522,5.919l-.079.065-.069-.076c-11.3-12.455-22.2-21.2-33.327-26.734-10.008,4.079-26.453,17.98-33.42,26.8Zm-6.716-6.233,6.689,5.92a110.251,110.251,0,0,1,15.422-15.045c6.9-5.653,13.317-9.825,18.061-11.748l.045-.018.044.022a94.253,94.253,0,0,1,17.626,11.592A149.733,149.733,0,0,1,429.284,346.2a59.53,59.53,0,0,0,6.35-5.754c-10.753-10.532-20.824-17.732-32.644-23.34l-.262-.124.279-.078a11.252,11.252,0,0,1,3.01-.389c3.08,0,6.658,1.042,10.94,3.184a94.381,94.381,0,0,1,9.551,5.729l.986.649.007,0c9.514,7.364,20.6,11.42,31.209,11.42a40.075,40.075,0,0,0,14.3-2.605c6.7-2.407,11.213-5.8,16.512-12.452a43.019,43.019,0,0,1-20.1,5.09c-7.677,0-15.729-2.021-26.107-6.554l-.008,0c-11.268-6.128-21.633-9.106-31.686-9.106a49.067,49.067,0,0,0-15.781,2.615l-.034.012-.034-.011a50.594,50.594,0,0,0-15.8-2.58c-12.429,0-23.018,4.806-33.259,9.454-1.361.618-2.769,1.257-4.149,1.869a53.833,53.833,0,0,1-10.041,2.821,62.882,62.882,0,0,1-11.365,1.054,47.061,47.061,0,0,1-10.865-1.177,26.863,26.863,0,0,1-8.545-3.514c4.042,5.449,10.2,9.75,18.791,13.138a31.226,31.226,0,0,0,11.659,2.107c9.477,0,20.635-3.731,29.119-9.738,1.635-1.1,3.21-2.282,4.734-3.421,5.467-4.087,10.631-7.948,17.681-7.948a21.617,21.617,0,0,1,4.923.6l.3.07-.279.132C374.953,323.858,365.073,330.739,355.659,340.343Z" transform="translate(26.033 98.387)" fill="#fff"/><path d="M399.251,190.262a106.631,106.631,0,0,1,21.339,2.152,105.335,105.335,0,0,1,37.87,15.939,106.238,106.238,0,0,1,38.371,46.6A105.369,105.369,0,0,1,503,274.828a106.874,106.874,0,0,1,0,42.679,105.34,105.34,0,0,1-15.939,37.871,106.237,106.237,0,0,1-46.6,38.372,105.368,105.368,0,0,1-19.88,6.173,106.874,106.874,0,0,1-42.679,0,105.339,105.339,0,0,1-37.871-15.939,106.236,106.236,0,0,1-38.372-46.6,105.375,105.375,0,0,1-6.173-19.881,106.874,106.874,0,0,1,0-42.679,105.335,105.335,0,0,1,15.939-37.87,106.239,106.239,0,0,1,46.6-38.371,105.377,105.377,0,0,1,19.881-6.173A106.642,106.642,0,0,1,399.251,190.262Zm0,208.813A102.907,102.907,0,1,0,296.343,296.167,103.023,103.023,0,0,0,399.251,399.075Zm0-188.332a86,86,0,0,1,17.211,1.736,84.962,84.962,0,0,1,30.546,12.856,85.691,85.691,0,0,1,30.95,37.584,85,85,0,0,1,4.979,16.036,86.2,86.2,0,0,1,0,34.425,84.972,84.972,0,0,1-12.856,30.548A85.691,85.691,0,0,1,432.5,374.879a84.992,84.992,0,0,1-16.035,4.979,86.2,86.2,0,0,1-34.424,0A84.97,84.97,0,0,1,351.49,367a85.692,85.692,0,0,1-30.951-37.585,85,85,0,0,1-4.979-16.036,86.2,86.2,0,0,1,0-34.425,84.965,84.965,0,0,1,12.857-30.547A85.691,85.691,0,0,1,366,217.458a85,85,0,0,1,16.037-4.979A86.021,86.021,0,0,1,399.251,210.743Zm0,167.851a82.426,82.426,0,1,0-82.427-82.427A82.518,82.518,0,0,0,399.251,378.594Zm0-146.76a64.035,64.035,0,0,1,35.967,10.99,64.534,64.534,0,0,1,23.309,28.3,64.242,64.242,0,0,1-5.933,61.009,64.535,64.535,0,0,1-28.3,23.31,64.241,64.241,0,0,1-61.009-5.933,64.534,64.534,0,0,1-23.309-28.306A64.239,64.239,0,0,1,345.9,260.2a64.532,64.532,0,0,1,28.305-23.308A63.925,63.925,0,0,1,399.251,231.834Zm0,125.67a61.335,61.335,0,1,0-61.337-61.337A61.4,61.4,0,0,0,399.251,357.5Zm0-103.247a41.789,41.789,0,1,1-16.314,3.295A41.637,41.637,0,0,1,399.251,254.256Zm0,80.823a38.911,38.911,0,1,0-38.914-38.912A38.955,38.955,0,0,0,399.251,335.079Z" transform="translate(20.744)" fill="#fff"/><path d="M361.052,236.852a20.487,20.487,0,0,1,8.233,1.713,21.028,21.028,0,0,1,6.712,4.66,21.679,21.679,0,0,1,4.516,6.9,22.309,22.309,0,0,1,0,16.862A21.669,21.669,0,0,1,376,273.877a21.026,21.026,0,0,1-6.712,4.658,20.654,20.654,0,0,1-16.467,0,21.03,21.03,0,0,1-6.713-4.658,21.669,21.669,0,0,1-4.517-6.894,22.306,22.306,0,0,1,0-16.862,21.679,21.679,0,0,1,4.516-6.9,21.032,21.032,0,0,1,6.713-4.66A20.493,20.493,0,0,1,361.052,236.852Zm0,40.4c9.988,0,18.115-8.387,18.115-18.7s-8.126-18.7-18.115-18.7-18.118,8.389-18.118,18.7S351.062,277.248,361.052,277.248Z" transform="translate(58.943 38.198)" fill="#fff"/><path d="M457.746,370.5,310.772,223.526l2.121-2.121L459.867,368.376Z" transform="translate(34.674 0.216)" fill="#fff"/><path d="M207.849,1.5H0v-3H207.849Z" transform="translate(316.069 296.167)" fill="#fff"/><path d="M1.061,148.032l-2.121-2.121L145.912-1.061l2.121,2.121Z" transform="translate(346.508 222.682)" fill="#fff"/><path d="M307.066,298.725h-1.261l-.289-.535-.775-.1-1.119.049-.872.1-.584.633-.338.581-.339.484v.777l-.34.582-.388.63-.388.533v.972l-.195.824.049,1.019v.921l.049.775.388.582.047.826.291.824.388.582.291.872.535.679.679.826.144.872,1.312.291.921.244.874.872.388.584.679.679.535.437.872.242h.872l-.144-.679.486-.195,1.017.582.632.777.824.533.535.63.533.484,1.019.631.533.146,1.114.437.631.484.533.584.049.677.533.824.435.681.826,1.5.679.388,3.008.195,1.456,2.668,3.25,2.184,4.655,4.754,2.428.193.726.293,6.646.195.97.581.535.388.726.193.874.049h.728l1.358-.242.824-.388.679-.533.681-.63,1.066-.1,1.942-.1.579-.63,1.652-.049,2.279.049,1.261-1.261L358,330.788l-1.845-2.91-1.747-2.426-1.065-1.552-.972-1.747-1.259-1.454-1.359-1.358-1.165-.873.051-1.409.919-.726.39-1.116.146-.921v-1.263l-.195-1.017-.437-.484-.581-1.6-.342-.777-.63-.582-.533-.291.244-4.073-.488-.293.389-3.4-.681-.388-.144-1.359-.533-.388.1-3.008-.728-.775v-1.261l-3.734-4.462-.195-3.2-.533-.389.1-.919.63-.681.775-.533,1.165-.389,1.6-1.454.146-1.991h2.57l.972-.724.242-1.263-.486-1.6-.437-.972-.24-.824-.535-.435.1-1.068.775-.582.777-.1.533-.533,2.57.049.533.63.777.63.244,1.165.193,1.895-.484.339.047,3.394.584.972-.535.582-.826,1.019h-1.793l-.486-.679-.728-.146-.291-.535-1.5.195.051,1.7.386.677.1,1.942-.921.242-.728.681-.921.34.242,1.017.923.872.63.875.775.389.632-.1.069-.555.557-.242.024-.75.073-2.007.531-.337.291-.531.435.073.12-.581,1.742.071.047.437,1.791-.051.555.171h.944l.8-.047.823.144.195.409,1.956.073.413.508,1.571.1,1.57,1.858,2.036.24,2.865,4.027,1.114.146.291-1.7.726-.049.007.772.435.362.12,3.652.606.049,3.07-2.541.047-2.491.533.026.073-.606h1.258l1.208,1.137,1.716.175,1.456.1,1.4.047,1.649-.195.972.1,2.086-.63.97-.146.144-.582,2.67.1,1.358-1.31.146-1.31.049-1.068.874-1.454.34-1.019.63-.679.047-.923.437-.484.051-.582-.633-.289v-1.409l-1.066-.389-.146-.484H387.3L386.04,280l.049,2.426-1.163,1.165-.874.193-.437,1.068-.535.581-.1.73-1.745-.051-.049-.581-.508.013.045-.581,1.694-.1.24-.46.435-.1.073-.726.073-.7.033-.943.535-.484.193-.826.681-.531.4-.36.073-1.063-.7-.146v-.581l.049-.992-1.955-.3-.291-1.163-.484-.342.195-1.066.531-.193.195-2.137.486-.968.437-.728.581-.777.777-.775.923-.726.677-.779.439-.435.872-.293.923-.289.339-.582.874-.195.873-.389.824-.677.535-.486.872-.679.2-.55-.047-.628v-.653l-.026-.508-.555-.289.024-2.393.531-.051.268-.484,1.474.025.024,1.017-.459.047-.266-.242-.557.1-.411.433.051.581v.653l.337.482.622.471.533.777.581.531.972.535.872.289.681.584,1.31-.049.97.195.968.533.874.874.826.872.773.631.295.632.919.047.244,1.019v1.842l.679.244-.1,1.263-.533.339-.488.34-.388.531-.337.437-.1.777.1.777.533.339.435.535.632.533.726.289.195.584.533.679-.193.968v.679l.146.681.1.874.582.679.679.728v.921l-.244.824-.63.632-.293.728.1.777-.533.484-.874-.1h-.972l-.97.146-.97.242-.824.389-.67.222-.409.581-.315.651-.169.874-.315.482-.339.555-.016,1.194-.435.437-.824.873-.437.775-.582.679-.486.339-.435.582-.291.728-.34.63-.631.681-.533.872-.047.779-.777.435-.242.826-.047.775v.824l-.486.34-.1.824.146.679.049.679.1.824.631.437.393.435v.531l-.217.411h-.531l-.409-.024-.655.071-.508.242-.435.268-.386.191-.051.364-.266.266-.073.411.218.146.047.388.413.12.337.169.027.508a2.167,2.167,0,0,1-.437.073c-.169,0-.75.024-.75.024l-.049.557-.12.484.047.362-.095.459-.559.146-.144.411-.482.025-.874-.049-.313.362-.144.411-.051.533-.386.437-.246.728-.533.533-.581.681v.921l-.389.679-.726.486-.826.193-.437.582-.582.388-.679.388-.533.681v.726l-.63.584-.34.726.195.775-.582.34-.535.486-.777.582-.1.921v.824l.293.63.824.923.533.388.049.972.437.533.581.823.582.73.291.63.631.631.679.146.632.679,1.065.242,1.312.582,1.066.631.874.193.535.63.63.535.872.386.533.826.535.242.824.484.824.681.921.582.775.632.633.679.823.437.584.531.484.535.681.437.968.293,5.58.338.193.728.195.921-.437.291-.535.582-.533.824-.242.97.293.533.24.535-.095.63.581.872.533.1.533.728.681.826,1.017.191.775.535.923.34.728.775.824.533.439.874.679.824.824.679.289.437.437.484.584.775.581.389.535.632.679.533.823.437.631.437.824.242.631.437.582.388.63.486.535.775,1.068.535.581.388.873.437.677-.146.73.047.923-.435.388-.388.581-.679,1.261-.728.824-.488,1.066-.581.826-.923.872-.581.972-.874.923-.874,1.017-.824.921-1.019.681-.874.677-1.066.826-1.165.679-1.066.293-1.021.581-1.066.631-1.019.244-1.017.095-1.214.533-.824.389-.874.388-1.066.1-.873.244-.872.24-.535v-1.456l-.435-.726-.484-.486v-.872l.484-.293.289-.968.39-.34.244-.777.533-.338.242-.679.437-.535.388-.63.339-.728-.049-.63-.433-.582-.437-.584-.584-.388-.435-.289-.779-.437-.289-.584-.632-.337-.582-.051-.388-.435-.437-.486-.533-.242-.34-.437.051-.631.047-.872.388-.484.388-.73.047-.581.586-.439.628-.289.631.144.486.486.386.486.777.484.242.484.633.631.579.1.049.775.631.339a3.582,3.582,0,0,1,.679.923l.535.486.435.242.388.874.535.484.289.826.291.63.049.728.389.677.533.584.581.484.535.242.97-.144.677-.244.586-.047.919-.1.874-.047.826-.1.1-.533.824-.1v-.63l-.146-1.066.242-.923V330.01l-.582-.726-.1-.921-.582-.439-.1-1.017.049-1.116v-.824l-.533-.486v-.923l-.435-.531-.631-.437-.486-.535-.63-.24-.533-.439h-.73l-1.017.049.011.582-.122.459.026.46-.218.266-.555-.073-.338-.218v-.313l-.146-.266-.364-.195-.289-.388-.169-.313-.533-.218-.264-.433-.34-.411-.459-.293-.389-.435-.337-.289-.508-.195-.266-.553-.362-.293-.024-.941-.291-.581-.364.049-.167-.46.071-.75-.315-.486-.217-.651-.653-.1h-.581l-.531-.362-.024-.6-.217-.653-.366-.362-.217-.6-.095-.388-.46-.193-.531.1-.559-.169-.193.339.049.482-.435.291.024.435-.409.411-.2.508-.142.557-.027.626v.51l-.217.533-.555.459-.413.6-.972.542h-.97l-1.5.195-1.167-.439-1.407.2-.97-.242-1.5-.146-.726-.488h-.921l-1.117-.679h-1.165l-.874-.773-.824.046-1.017-.193-.73.147-.193-.972-1.019-.533-.049-.631.972-.242.777.146.921-.1h1.066l1.212.242.972.193.97.242.531.875.923.047.972.242.968.1,1.019.147.874.195.728.339.824.195h1.259l.972-.1.582-.435.047-.777.631-.874v-.923l.533-.919.631-.826.291-.826-.193-.579.288-1.068.146-.777.342-.388-.049-.775.242-.584.147-1.31.193-.581-.144-1.117-.146-1.065-.486-.779-.437-.872a2.807,2.807,0,0,1-.875-.049V299.4l.195-.531.584-.2.095-.364.388-.389.12-.506.313-.411.242-.362.244-.411.337-.362.486-.411.12-.388h.531l.169.435.388.291.144.386.34.146.386-.1.386-.024h.34l.193-.339.146-.388.1-.388-.025-.362.049-.388.992.049.553-.035.439.34h.63l.486-.244.677.1h.728l.679-.146.828.146.872-.1.872-.047.584-.533a.852.852,0,0,1,.63-.728l.775.144.242.535.582.24.631.051.679.047.533.1.533.1.479.035h.384l.411.073.437.024.291-.193.022.362.315.193.266.026.364.144.531-.144.242-.315-.146-.315a.976.976,0,0,1,.122-.411,1.037,1.037,0,0,0,.144-.362l.218-.386.339-.315a.992.992,0,0,0,.388.169c.146,0,.266-.146.409-.146s.413.242.413.242l.555-.122.169-.289.364-.122.289-.193v-.531l.266-.531-.218-.291.1-.531-.268-.386-.433-.486-.581-.63.144-.486-.581-.388-.388-.388.338-.97.1-.728.244-.535c.433-.242.433-.921.433-.921l-.289-.824.144-.533.389-.681-.34-.63.242-11.3-.339-.533-.049-.777-.146-1.019.049-.872v-.97l-.535-.486.051-3.734.484-.486.049-1.212-.631-.582-.1-.681-1.212.049v.73c-.533.1-.533.874-.533.874l-.339.533-.291.63-.195,1.017-.049.582-1.019.049v1.359l-.242.726-.582.437.051.728-.293.582-.291.726-.047,1.893.1,1.794.484.535-.1,3.057s.051,1.163.051,1.4a12.434,12.434,0,0,0,.289,1.358l-.533,1.505-.244,4.122-.581.388-.437.874.1,1.068-.047.824-.486.1.118,1.629-.39.409-.36-.169-.122-.362.024-.388-.167-.384-.073-.848-.317-.435-.433-.63a2.655,2.655,0,0,0-.462-.46c-.169-.1-.6-.433-.6-.433l-.53-.388-.437-.724a2.608,2.608,0,0,1-.482-.339c-.1-.122-.437-.484-.437-.484v-.7l-.229-1.019-.581-.677-.289-.728-.44-.535.451-.258.268.025.409.047.531-.024.531-.218.388.218.872.047.482-.339.073-.531.315-.459.315-.51-.1-.7.122-.557v-.435l.1-.484.167-.362-.049-.386.218-.268-.024-1.161-.7-.217-.581.047-.315-.047-.073-.46-.337-.217.04-.513-.355-.067v-.508l-.024-.606.144-.53.364-.073.167-.484.171-.362.411.047.144-.435h.533l.36-.244.559.268.386-.362.146-.34.388-.073.149-.648.339-.531.486-.921.535-.972.293-.883.193-.264.206-.12.237-.12.025-.324-.025-.289.076-.584-.022-.968.408-.146.171-.6.338-.242.184-.451.049-1.066-.146-.875.047-.679-.339-.388-.1-.824.1-1.552-.049-.921.486-.244.242-.777-.146-1.114-.049-.73.049-.63-.484-.388-.146-.824-.049-1.019-.473-.286-.386-.435-.437-.073-.409-.242-.268-.289-.409.024-.218-.653.049-.482.457-.169.364-.313-.12-.317.1-.484v-.677l-.242-.6-.386.046-.559-.266-.313-.339.1-.506.047-.582v-1.449l-.531-.22-.167-.484-.67.042-.349.071-.755-.047-.626.156-.313.155-.335.3-.673-.035-.373-.073-.206-.468-.047-.7.047-.659-.541-.135-.02-.566-.22-.557-.433-.073-.508-.7-.435-.242-1.279-1.254-.97-.97-.775-1.747-.584-1.019-.435-.728-.582-.968-.824-.826-.681-.726-.339-1.409-.291-.775-.036-1.112-.264-.411-.171-.63-.218-.581-.433-.364-.073-.53-.317-.277-.36-.084-.122-.229-.253-.035-.251.046-.4-.058h-.337l-.166-.242-.289-.346-.519-.038-.371-.1-.131-.3-.18-.18-.368-.409-.508-.411-.218-.338-.266-.291-.677-.459-.315-.411-.435-.484-.533-.411-.289-.193-.169-.386h-.9l-.508.024.047.313.291.364-.266.362.315.362.024.411.411.388.362.581.146.557-.193.8.193.462.073.581.047.435.533.435.242.411.409.337.437.7.146.411.142.63.366.339.313.581.025.677.36.291a1.5,1.5,0,0,1,.147.411,2.678,2.678,0,0,0,.215.555l.147.531a1.909,1.909,0,0,0,.313.437,1.111,1.111,0,0,1,.244.409l.338.364.46.315v.531l.531,1.374.195.823.632.681.146.824.388.775.63.486.242.679.533.63.049.73.681.244.581.63.582.728.632.773.679.777s.533.824.677,1.066.73,1.021.73,1.021a2.155,2.155,0,0,1,.775.388,6.892,6.892,0,0,1,.582.726l.679.972.242.823-.029.764-.051.555.025.46-.289.653-.266.386a2.633,2.633,0,0,0-.218.557c0,.12-.339.388-.339.388a5.8,5.8,0,0,0-.167.894c.024.12.071.242.1.388s.12.215.289.313a4.382,4.382,0,0,1,.388.268l.506.362.639.32.679.338.63.486.923.435.726.439.775.923.923.921.679.923.34,1.259.582,1.5.146,1.021.193,1.017.288.207v.34l-.024.482-.1.437-.095.459-.171.653-.36.459-.026.557-.409.315-.342.386-.337.411-.555.315-.339.36-.39.195-1.256-.024-.047-.7-.268-.266.242-.362.315-.51.118-.386.317-.291.169-.242.218-.531.242-.339.217-.411v-.6l.146-.411.288-.339.049-.339-.24-.484-.266-.242s-.317-.169-.291-.339.1-.242-.025-.339a2.3,2.3,0,0,1-.191-.169l-.266-.266a3.1,3.1,0,0,1-.315-.46s-.024-.191-.364-.313a1.356,1.356,0,0,1-.46-.242l-.191-.313-.435-.364-.439-.242-.311-.313-.315-.244a2.426,2.426,0,0,0-.484-.024c-.146.024-.508.071-.508.071l-.411.025-.435.386-.388.388-.144.317-.413.167h-1.376l-.34-.218a2.412,2.412,0,0,1-.1-.435v-.579l.242-.218.218-.242.071-.242-.169-.217-.169-.244v-.288l-.315-.171-.193-.266-.759-.737-.435-.63-.1-.728-.63-.582-.339-.632-.632-.677s-.34-.633-.677-.584a6.559,6.559,0,0,1-.777.049l-.826-.582-.559.146-.557.169a7.316,7.316,0,0,0-.968-.266c-.169,0-.8.024-.941.024a3.751,3.751,0,0,1-.6.049c-.484,0-.97-.024-.97-.024s0-.218-.386-.195a3.525,3.525,0,0,0-.943.049,2.284,2.284,0,0,1-.557.169c-.144.024-.506-.242-.506-.242h-.533a2.6,2.6,0,0,0-.36-.049.525.525,0,0,1-.413-.12,3.121,3.121,0,0,0-.291-.291.5.5,0,0,0-.411-.144c-.217.047-.772.242-.772.242l-.317.581-.53.482-.364.411-.313.581-.244.433-.073.8-.144.724.047.484-.12.388-.459-.073-.46-.049-.1-.362-.338-.413-.146-.36-.167-.362.1-.51-.049-.724v-.557l-.315-.317-.508-.384.026-.364v-.531l-.339-.242-.268-.557v-.531l-.384-.242-.22-.386v-.533l-.047-.339-.217-.362-.12-.339-.557.12-.364.242s-.482.073-.508.193-.12.413-.12.413l-.218.169-.386.482-.364.364-.386.362-.582.146-.506.411-.049.628-.242.122-.047.482.217.242.193.218.411.144h.364l.242.049a1.45,1.45,0,0,1,.169.581l-.146.508-.266.073h-.389l-.118.266-.291.315-.557.557-.5.167-.559.171-.218.457-.459.268-.506.144-.462.462-.313.409-.511.24-.382.389-.34.315-.435.144-.413.533-.193.36-.482.317-.1.484-.313.386-.386.388-.486.073h-.677l-.628-.026-.437-.313-.191-.364-.388-.364-.386-.386-.291-.268-.6-.288-.291-.34h-.437l-.264.266-.34.1-.506-.022-.195.386-.409.025-.218.36h-.437l-.218-.36.027-.486.1-.409.24-.049.291.025.24-.317.22.244.384-.122.147-.268s0-.24.12-.266a4.229,4.229,0,0,1,.46-.022l.386-.266.242-.124.218-.288.388-.025.337-.313.459-.242.315-.317s.122-.315.171-.433a1.657,1.657,0,0,1,.337-.364l.362-.386.22-.291.146-.7.24-.218.339-.313.073-.557.169-.581-.242-.362.1-.679v-.7l-.364-.459-.364-.388-.144-.484-.364-.12-.506.24-.559.147v.289l-.459.411-.169.362-.409.193-.34.388-.146.266-.386.339-.437.388-.384.146-.508.386-.315.337-.486.2-.388.215-.892.073-.266-.36-.46-.339-.435-.435-.437-.34-.435.075-.386-.388-.559-.291-.482.169-.459-.193-.677-.024-.195.339s-.24.024-.482.024-1.063.024-1.063.024l-.775.122-.291.289-.6.073-2.773.1h-.47l-.579.339-.266.337h-.992l-.338-.48-.1-.46-.313-.266v-.435l-.244-.364-.386.025-.435.193-.193.388-.266.386-.508.437-.388.724.169.388-.388.508.025.555.047.8-.144.531-.435.339-.775.555-.339.581-2.244-.031-.775-.584-.728.34h-.921l-.826.047-.193-.581-.65-.4-.508-.073-.943.217-.388.315-.313.46-.555-.2-.364-.555-.049-.409.12-.51-.024-.63-.242-.579-.36-.339s-.244-.12-.293-.242-.821-.339-.821-.339l-.289-.266-.531-.315-2.766-.8-.824-.045-1.116-.195-.63-.389-1.505-.291-.484-.484h-1.358l-1.021.146-2.715,2.766-.726.533-.874.339-.824.242-1.359,1.163-.484.777-.73.826-.872,1.4-.874.242-.824-.046-.826.191-.775.681-.679.777.049.775-.049.921-.632.486-.726-.1h-.777l-.632.342-.823.047-1.31,1.456-.535.582-.34.968-.531.826-.681.923s-.63.63-.63.872a7.2,7.2,0,0,1-.533,1.308,2.88,2.88,0,0,0-.1.826c.047.242.1,1.116.1,1.116l-.049,1.844.146,1.116.584.921.1,1.116.581.632-.1,1.117-.146,1.259-.681.872-.823.73-.584.581-.581.388-.775.681-.73.921.1.972a2.211,2.211,0,0,1-.195.97c-.195.24-.1.872-.1.872l-.264.359-.073.53.025.533.022.533.268.217.291.435-.049.46s-.1.653-.1.772.075.75.075.75l-.339.338-.6.291-.364.362-.411.026-.581-.242-.386-.46-.388-.411a2.538,2.538,0,0,0-.6-.191,1,1,0,0,1-.388-.122l-.653-.484-.482-.364-.218-.435h-.846l-.63-.433-.7-.484-1.063-.557-.437-.533-1.088-.337-.508.191-.87.195-.63.606-.581.628-.652.339-.459.726-.775.484-.7.459s-.846.555-.87.7a5.971,5.971,0,0,1-.63.868l-.435.559-.557.555-.138.6-.215.311s-.266.18-.229.264.133.446.133.446l-.409.2-.1.362s.049.191.073.275a.9.9,0,0,0,.155.229l.173.89.024,1.041v1.474l-.122,1.232-.289.486-.484.6-.339.411-.024.508-.968.122-1.474-.025-.315-.484a2.049,2.049,0,0,0-.677-.169c-.218.025-.968.025-.968.025l-1.378-.1-.846.047-.291-.582h-.7l.1-.433-.171-.63-.433-.313-.146-.435h-1.017l-.99-.073-.846.073-.435.386-.364.533.024.435-.44.237-.238.178Zm65.343-18.117h-.6l-.531-.049v-.531l.433-.12.22-.533.459-.12.46-.049-.146-.459.218-.679.045-.555.293-.628.264-.315.655-.266.144-.437.966-.024.582-.218.628-.047.8.217h.6l.46.34.315.459.217.531.268.388.195.411.045.362.339.315a3.838,3.838,0,0,0,.51.1c.12,0,.6.073.6.073l.459.1.146.484.1.508-.459.1-.411-.339-.242-.167-.324.084-.18-.24-.36-.013h-.48l-.684.013-.59.06-.409-.146-.47.158-.022.386-.639-.109-.388-.268-.582-.073-.24.146-.338.411-.484.024-.653.049h-.63l-.482.242-.073.435Zm46.163,12.479.631.024.288.362.364.315.026.386.36.315.606.146.122.362.022.411.411.289.559.267.24.508.459.508a2.153,2.153,0,0,1,.124.6,4.312,4.312,0,0,1-.242.919l-.268.362-.409-.169-.268-.362s-.169-.459-.34-.459a2.173,2.173,0,0,1-.553-.171l.024-.555-.291-.364-.459.026-.1-.362-.146-.291-.388.049-.386.12a2.073,2.073,0,0,0-.193.411c-.027.122-.411.122-.411.122l-.026-.46.193-.411.12-.435-.313-.339.122-.677.024-.581-.169-.557.264-.313Zm-6.528,11.267.7.124.484-.366.339-.313.51-.1.8-.484.459-.339.677-.339.388-.364v-.724l-.894-.047-.775.386-.581.338-.846.313-.12.606-.653.242-.433.289-.051.773Zm17.511-1.119.049.63.48.055.291-.217h.579l.413.195.482-.025.388-.073.266-.268.047-.384.171-.22.339-.315.288-.266.169-.288.34-.366.024-.339.218-.384-.12-.437-.632.049s-.144.169-.118.289a1.9,1.9,0,0,1-.1.508l-.337.047-.364.1s-.266.1-.266.24v.486l-.169.315-.411.266v.287H431l-.508-.215-.264-.22-.293.268-.384.282Z" transform="translate(25.118 19.728)" fill="#fff" fill-rule="evenodd"/><path d="M380.026,228.726l-.388-.387-.554-.1-.219-.265-.265-.848-.412-.048-.023-.629.046-1.017-.361-.338-.389-.507-.457-.217-.05-2.273.435-.1.242-.435-.048-.411-.46-.266-.483-.434-.411-.315-.412-.8-.313-.723-.581-1.065-.411-.532-.364-.991-.409-.557.046-.773v-1.113l.123-.483.483-.073v-.846l.121-.7.361-.362.2-.46v-.775l.025-.627.411-.435.217-.606.556-.435.483-.29h.581l.436-.1.338-.555.46.1.871.023.7-.073h.846l.679.05.6.073.386.362.7.048.531.074.411.1.194.411.46.072.483.025h.531l.362.144.075.436.482.145.194.313.1.339.29.025.338.243.508.338.41.072.389.1.411.436.627.385.338.292.485.483.387.46.624.692.729.34.29.726.681.825.194,1.164.339.971.583.823.533.632,1.941,2.376.4.519.025.919.1.823.046.65.354,2.037.825.341.533.678.731.678.873,1.118.679.242.581.292.629.532.826.582.388.63.437.729.244.631.292.776.533.728.777.582.579.63.826.68.484.776.585.63.435.534.388.776.2.874.533.678.825.921.823.584.389.969.825,1.165.446.329.219.557.146.58.121.7.386.7.073.823.048.677-.146.652-.24,1.065-.339.434-.34.484-.506.46-.967.315-.821.024-.171.555-1.161.05-.508.023h-.725l-.581.073-.169.29-.6-.121h-.629l-.386-.315-.316-.339-.386-.24-.048-.654-.169-.436-.292-.385-.267-.436-.169-.459-.862-.848-1.308-1.31-1.02-.873-.97-.776-.679-.242-2.037-.534-.487-.727-.777-.826-1.939-.387-.535-.777-.823-.728-.679-.632-.244-.822-.485-.777-.389-.34-2.424-.338-.872-.486-.583-.582-.435-.584-.535-.776-.048-.824.048-2.038-.533-.291V230.7l-.244-.921-.533-.34-.048-.874-.533-.193-.339-.437-.583-.388-.97-.339-.631.29-.814.113-.629.144-.555.338v.436l-.412.194Z" transform="translate(85.43 12.363)" fill="#fff" fill-rule="evenodd"/><path d="M379.561,206.013l.167.507-.023.653.435.435.339.411.435.243.386.289.007.691.558.216.475.011.412.194.361.387.389.365.506.119.508.146.507-.121.316-.411.288-.436-.071-.555.242-.555-.267-.315-.361-.362.119-.484.242-.484-.073-.289-.411-.364h-.29l-.338-.435-.243-.265-.121-.531-.507.1h-1.162l-.531-.05-.556-.1-.411.025-.606.1-.6-.049-.119.92Z" transform="translate(90.202 10.87)" fill="#fff" fill-rule="evenodd"/><path d="M355.329,201.805l.775.582.924.921,1.066.63,1.452.584h1.359l1.068-.049h1.5l.874-.582h1.358l1.844.1,1.505-.2,1.019.2,1.163-.146,1.165-.34.872-.777,1.263-.775.146-1.165-.679-.824-.921-.874-.681-.389s-.777-.484-1.021-.581-1.017-.533-1.017-.533l-.874-.049-1.5.195-1.263.242-2.377-.049-.582.63-.775.584-1.6.339-1.358.533-1.6.293-1.017.146H356.4l-1.068,1.358Z" transform="translate(70.335 4.734)" fill="#fff" fill-rule="evenodd"/></g></g></svg>