<svg width="191" height="232" viewBox="0 0 191 232" fill="none" xmlns="http://www.w3.org/2000/svg">
<path d="M73.7148 135.06C73.6113 136.853 73.4044 138.796 73.0825 140.808C70.6453 156.615 61.9195 179.321 52.2396 193.174C50.2997 196.036 48.0606 198.684 45.5602 201.072C37.9381 208.073 25.8209 209.395 17.3596 204.521C14.8053 203.05 12.6288 201.004 11.0024 198.545C9.37614 196.087 8.34476 193.284 7.99005 190.357C7.62252 187.82 7.59159 185.246 7.89808 182.701C9.51907 168.342 19.3025 143.74 31.1093 125.989C32.4543 123.943 33.8339 121.988 35.2365 120.16C41.9044 111.423 48.9631 105.33 55.4126 104.663C56.7462 104.512 58.0964 104.617 59.3903 104.974C70.0704 108.009 74.669 116.413 73.7148 135.06Z" fill="#FDD71C"/>
<path d="M54.1482 143.625C50.9047 154.769 49.6058 166.39 50.3084 177.976C50.6717 183.089 51.3165 188.178 52.2398 193.22C50.2999 196.082 48.0608 198.73 45.5604 201.118C37.9383 208.119 25.8211 209.441 17.3598 204.567C14.7997 203.091 12.6196 201.038 10.993 198.571C9.36632 196.104 8.33812 193.292 7.99023 190.357C15.5089 198.405 23.3724 200.141 29.6034 198.106C38.5821 195.209 44.2268 184.54 40.7549 173.607C34.6733 154.408 48.4 143.429 54.9529 140.268C54.7345 141.348 54.4356 142.486 54.1482 143.625Z" fill="#ECB918"/>
<path d="M73.7152 135.06C73.6117 136.853 73.4048 138.796 73.0829 140.808C71.9563 139.149 71.0301 137.362 70.3237 135.485C67.0013 126.622 61.0232 121.632 54.3898 119.471C48.116 117.516 41.3651 117.743 35.2368 120.115C41.9047 111.377 48.9635 105.284 55.4129 104.617C56.7465 104.466 58.0968 104.571 59.3907 104.928C70.0708 108.009 74.6694 116.413 73.7152 135.06Z" fill="#FFE05C"/>
<path d="M99.1788 119.839C87.0961 121.31 84.498 111.63 84.4175 97.8C84.4175 94.5466 84.5209 91.0632 84.7049 87.4533C84.8011 85.3141 85.0315 83.1831 85.3947 81.0728C89.5104 57.5168 109.008 60.3794 110.008 74.244C110.399 79.4978 114.113 118.022 99.1788 119.839Z" fill="#B25E47"/>
<path d="M98.8916 83.2802C98.2478 92.5807 91.5569 97.3632 84.4292 97.8001C84.4292 94.5466 84.5327 91.0632 84.7166 87.4533C84.8128 85.3142 85.0432 83.1832 85.4064 81.0729C89.3267 79.3714 99.3975 75.7385 98.8916 83.2802Z" fill="#914839"/>
<path d="M145.67 174.906C145.038 177.035 144.535 179.2 144.164 181.39C144.061 181.988 143.958 182.54 143.866 183.172C140.164 206.257 139.704 227.652 139.451 229.87C139.198 232.089 118.528 231.33 103.157 230.583C97.1673 230.284 89.4302 230.365 82.1185 230.422C70.6222 230.514 60.2754 230.537 59.4477 228.916C58.8959 227.87 57.4128 221.719 55.8034 213.833C55.5504 212.614 55.286 211.35 55.0331 210.062C54.9066 209.418 54.7687 208.763 54.6537 208.108C54.5388 207.452 54.3663 206.602 54.2168 205.808C54.0674 205.015 53.9179 204.199 53.757 203.383C53.4351 201.589 53.1017 199.761 52.7913 197.956C52.4809 196.151 52.1935 194.37 51.9176 192.622C51.0559 187.572 50.4611 182.479 50.1356 177.366C49.5656 165.771 50.9888 154.164 54.3433 143.05C54.4353 142.762 54.5158 142.486 54.5847 142.199C54.7112 141.716 54.8262 141.233 54.9411 140.75C55.0101 140.498 55.0561 140.245 55.1136 139.992C55.171 139.739 55.217 139.486 55.263 139.233C55.309 138.98 55.3665 138.727 55.4125 138.474C55.4585 138.221 55.4929 137.98 55.5274 137.727C55.6079 137.233 55.6769 136.738 55.7344 136.255C55.8723 135.106 55.9758 133.876 56.0218 132.726C56.0218 132.565 56.0218 132.404 56.0218 132.255C56.0218 131.438 56.0218 130.634 56.0218 129.84C55.9352 126.179 55.5274 122.532 54.8032 118.942C53.6535 112.814 52.0325 108.216 52.4234 106.1C52.6074 105.054 53.6995 104.433 55.5849 104.157C55.715 104.147 55.8457 104.147 55.9758 104.157C60.5743 103.606 69.6105 104.928 81.8196 107.457C82.0861 104.712 82.5394 101.989 83.1762 99.306C83.2963 98.8876 83.5527 98.5213 83.9046 98.2651C84.2566 98.009 84.684 97.8776 85.1191 97.892C86.7508 97.9421 88.3764 98.1151 89.9821 98.4093C92.9136 98.6852 102.904 96.8573 108.043 94.1556C109.079 93.5624 110.218 93.1722 111.4 93.006C113.86 92.7876 114.711 94.7305 115.033 97.3746V97.7195C115.033 97.846 115.033 97.9724 115.033 98.0989C115.033 98.2254 115.033 98.5817 115.09 98.8347C115.148 99.0876 115.09 99.214 115.09 99.4095V100.191C115.09 100.502 115.09 100.812 115.09 101.134V102.042C115.09 102.192 115.09 102.341 115.09 102.502C115.09 102.663 115.09 102.766 115.09 102.893C115.09 103.019 115.09 103.249 115.09 103.433C115.09 103.617 115.09 103.882 115.09 104.1C115.09 104.318 115.09 104.537 115.09 104.755V105.181C115.09 107.101 115.09 108.549 115.09 108.549C124.368 105.031 138.37 101.444 148.97 107.963C152.423 110.15 155.279 113.16 157.282 116.723C157.828 117.643 158.327 118.591 158.776 119.563C167.835 138.382 151.718 154.385 145.67 174.906Z" fill="#FDD71C"/>
<path d="M157.615 116.723C148.659 117.815 138.646 123.621 129.23 134.807C127.77 136.543 126.333 138.394 124.896 140.394C109.779 161.559 83.4404 155.949 73.3006 140.509C72.198 138.838 71.2951 137.044 70.6104 135.163C67.3685 126.254 61.4133 121.207 54.8374 118.976C53.6878 112.849 52.0668 108.25 52.4577 106.135C52.6416 105.089 53.7338 104.468 55.6192 104.192C55.7492 104.181 55.88 104.181 56.01 104.192C60.6086 103.64 69.6447 104.962 81.8539 107.491C82.1075 104.736 82.5492 102.001 83.176 99.306C83.2961 98.8876 83.5524 98.5213 83.9044 98.2651C84.2564 98.009 84.6838 97.8776 85.1189 97.892C86.7505 97.9421 88.3761 98.1151 89.9818 98.4093C92.9134 98.6852 102.904 96.8573 108.043 94.1556C109.078 93.5624 110.218 93.1722 111.4 93.006C113.86 92.7876 114.711 94.7305 115.032 97.3746V97.7195C115.032 97.846 115.032 97.9724 115.032 98.0989C115.032 98.2254 115.032 98.5817 115.09 98.8347C115.147 99.0876 115.09 99.214 115.09 99.4095V100.191C115.09 100.502 115.09 100.812 115.09 101.134V102.042C115.09 102.192 115.09 102.341 115.09 102.502C115.09 102.663 115.09 102.766 115.09 102.893C115.09 103.019 115.09 103.249 115.09 103.433C115.09 103.617 115.09 103.882 115.09 104.1C115.09 104.318 115.09 104.537 115.09 104.755V105.181C115.09 107.101 115.09 108.549 115.09 108.549C124.367 105.031 138.37 101.444 148.97 107.963C152.545 110.106 155.519 113.12 157.615 116.723Z" fill="#FFE05C"/>
<path d="M55.7456 132.324C55.7169 134.979 55.4514 137.626 54.9524 140.233C54.734 141.383 54.4695 142.533 54.1476 143.682C50.9042 154.827 49.6052 166.447 50.3079 178.033C50.6712 183.146 51.3159 188.235 52.2392 193.277C52.5266 195.025 52.837 196.807 53.1704 198.6C54.1591 204.004 55.2858 209.545 56.3435 214.419C58.0449 222.283 59.5854 228.41 60.1487 229.457" stroke="#F7AD2B" stroke-width="0.55" stroke-linecap="round" stroke-linejoin="round"/>
<path d="M144.107 182.77C140.658 205.889 140.417 227.295 140.187 229.514C139.957 231.733 119.286 231.192 103.904 230.664C97.9147 230.422 90.1662 230.595 82.866 230.664C88.8671 225.663 101.26 217.454 113.193 222.616C129.714 229.824 137.508 207.073 127.414 205.038C117.321 203.003 116.849 191.541 114.837 182.241L123.092 178.907L144.107 182.77Z" fill="#ECB918"/>
<path d="M81.2794 107.687C81.1816 109.479 81.1816 111.275 81.2794 113.067" stroke="#F7AD2B" stroke-width="0.55" stroke-linecap="round" stroke-linejoin="round"/>
<path d="M114.814 108.101C114.688 111.619 114.515 113.918 114.515 113.918" stroke="#F7AD2B" stroke-width="0.55" stroke-linecap="round" stroke-linejoin="round"/>
<path d="M89.2922 113.539C93.8908 114.838 100.789 114.918 104.801 113.539" stroke="#F7AD2B" stroke-width="0.55" stroke-linecap="round" stroke-linejoin="round"/>
<path d="M187.46 196.37C182.804 202.314 170.02 203.463 159.65 195.221C156.761 192.879 154.285 190.07 152.327 186.909C151.177 185.104 149.717 182.31 148.073 179.091C147.349 177.654 146.579 176.114 145.774 174.493C141.405 165.571 136.427 154.742 133.22 148.557C131.632 145.43 130.443 142.116 129.679 138.693C129.357 137.336 129.104 135.957 128.909 134.577C126.517 117.907 132.495 100.41 148.648 107.492H148.705C151.924 108.917 155.35 111.975 158.788 116.011C167.134 125.782 175.515 141.303 180.861 152.994C182.068 155.65 183.16 158.099 183.988 160.249C190.265 175.757 193.288 188.886 187.46 196.37Z" fill="#FDD71C"/>
<path d="M162.926 170.009C162.57 175.826 155.73 178.229 148.073 179.022C147.349 177.585 146.579 176.044 145.774 174.423C141.405 165.502 136.427 154.673 133.22 148.488C131.632 145.36 130.443 142.047 129.679 138.624C136.266 138.762 143.394 141.164 144.049 152.419C144.544 160.168 163.766 156.708 162.926 170.009Z" fill="#ECB918"/>
<path d="M158.823 115.976C158.257 116.001 157.693 116.055 157.133 116.137C148.2 117.287 138.233 123.242 128.944 134.531C126.552 117.861 132.53 100.364 148.683 107.446H148.74C151.959 108.929 155.385 111.987 158.823 115.976Z" fill="#FFE05C"/>
<path d="M152.327 186.874C151.177 185.069 149.717 182.276 148.073 179.057C147.349 177.62 146.579 176.079 145.774 174.458C141.405 165.537 136.427 154.707 133.22 148.522C131.632 145.395 130.443 142.081 129.679 138.658C129.357 137.302 129.104 135.922 128.909 134.543" stroke="#F7AD2B" stroke-width="0.55" stroke-linecap="round" stroke-linejoin="round"/>
<path d="M187.46 196.37C182.804 202.314 170.02 203.463 159.65 195.221C162.205 194.4 164.914 194.172 167.571 194.554C178.136 196.094 188.552 191.772 180.435 179.448C173.871 169.48 178.561 156.972 180.895 153.006C182.102 155.662 183.194 158.11 184.022 160.26C190.265 175.757 193.288 188.886 187.46 196.37Z" fill="#ECB918"/>
<path d="M119.643 38.8008C117.665 40.2034 116.447 40.4333 116.493 42.5831C116.539 44.7329 115.619 45.3193 114.699 45.6756C113.78 46.032 114.803 47.584 114.515 49.1246C114.228 50.6651 110.331 52.1021 110.331 52.1021L84.4179 39.916C82.2566 37.2948 83.1993 35.8348 83.8891 34.4322C83.9568 34.2986 83.9921 34.1509 83.9921 34.0011C83.9921 33.8513 83.9568 33.7036 83.8891 33.57C83.5327 32.5928 81.9462 31.7421 82.3601 30.6499C82.8774 29.2588 84.28 29.0174 85.901 28.9599C87.522 28.9024 87.2116 24.2464 86.4413 23.0163C85.671 21.7862 86.2574 18.7052 88.867 18.8891C91.4767 19.073 92.4884 18.5442 92.7183 17.3141C92.8764 16.8866 93.121 16.4964 93.4368 16.1678C93.7526 15.8392 94.1329 15.5794 94.5537 15.4046C94.9746 15.2297 95.4271 15.1437 95.8827 15.1518C96.3384 15.1599 96.7875 15.262 97.2019 15.4517C99.2368 16.5094 100.984 15.3367 102.214 14.1756C102.283 14.1017 102.36 14.0361 102.444 13.9802C103.789 12.934 106.594 12.3592 107.744 14.1756C108.263 15.0657 109.012 15.8 109.912 16.3016C110.812 16.8031 111.83 17.0536 112.86 17.0267C115.309 17.1991 116.01 19.234 115.481 21.2689C114.952 23.3037 115.711 24.0165 117.298 24.9477C118.123 25.6032 118.731 26.4933 119.041 27.5009C119.351 28.5085 119.348 29.5863 119.034 30.5924C118.715 31.1833 118.6 31.8625 118.706 32.5253C118.812 33.188 119.133 33.7975 119.62 34.2598C120.39 35.0185 121.62 37.3983 119.643 38.8008Z" fill="#473526"/>
<path d="M109.779 72.1057C107.727 72.9709 105.507 73.3638 103.283 73.2553C94.3851 72.8414 72.657 80.8774 72.657 80.8774C69.0126 81.3258 66.7823 82.5904 68.4378 84.4068C70.0933 86.2232 71.6338 91.4771 67.4146 91.9139C66.5846 91.9874 65.7498 91.9874 64.9199 91.9139C62.4482 91.6955 61.3445 90.6493 61.6549 89.6836C62.0573 88.4305 64.7359 88.7064 65.2418 88.2006C65.7476 87.6948 65.8741 86.5451 64.2186 85.0046C62.5631 83.4641 61.3675 81.0729 63.069 78.6471C64.7704 76.2214 68.1389 74.0486 66.0925 72.2896C64.0462 70.5307 62.3792 69.0362 63.2414 66.9783C64.1037 64.9205 68.9896 62.0234 66.6903 59.5172C64.3911 57.011 62.4827 53.769 66.8168 49.8257C71.1509 45.8825 75.531 46.6297 74.8643 43.2613C74.1975 39.8929 74.7493 36.6509 79.4628 37.4441C84.1763 38.2374 84.8201 37.904 86.878 36.7658C88.9358 35.6277 91.6604 36.2485 94.2931 38.5248C96.9258 40.8011 99.4205 38.2374 102.605 38.8697C105.789 39.502 102.605 42.5715 106.652 43.2613C110.698 43.9511 112.078 44.1235 112.538 47.9978C112.998 51.8721 115.676 51.9181 116.24 53.1252C117.389 55.5854 115.561 57.2984 115.033 58.7239C114.504 60.1495 115.653 61.0232 116.562 62.5407C118.079 65.0584 115.021 69.8754 109.779 72.1057Z" fill="#674D36"/>
<path d="M111.181 65.2539C110.887 67.5851 110.418 69.8909 109.779 72.1517C107.727 73.017 105.507 73.4099 103.283 73.3014C94.3849 72.8875 72.6567 80.9235 72.6567 80.9235C69.0124 81.3718 66.7821 82.6364 68.4376 84.4529C70.093 86.2693 71.6336 91.5231 67.4144 91.96C66.5844 92.0334 65.7496 92.0334 64.9197 91.96C68.0812 91.4426 68.9204 89.1894 67.2994 86.2118C65.0002 82.1076 65.8624 79.6819 68.1157 77.3251C70.369 74.9683 66.6786 69.4271 68.1157 66.507C69.5527 63.5869 71.9785 62.5408 71.0013 58.1262C70.0241 53.7116 70.5299 51.5962 73.9788 49.1475C77.4277 46.6988 80.4053 46.2274 82.2677 43.2958C84.1301 40.3643 89.0046 38.5248 90.66 42.0197C92.3155 45.5146 92.8559 47.9059 97.5579 46.4803C102.26 45.0548 105.341 46.8022 103.685 50.803C102.03 54.8037 102.812 58.609 105.732 59.1034C108.652 59.5977 111.744 59.6437 111.181 65.2539Z" fill="#473526"/>
<path d="M107.836 78.6472C90.3271 91.3852 82.7855 95.5699 74.4161 88.5341C70.5074 85.2576 69.8176 78.5667 70.6108 71.7494C70.8914 69.3133 71.3292 66.8978 71.9214 64.5182C72.7977 60.6467 74.1371 56.8949 75.9106 53.3437C79.693 46.5609 88.3152 46.2275 89.189 46.5608C90.0627 46.8942 90.3386 47.4001 89.4879 49.4119C88.6371 51.4238 89.5798 52.8609 92.0056 52.9298C94.4313 52.9988 97.2019 54.6888 96.949 57.1145C96.7871 58.2976 96.9792 59.5021 97.5009 60.5762C98.0226 61.6503 98.8506 62.5459 99.8806 63.1501C102.18 64.5757 101.72 66.7485 102.053 68.0935C102.387 69.4386 105.157 70.9447 105.916 69.0937C106.675 67.2428 111.021 63.3456 114.538 66.9209C118.056 70.4963 114.952 78.9001 107.836 78.6472Z" fill="#B25E47"/>
<path d="M86.8548 69.5423C87.6941 71.2897 90.7291 71.5771 93.6262 70.1861C96.5233 68.795 98.2247 66.2313 97.3395 64.4379C96.4543 62.6445 93.4652 62.403 90.5681 63.8056C87.6711 65.2081 86.0041 67.7948 86.8548 69.5423Z" fill="#A0503D"/>
<path d="M75.0482 71.071C74.2549 72.2206 72.4845 72.3931 70.6106 71.7493C70.8912 69.3132 71.329 66.8977 71.9212 64.5181L72.381 64.817C74.9907 66.6909 76.1863 69.496 75.0482 71.071Z" fill="#A0503D"/>
<path d="M74.7146 62.6098C74.7146 62.8372 74.782 63.0595 74.9084 63.2485C75.0347 63.4376 75.2142 63.585 75.4243 63.672C75.6344 63.759 75.8655 63.7817 76.0885 63.7374C76.3115 63.693 76.5164 63.5835 76.6772 63.4228C76.8379 63.262 76.9474 63.0571 76.9918 62.8341C77.0361 62.6111 77.0134 62.38 76.9264 62.1699C76.8393 61.9598 76.692 61.7803 76.5029 61.654C76.3139 61.5276 76.0916 61.4602 75.8642 61.4602C75.5593 61.4602 75.2669 61.5813 75.0513 61.7969C74.8357 62.0125 74.7146 62.3049 74.7146 62.6098Z" fill="#683F1D"/>
<path d="M82.0266 63.2423C82.0266 63.5594 82.1526 63.8635 82.3768 64.0877C82.601 64.3119 82.9051 64.4379 83.2222 64.4379C83.5393 64.4379 83.8434 64.3119 84.0677 64.0877C84.2919 63.8635 84.4179 63.5594 84.4179 63.2423C84.4179 62.9252 84.2919 62.621 84.0677 62.3968C83.8434 62.1726 83.5393 62.0466 83.2222 62.0466C82.9051 62.0466 82.601 62.1726 82.3768 62.3968C82.1526 62.621 82.0266 62.9252 82.0266 63.2423Z" fill="#683F1D"/>
<path d="M107.192 73.2785C107.434 70.7033 110.377 67.1509 113.55 69.8296" stroke="#ED917B" stroke-width="0.55" stroke-linecap="round" stroke-linejoin="round"/>
<path d="M107.318 72.6461C109.526 68.8523 113.952 74.0487 108.778 75.0719" stroke="#ED917B" stroke-width="0.55" stroke-linecap="round" stroke-linejoin="round"/>
<path d="M78.1406 70.2893C76.83 69.68 76.3012 68.4844 76.4162 68.1855C76.5311 67.8866 80.6353 64.8745 79.8651 60.2185" stroke="#ED917B" stroke-width="0.55" stroke-linecap="round" stroke-linejoin="round"/>
<path d="M83.1762 54.3899C82.8083 56.8156 88.7059 59.1954 89.6141 57.6549C90.4304 56.3443 83.774 50.826 83.1762 54.3899Z" fill="#674D36"/>
<path d="M73.3238 55.9878C73.3238 56.6891 79.7158 56.5512 79.6238 54.1024C79.5319 51.6537 73.1629 53.8955 73.3238 55.9878Z" fill="#674D36"/>
<path d="M78.75 72.738C80.9453 72.1529 83.0874 71.3838 85.1535 70.4387C85.1535 70.4387 85.8088 74.4854 83.2221 75.2327C82.7646 75.3641 82.2858 75.4037 81.813 75.3493C81.3401 75.2948 80.8828 75.1475 80.4671 74.9156C80.0515 74.6837 79.6858 74.372 79.3911 73.9983C79.0964 73.6245 78.8785 73.1962 78.75 72.738Z" fill="white" stroke="#ED917B" stroke-width="0.55" stroke-linecap="round" stroke-linejoin="round"/>
<path d="M112.078 28.96C111.101 31.9835 107.583 28.8565 107.307 33.1677C107.031 37.4788 98.4089 36.2717 95.8108 32.0755C93.6494 28.6266 87.5334 29.9257 83.935 33.57C83.5786 32.5928 81.9921 31.7421 82.406 30.65C82.9233 29.2589 84.3259 29.0175 85.9469 28.96C87.5679 28.9025 87.2575 24.2465 86.4872 23.0164C85.7169 21.7863 86.3033 18.7052 88.9129 18.8892C91.5226 19.0731 92.5343 18.5443 92.7642 17.3142C92.9222 16.8867 93.1668 16.4965 93.4827 16.1679C93.7985 15.8393 94.1787 15.5795 94.5996 15.4046C95.0205 15.2298 95.4729 15.1438 95.9286 15.1519C96.3843 15.16 96.8334 15.2621 97.2478 15.4518C99.2827 16.5094 101.03 15.3368 102.26 14.1757C102.329 14.1017 102.406 14.0361 102.49 13.9802C103.49 16.8313 104.226 20.7171 108.1 21.0505C113.538 21.5448 113.067 25.925 112.078 28.96Z" fill="#674D36"/>
<path d="M0 111.906C0.482848 108.814 9.19709 106.503 14.2325 105.537L16.1639 118.022C16.1639 118.022 2.26478 116.034 0 111.906Z" fill="#ECB918"/>
<path d="M8.0819 118.551C7.09321 105.02 7.09321 93.65 6.8058 89.3389C6.51839 85.0277 6.73682 80.4407 11.8067 78.3484C11.8067 78.3484 11.8067 74.3591 17.5549 73.6234C17.5549 73.6234 16.8306 70.048 21.6591 70.1744C21.649 69.8386 21.7168 69.505 21.8574 69.1998C21.998 68.8947 22.2074 68.6263 22.4692 68.4157C22.731 68.2051 23.0381 68.0581 23.3663 67.9863C23.6945 67.9144 24.0349 67.9197 24.3608 68.0016C25.1984 68.0856 26.0074 68.3526 26.7305 68.7837C27.4536 69.2148 28.0732 69.7994 28.5454 70.4963C32.7416 69.5996 35.0869 73.9452 34.8799 77.5436C34.673 81.142 34.3971 85.0737 32.6726 88.6721C30.9482 92.2705 28.7294 98.2716 28.7294 98.2716L28.8673 105.871C28.8673 105.871 25.6943 130.277 8.0819 118.551Z" fill="#B25E47"/>
<path d="M6.80589 89.3389C6.50698 85.0277 6.73691 80.4407 11.8068 78.3484C11.8068 78.3484 11.8068 74.3591 17.555 73.6234C17.555 73.6234 16.8307 70.048 21.6592 70.1744C21.6491 69.8386 21.7169 69.505 21.8575 69.1998C21.9981 68.8947 22.2075 68.6263 22.4693 68.4157C22.7311 68.2051 23.0382 68.0581 23.3664 67.9863C23.6946 67.9144 24.035 67.9197 24.3608 68.0016C25.1985 68.0856 26.0075 68.3526 26.7306 68.7837C27.4537 69.2148 28.0732 69.7994 28.5455 70.4963C32.7417 69.5996 35.087 73.9452 34.88 77.5436" stroke="#ED917B" stroke-width="0.55" stroke-linecap="round" stroke-linejoin="round"/>
<path d="M28.5803 70.4734C24.2576 72.6002 21.0846 76.5895 22.3837 78.5208C23.6828 80.4522 28.5803 78.015 29.2816 77.3712" stroke="#ED917B" stroke-width="0.55" stroke-linecap="round" stroke-linejoin="round"/>
<path d="M21.3254 70.1514C23.0243 70.6102 24.6554 71.2905 26.1769 72.1747" stroke="#ED917B" stroke-width="0.55" stroke-linecap="round" stroke-linejoin="round"/>
<path d="M17.647 73.6233C19.5421 73.7007 21.3993 74.1787 23.0962 75.0258" stroke="#ED917B" stroke-width="0.55" stroke-linecap="round" stroke-linejoin="round"/>
<path d="M22.2456 84.108C23.6941 82.9584 24.9473 81.0844 24.5449 79.291" stroke="#ED917B" stroke-width="0.55" stroke-linecap="round" stroke-linejoin="round"/>
<path d="M11.8069 78.3483C15.2558 76.9343 18.7047 75.3248 19.8543 77.6815C21.004 80.0383 21.4638 87.281 19.8543 88.2582C18.2449 89.2354 15.5317 88.4306 15.0719 86.5337C14.612 84.6368 14.2671 82.0501 14.2671 82.0501" stroke="#ED917B" stroke-width="0.55" stroke-linecap="round" stroke-linejoin="round"/>
<path d="M18.2102 88.6719C19.6587 90.4653 19.1874 96.8113 17.5894 98.9266" stroke="#ED917B" stroke-width="0.55" stroke-linecap="round" stroke-linejoin="round"/>
<path d="M29.6033 198.106C26.7752 203.44 22.7055 206.349 17.3597 204.532C7.17389 201.084 3.12717 191.323 1.64414 181.793C0.0921273 171.848 1.31074 162.134 1.26476 160.076C1.16129 156.029 0.0461426 111.929 0.0461426 111.929C1.81658 112.63 4.48374 112.642 7.72572 112.044C10.1918 111.556 12.6112 110.856 14.9569 109.952C19.8754 108.077 24.5529 105.622 28.8905 102.64L29.086 102.514C29.086 102.514 29.9597 113.447 31.1553 126.012C32.167 136.773 33.4546 148.729 34.5008 156.052C36.2252 167.848 35.1791 187.633 29.6033 198.106Z" fill="#FDD71C"/>
<path d="M29.6035 198.106C26.7754 203.44 22.7056 206.349 17.3598 204.532C7.17404 201.083 3.12732 191.323 1.64429 181.792C3.45999 184.87 5.59893 187.745 8.02477 190.369C15.5089 198.405 23.3954 200.141 29.6035 198.106Z" fill="#ECB918"/>
<path d="M29.0396 102.49C29.0396 102.49 32.0746 140.176 34.4543 156.029C35.753 166.113 35.4348 176.339 33.5116 186.322" stroke="#F7AD2B" stroke-width="0.55" stroke-linecap="round" stroke-linejoin="round"/>
<path d="M136.61 147.829L100.436 132.72C97.583 131.528 94.3039 132.875 93.1121 135.728L71.6308 187.156C70.4391 190.01 71.7859 193.289 74.6391 194.48L110.813 209.59C113.666 210.782 116.945 209.435 118.137 206.582L139.618 155.153C140.81 152.3 139.463 149.021 136.61 147.829Z" fill="#EDEDED"/>
<path d="M132.551 146.126L100.44 132.714C97.5869 131.522 94.3078 132.869 93.116 135.722L71.6347 187.15C70.443 190.004 71.7898 193.283 74.643 194.475L106.754 207.887C109.607 209.079 112.886 207.732 114.078 204.879L135.559 153.45C136.751 150.597 135.404 147.318 132.551 146.126Z" fill="#F9F9F9" stroke="#DDDDDD" stroke-width="0.74" stroke-linecap="round" stroke-linejoin="round"/>
<path d="M102.559 141.268C102.557 141.749 102.412 142.219 102.143 142.619C101.874 143.018 101.493 143.329 101.047 143.511C100.601 143.694 100.112 143.741 99.6398 143.645C99.1678 143.55 98.7346 143.317 98.3948 142.976C98.0551 142.634 97.8242 142.2 97.7311 141.728C97.6379 141.255 97.6869 140.766 97.8717 140.321C98.0565 139.876 98.3689 139.496 98.7694 139.229C99.17 138.962 99.6407 138.819 100.122 138.819C100.443 138.819 100.761 138.883 101.058 139.006C101.354 139.129 101.623 139.309 101.85 139.537C102.076 139.765 102.255 140.035 102.377 140.332C102.499 140.629 102.561 140.947 102.559 141.268Z" fill="#EDEDED"/>
<path d="M106.583 143.716C106.583 143.957 106.511 144.193 106.377 144.393C106.243 144.594 106.053 144.75 105.83 144.842C105.608 144.935 105.363 144.959 105.126 144.912C104.89 144.865 104.673 144.749 104.502 144.578C104.332 144.408 104.216 144.191 104.169 143.954C104.122 143.718 104.146 143.473 104.238 143.25C104.331 143.027 104.487 142.837 104.687 142.703C104.887 142.569 105.123 142.498 105.364 142.498C105.525 142.496 105.684 142.527 105.832 142.587C105.981 142.648 106.116 142.738 106.229 142.851C106.343 142.965 106.432 143.1 106.493 143.248C106.554 143.397 106.584 143.556 106.583 143.716Z" fill="#EDEDED"/>
<path d="M104.801 184.115C102.409 183.287 101.168 178.666 100.846 174.688L110.227 175.838C110.227 175.838 110.296 184.724 104.801 184.115Z" fill="#ECB918"/>
<path d="M107.951 181.77C105.292 179.867 102.537 178.102 99.6966 176.481C98.6274 175.895 92.5689 175.217 88.3382 172.894C85.4979 171.284 82.7603 169.498 80.1413 167.549L78.4743 170.653C78.4743 170.653 75.1979 167.112 74.7035 163.916C74.2092 160.72 75.5312 160.616 76.313 159.938C77.0947 159.26 76.6004 158.236 76.5544 156.581C76.5084 154.926 77.911 154.592 78.3479 154.017C78.7847 153.442 78.3479 151.925 78.3479 149.89C78.3479 147.855 80.6471 147.752 81.061 146.591C81.4749 145.429 81.7853 141.682 85.0847 142.659C88.3842 143.636 102.755 154.305 103.72 154.788C105.116 155.291 106.545 155.698 107.997 156.006C107.997 156.006 119.689 174.389 107.951 181.77Z" fill="#B25E47"/>
<path d="M80.1413 167.549L78.4743 170.653C78.4743 170.653 75.1979 167.112 74.7035 163.916C74.2092 160.72 75.5312 160.616 76.313 159.938C77.0947 159.26 76.6004 158.236 76.5544 156.581C76.5084 154.926 77.911 154.592 78.3479 154.017C78.7847 153.442 78.3479 151.925 78.3479 149.89C78.3479 147.855 80.6471 147.752 81.061 146.591C81.4749 145.429 81.7853 141.682 85.0847 142.659" stroke="#ED917B" stroke-width="0.55" stroke-linecap="round" stroke-linejoin="round"/>
<path d="M80.1412 167.548C78.4972 166.18 78.1523 165.95 78.1523 165.95" stroke="#ED917B" stroke-width="0.55" stroke-linecap="round" stroke-linejoin="round"/>
<path d="M189.288 193.898C186.276 203.095 175.055 211.327 149.464 201.658L148.073 201.118C121.494 190.599 104.789 184.115 104.789 184.115C107.091 174.389 107.091 164.26 104.789 154.535C120.068 158.811 160.466 167.1 174.814 171.308C175.756 171.584 176.665 171.883 177.515 172.205C189.552 176.677 192.196 184.954 189.288 193.898Z" fill="#FDD71C"/>
<path d="M148.073 201.118C121.494 190.599 104.801 184.115 104.801 184.115" stroke="#F7AD2B" stroke-width="0.55" stroke-linecap="round" stroke-linejoin="round"/>
<path d="M104.801 154.535C118.654 158.409 153.223 165.594 170.204 170.043" stroke="#F7AD2B" stroke-width="0.55" stroke-linecap="round" stroke-linejoin="round"/>
<path d="M189.288 193.898C186.276 203.095 175.055 211.327 149.464 201.658C149.464 201.658 157.006 192.99 167.571 194.519C178.136 196.048 188.552 191.737 180.436 179.413C178.993 177.228 178.001 174.777 177.515 172.205C189.552 176.677 192.196 184.954 189.288 193.898Z" fill="#ECB918"/>
<path d="M164.229 3.11863L166.505 19.0133L182.548 19.6668L168.135 26.7431L172.471 42.2033L161.287 30.6821L147.923 39.5836L155.425 25.3867L142.829 15.4279L158.649 18.175L164.229 3.11863Z" fill="#FFE05C"/>
<path d="M33.301 32.0653L34.7697 41.8961L44.7037 42.2402L35.8079 46.675L38.5504 56.2291L31.5838 49.1392L23.3447 54.6998L27.9349 45.8832L20.1004 39.7658L29.9039 41.4067L33.301 32.0653Z" fill="#FFE05C"/>
<path d="M64.6769 7.19789L67.5896 13.0079L73.8325 11.2007L69.207 15.7662L72.8549 21.1451L67.0834 18.1568L63.0951 23.2883L64.1537 16.8759L58.0408 14.6684L64.4665 13.6937L64.6769 7.19789Z" fill="#FFE05C"/>
</svg>
