<svg width="293" height="222" viewBox="0 0 293 222" fill="none" xmlns="http://www.w3.org/2000/svg">
<path d="M106.314 24.2414C107.186 23.5873 108.064 22.944 108.958 22.3171" stroke="#1C15D6" stroke-width="3" stroke-linecap="round" stroke-linejoin="round"/>
<path d="M114.245 18.8501C128.8 9.82833 145.581 5.03775 162.705 5.01515C169.875 5.01198 177.02 5.85547 183.992 7.52812" stroke="#1C15D6" stroke-width="3" stroke-linecap="round" stroke-linejoin="round" stroke-dasharray="11.57 11.57"/>
<path d="M187.018 8.3186C188.068 8.60933 189.114 8.91823 190.157 9.2453" stroke="#1C15D6" stroke-width="3" stroke-linecap="round" stroke-linejoin="round"/>
<path d="M114.676 215.794C113.744 215.249 112.817 214.649 111.907 214.055" stroke="#1C15D6" stroke-width="3" stroke-linecap="round" stroke-linejoin="round"/>
<path d="M106.613 210.338C87.4416 195.974 72.9471 174.458 66.2095 149.219" stroke="#1C15D6" stroke-width="3" stroke-linecap="round" stroke-linejoin="round" stroke-dasharray="11.9 11.9"/>
<path d="M65.3921 146.069C65.1413 145.011 64.9033 143.948 64.678 142.88" stroke="#1C15D6" stroke-width="3" stroke-linecap="round" stroke-linejoin="round"/>
<path d="M262.385 132.773C262.251 133.864 262.102 134.943 261.938 136.011" stroke="#1C15D6" stroke-width="3" stroke-linecap="round" stroke-linejoin="round"/>
<path d="M260.755 142.586C259.173 150.216 256.851 157.674 253.821 164.854" stroke="#1C15D6" stroke-width="3" stroke-linecap="round" stroke-linejoin="round" stroke-dasharray="12.25 12.25"/>
<path d="M252.48 167.933C252.026 168.925 251.561 169.908 251.085 170.882" stroke="#1D1C34" stroke-width="3" stroke-linecap="round" stroke-linejoin="round"/>
<path d="M88.4175 172.79L58.4689 177.217C57.9338 177.293 57.3893 177.168 56.9411 176.866C56.4928 176.564 56.1728 176.106 56.0432 175.581L52.5762 159.402C52.5195 159.149 52.5164 158.887 52.5671 158.633C52.6178 158.378 52.7211 158.137 52.8706 157.925C53.02 157.713 53.2121 157.535 53.4346 157.402C53.6571 157.268 53.9051 157.183 54.1625 157.151L84.1111 152.73C84.6462 152.654 85.1907 152.779 85.6389 153.081C86.0871 153.383 86.4071 153.841 86.5368 154.366L90.0037 170.506C90.0657 170.762 90.0728 171.027 90.0246 171.286C89.9764 171.544 89.874 171.789 89.7241 172.005C89.5742 172.221 89.3802 172.402 89.155 172.538C88.9298 172.673 88.6784 172.759 88.4175 172.79Z" fill="#F9F9F9" stroke="#B7B7B7" stroke-width="2" stroke-linecap="round" stroke-linejoin="round"/>
<path d="M57.0078 159.789C57.3294 159.729 74.8603 165.464 74.8603 165.464L83.037 155.15" stroke="#B7B7B7" stroke-width="2" stroke-linecap="round" stroke-linejoin="round"/>
<path d="M61.5325 171.564L71.29 164.303" stroke="#B7B7B7" stroke-width="2" stroke-linecap="round" stroke-linejoin="round"/>
<path d="M79.5483 164.303L86.9728 166.652" stroke="#B7B7B7" stroke-width="2" stroke-linecap="round" stroke-linejoin="round"/>
<path d="M101.004 197.909L93.2091 199.376C93.1042 199.395 93.0063 199.442 92.9256 199.512L88.0196 203.796C87.9355 203.868 87.8333 203.915 87.7241 203.932C87.615 203.95 87.5032 203.936 87.4012 203.894C87.2991 203.852 87.2107 203.782 87.1457 203.693C87.0807 203.603 87.0417 203.498 87.0329 203.388L86.1989 190.474C86.1907 190.365 86.2134 190.256 86.2646 190.16C86.3157 190.063 86.3931 189.983 86.4878 189.929C86.5707 189.881 86.6647 189.856 86.7604 189.856C86.8561 189.856 86.9501 189.881 87.0329 189.929L101.162 196.797C101.275 196.851 101.368 196.94 101.427 197.05C101.487 197.161 101.509 197.287 101.491 197.411C101.474 197.535 101.417 197.65 101.329 197.74C101.242 197.83 101.128 197.889 101.004 197.909Z" fill="white" stroke="#B7B7B7" stroke-width="2" stroke-linecap="round" stroke-linejoin="round"/>
<path d="M101.004 197.909L93.2091 199.376C93.1041 199.395 93.0063 199.442 92.9256 199.512L86.4878 189.929C86.5707 189.881 86.6647 189.856 86.7603 189.856C86.856 189.856 86.95 189.881 87.0329 189.929L101.162 196.797C101.275 196.851 101.368 196.94 101.427 197.05C101.486 197.161 101.509 197.287 101.491 197.411C101.474 197.535 101.417 197.65 101.329 197.74C101.242 197.83 101.128 197.889 101.004 197.909Z" fill="#B7B7B7" stroke="#B7B7B7" stroke-width="2" stroke-linecap="round" stroke-linejoin="round"/>
<path d="M125.845 41.7612V123.136H9.81226V41.7612C9.81154 40.6834 10.0232 39.6159 10.4352 38.62C10.8472 37.624 11.4513 36.719 12.2132 35.9566C12.9751 35.1942 13.8797 34.5894 14.8754 34.1768C15.8711 33.7641 16.9384 33.5518 18.0162 33.5518H117.641C118.719 33.5518 119.786 33.7641 120.782 34.1768C121.778 34.5894 122.682 35.1942 123.444 35.9566C124.206 36.719 124.81 37.624 125.222 38.62C125.634 39.6159 125.846 40.6834 125.845 41.7612Z" stroke="#C0B8B8" stroke-width="2" stroke-linecap="round" stroke-linejoin="round"/>
<path d="M125.845 41.7612V42.1264H9.81226V41.7612C9.81154 40.6834 10.0232 39.6159 10.4352 38.62C10.8472 37.624 11.4513 36.719 12.2132 35.9566C12.9751 35.1942 13.8797 34.5894 14.8754 34.1768C15.8711 33.7641 16.9384 33.5518 18.0162 33.5518H117.641C118.719 33.5518 119.786 33.7641 120.782 34.1768C121.778 34.5894 122.682 35.1942 123.444 35.9566C124.206 36.719 124.81 37.624 125.222 38.62C125.634 39.6159 125.846 40.6834 125.845 41.7612Z" stroke="#C0B8B8" stroke-width="2" stroke-linecap="round" stroke-linejoin="round"/>
<path d="M110.141 37.8418C110.141 38.1372 110.053 38.4259 109.889 38.6716C109.725 38.9172 109.491 39.1086 109.219 39.2217C108.946 39.3347 108.645 39.3643 108.356 39.3067C108.066 39.249 107.8 39.1068 107.591 38.8979C107.382 38.689 107.24 38.4229 107.182 38.1331C107.124 37.8434 107.154 37.5431 107.267 37.2702C107.38 36.9973 107.571 36.764 107.817 36.5999C108.063 36.4357 108.352 36.3481 108.647 36.3481C108.843 36.3481 109.037 36.3868 109.219 36.4618C109.4 36.5369 109.564 36.6469 109.703 36.7856C109.842 36.9243 109.952 37.089 110.027 37.2702C110.102 37.4514 110.141 37.6456 110.141 37.8418Z" fill="#C0B8B8"/>
<path d="M113.515 39.3354C114.34 39.3354 115.008 38.6667 115.008 37.8418C115.008 37.0169 114.34 36.3481 113.515 36.3481C112.69 36.3481 112.021 37.0169 112.021 37.8418C112.021 38.6667 112.69 39.3354 113.515 39.3354Z" fill="#EDEDED"/>
<path d="M119.876 37.8418C119.876 38.1374 119.788 38.4264 119.624 38.6721C119.46 38.9179 119.226 39.1093 118.953 39.2222C118.68 39.3351 118.379 39.3643 118.089 39.3063C117.799 39.2482 117.533 39.1054 117.324 38.896C117.116 38.6865 116.974 38.4199 116.917 38.1298C116.86 37.8397 116.89 37.5392 117.004 37.2664C117.118 36.9936 117.31 36.7607 117.557 36.5972C117.803 36.4338 118.092 36.3471 118.388 36.3482C118.584 36.3482 118.778 36.3868 118.959 36.462C119.14 36.5371 119.304 36.6472 119.442 36.786C119.58 36.9247 119.69 37.0894 119.764 37.2706C119.839 37.4518 119.877 37.6459 119.876 37.8418Z" fill="#C0B8B8"/>
<path d="M286.501 22.8185V104.193H170.49V22.8185C170.49 20.6413 171.355 18.5532 172.894 17.0136C174.434 15.474 176.522 14.6091 178.699 14.6091H278.324C280.496 14.6163 282.577 15.4846 284.11 17.0236C285.642 18.5625 286.502 20.6465 286.501 22.8185Z" stroke="#EDEDED" stroke-width="2" stroke-linecap="round" stroke-linejoin="round"/>
<path d="M286.501 22.8185V23.1838H170.49V22.8185C170.49 20.6413 171.355 18.5532 172.894 17.0136C174.434 15.474 176.522 14.6091 178.699 14.6091H278.324C280.496 14.6163 282.577 15.4846 284.11 17.0236C285.642 18.5625 286.502 20.6465 286.501 22.8185Z" stroke="#C0B8B8" stroke-width="2" stroke-linecap="round" stroke-linejoin="round"/>
<path d="M270.818 18.8991C270.818 19.1948 270.73 19.4838 270.566 19.7295C270.401 19.9753 270.168 20.1667 269.895 20.2796C269.621 20.3925 269.321 20.4217 269.031 20.3636C268.741 20.3056 268.475 20.1628 268.266 19.9533C268.058 19.7439 267.916 19.4773 267.859 19.1872C267.802 18.8971 267.832 18.5966 267.946 18.3238C268.06 18.051 268.252 17.8181 268.498 17.6546C268.745 17.4911 269.034 17.4044 269.33 17.4055C269.526 17.4055 269.72 17.4442 269.901 17.5193C270.081 17.5945 270.246 17.7046 270.384 17.8433C270.522 17.9821 270.632 18.1468 270.706 18.328C270.781 18.5092 270.819 18.7033 270.818 18.8991Z" fill="#EDEDED"/>
<path d="M275.691 18.8991C275.691 19.1945 275.604 19.4833 275.44 19.7289C275.276 19.9746 275.042 20.166 274.769 20.2791C274.496 20.3921 274.196 20.4217 273.906 20.364C273.617 20.3064 273.351 20.1642 273.142 19.9553C272.933 19.7464 272.791 19.4803 272.733 19.1905C272.675 18.9008 272.705 18.6005 272.818 18.3276C272.931 18.0546 273.122 17.8214 273.368 17.6572C273.614 17.4931 273.902 17.4055 274.198 17.4055C274.594 17.4055 274.974 17.5629 275.254 17.843C275.534 18.1231 275.691 18.503 275.691 18.8991Z" fill="#C0B8B8"/>
<path d="M280.559 18.8991C280.559 19.1945 280.472 19.4833 280.308 19.7289C280.143 19.9746 279.91 20.166 279.637 20.2791C279.364 20.3921 279.064 20.4217 278.774 20.364C278.484 20.3064 278.218 20.1642 278.009 19.9553C277.801 19.7464 277.658 19.4803 277.601 19.1905C277.543 18.9008 277.573 18.6005 277.686 18.3276C277.799 18.0546 277.99 17.8214 278.236 17.6572C278.481 17.4931 278.77 17.4055 279.066 17.4055C279.462 17.4055 279.842 17.5629 280.122 17.843C280.402 18.1231 280.559 18.503 280.559 18.8991Z" fill="#EDEDED"/>
<path d="M172.965 58.1962C172.665 54.7947 187.683 48.346 190.163 53.3229L185.257 58.1962C185.257 58.1962 175.123 62.2137 172.965 58.1962Z" fill="#93BEE5"/>
<path d="M180.313 33.8681C178.132 27.0868 177.969 26.2365 179.43 25.7295C180.891 25.2226 184.592 32.925 185.012 33.8681C186.478 36.8363 187.608 39.9592 188.38 43.1786C189.029 46.1876 189.879 53.116 190.016 54.7841C190.594 61.8269 178.983 63.9692 178.476 58.4908C177.969 53.0124 177.931 51.2408 177.931 51.2408C177.931 51.2408 171.934 51.7859 171.095 47.3269C170.255 42.8679 170.49 36.7517 170.49 36.7517C170.49 36.7517 161.375 35.2417 161.692 32.8378C162.008 30.4338 179.844 35.2908 179.844 35.2908L180.313 33.8681Z" fill="#B25E47"/>
<path d="M170.49 36.7515C170.49 36.7515 161.375 35.2415 161.692 32.8376C162.008 30.4336 179.844 35.2906 179.844 35.2906L180.313 33.8842C178.132 27.103 177.969 26.2526 179.43 25.7456C180.891 25.2387 184.592 32.9411 185.012 33.8842" stroke="#934735" stroke-width="0.75" stroke-linecap="round" stroke-linejoin="round"/>
<path d="M179.844 35.2747C179.061 38.2798 179.186 41.4495 180.204 44.3835" stroke="#934735" stroke-width="0.75" stroke-linecap="round" stroke-linejoin="round"/>
<path d="M175.576 30.0743C177.004 30.8157 178.133 30.9737 178.558 28.935C178.983 26.8963 176.971 26.8472 176.323 26.9562C175.325 27.1198 174.96 29.7527 175.576 30.0743Z" fill="#683F1D"/>
<path d="M175.843 29.5508C175.619 30.3456 175.437 31.1517 175.298 31.9656C175.532 32.0856 176.933 32.5598 177.118 32.0856C177.332 31.2531 177.483 30.4058 177.571 29.5508H175.843Z" fill="#683F1D"/>
<path d="M174.567 32.6414C173.82 35.983 169.961 54.2988 169.83 54.8984C169.699 55.498 169.874 58.2672 170.108 58.3708C170.343 58.4744 171.689 56.4956 172.18 55.4926C172.67 54.4896 177.009 34.3912 177.276 33.4536C177.942 31.1696 175.058 30.4555 174.567 32.6414Z" fill="#683F1D"/>
<path d="M171.171 43.037C169.301 43.4676 168.772 45.2502 170.152 46.4331C171.634 47.7086 175.287 47.1417 175.456 45.5118C175.625 43.8819 172.73 42.6827 171.171 43.037Z" fill="#B25E47" stroke="#934735" stroke-width="0.75" stroke-linecap="round" stroke-linejoin="round"/>
<path d="M171.002 40.1148C169.084 39.8313 168.615 41.7501 169.983 43.2219C171.351 44.6937 175.87 45.0263 176.127 43.2764C176.383 41.5266 172.18 40.2892 171.002 40.1148Z" fill="#B25E47" stroke="#934735" stroke-width="0.75" stroke-linecap="round" stroke-linejoin="round"/>
<path d="M169.301 36.839C171.711 36.2939 176.933 39.8099 176.72 40.9055C176.464 42.2847 173.995 42.4918 170.517 41.0146C167.252 39.63 168.124 37.117 169.301 36.839Z" fill="#B25E47" stroke="#934735" stroke-width="0.75" stroke-linecap="round" stroke-linejoin="round"/>
<mask id="mask0_269_280" style="mask-type:luminance" maskUnits="userSpaceOnUse" x="170" y="14" width="117" height="91">
<path d="M286.501 22.8185V104.193H170.49V22.8185C170.49 20.6413 171.355 18.5532 172.894 17.0136C174.434 15.474 176.522 14.6091 178.699 14.6091H278.324C280.496 14.6163 282.577 15.4846 284.11 17.0236C285.642 18.5625 286.502 20.6465 286.501 22.8185Z" fill="white"/>
</mask>
<g mask="url(#mask0_269_280)">
<path d="M285.285 63.4021C277.806 63.0369 271.614 69.78 269.695 77.5315C269.64 77.7495 269.591 77.9839 269.548 78.2401C269.344 79.4332 269.2 80.6358 269.117 81.8433C268.321 92.0751 269.073 112.424 269.15 112.915C269.177 113.084 263.857 112.915 256.476 112.566C253.75 112.441 250.763 112.304 247.645 112.146C231.793 111.367 212.965 110.315 212.965 110.315L211.82 97.5808C211.82 97.5808 209.449 101.593 201.338 109.426C193.226 117.259 180.258 112.893 181.654 103.043C182.526 96.8558 186.178 92.3313 190.604 84.7542C191.973 82.4102 193.417 79.7773 194.867 76.7084C196.808 72.6309 198.683 68.7388 200.493 65.2228C201.283 63.6747 202.063 62.1974 202.82 60.8128C205.666 55.5634 208.217 51.5895 210.272 49.7307C216.448 44.1378 229.684 47.3594 233.21 48.4933C238.465 50.2035 243.917 51.2313 249.433 51.5514C257.255 52.0965 269.133 55.4707 275.424 57.6621C279.052 58.8802 282.392 60.8302 285.236 63.3912L285.285 63.4021Z" fill="#A7CAF0"/>
<path d="M290.551 75.0078C283.705 68.1393 273.309 65.1412 262.876 74.4626C250.741 85.2723 241.431 87.1529 227.781 71.3664C217.909 59.919 214.486 57.0354 202.821 60.8348C205.666 55.5854 208.217 51.6115 210.272 49.7527C216.448 44.1598 229.684 47.3814 233.211 48.5152C238.466 50.2181 243.918 51.2385 249.433 51.5515C257.256 52.0966 269.134 55.4709 275.424 57.6623C279.053 58.8804 282.392 60.8303 285.236 63.3914C287.973 65.55 289.57 69.8673 290.551 75.0078Z" fill="#C3DCF8"/>
<path d="M200.297 94.6533C195.936 99.3849 192.016 89.1259 190.604 84.7541C191.973 82.4101 193.417 79.7772 194.867 76.7082C196.808 72.6308 198.683 68.7386 200.493 65.2227C203.709 70.1287 199.364 74.6422 199.059 76.8663C198.263 82.8135 206.549 87.8612 200.297 94.6533Z" fill="#93BEE5"/>
<path d="M172.965 58.1963C179.702 59.6191 190.163 53.323 190.163 53.323C190.163 53.323 195.925 79.0578 197.429 84.7652C198.934 90.4725 208.561 112.828 189.798 113.743C177.756 114.332 176.949 91.4428 176.235 83.9093C175.521 76.3759 172.965 58.1963 172.965 58.1963Z" fill="#A7CAF0"/>
<path d="M177.429 61.1401C182.613 61.5053 188.386 58.0166 188.386 58.0166" stroke="#83ADDF" stroke-width="0.75" stroke-linecap="round" stroke-linejoin="round"/>
<path d="M190.163 53.323C190.163 53.323 195.925 79.0578 197.429 84.7652C198.253 87.8778 201.491 95.9454 201.218 102.787" stroke="#83ADDF" stroke-width="0.75" stroke-linecap="round" stroke-linejoin="round"/>
<path d="M227.781 52.6638C231.139 58.8944 240.046 64.8852 250.796 56.6158C250.796 56.6158 251.952 53.1816 251.832 53.1816C251.712 53.1816 229.302 50.4561 229.302 50.4561L227.781 52.6638Z" fill="white"/>
<path d="M236.629 44.9664C233.859 44.3395 229.847 45.0427 227.078 49.2946C224.309 53.5464 223.955 57.0515 224.113 57.0134C224.271 56.9752 228.474 54.3205 230.354 54.5168C232.235 54.713 236.449 55.9559 236.449 55.9559L236.629 44.9664Z" fill="#FED81D"/>
<path d="M249.106 46.2148C249.106 46.2148 255.228 46.253 256.045 50.543C256.863 54.8331 254.606 59.979 251.837 62.3557C249.068 64.7324 250.589 58.9214 240.646 56.1959L249.106 46.2148Z" fill="#FED81D"/>
<path d="M252.093 51.2299C252.093 51.2299 248.692 56.3976 241.115 56.5121C233.538 56.6265 232.082 52.113 232.082 52.113C232.905 50.0634 233.892 45.6916 234.524 42.628C234.928 40.6929 235.189 39.2756 235.189 39.2756C235.189 39.2756 236.443 27.1413 249.45 27.8718L249.673 29.8615L252.093 51.2299Z" fill="#B25E47"/>
<path d="M234.524 42.7477C234.928 40.818 235.189 39.3952 235.189 39.3952L242.592 35.9229C242.592 35.9229 243.764 44.383 234.524 42.7477Z" fill="#914839"/>
<path d="M211.82 97.581C210.774 85.6321 210.774 75.9563 210.774 75.9563" stroke="#83ADDF" stroke-width="0.75" stroke-linecap="round" stroke-linejoin="round"/>
</g>
<path d="M261.246 126.641C260.611 126.41 260.005 126.104 259.441 125.731C255.626 123.229 255.326 118.355 256.476 112.544C257.37 108.096 259.125 103.103 260.837 98.2079C262.794 92.6259 264.707 87.1802 265.247 82.8193C265.323 82.2088 265.367 81.6255 265.389 81.0695C265.493 77.7257 266.105 74.4172 267.204 71.2574C270.333 62.4593 277.152 56.9209 285.263 63.4024C287.951 65.5501 289.548 69.8674 290.529 75.0078C290.878 76.8449 291.151 78.7909 291.374 80.7751C292.116 87.5127 292.225 94.7573 292.557 100.154C294.198 126.281 287.934 136.715 261.246 126.641Z" fill="#A7CAF0"/>
<path d="M290.551 75.0077C284.658 69.0987 276.127 66.0515 267.215 71.2465C270.344 62.4483 277.163 56.91 285.274 63.3914C287.973 65.55 289.57 69.8673 290.551 75.0077Z" fill="#C3DCF8"/>
<path d="M269.15 112.893C269.177 113.062 263.857 112.893 256.476 112.544C253.75 112.419 250.763 112.282 247.645 112.124C242.314 109.726 239 106.253 241.84 101.276C249.569 87.7522 263.77 106.488 264.511 93.0998C265.012 83.9201 267.236 81.925 269.117 81.865C268.321 92.075 269.057 112.424 269.15 112.893Z" fill="#93BEE5"/>
<path d="M270.965 73.5415C269.906 76.1913 269.282 78.9948 269.117 81.8436C268.408 92.0808 269.074 112.424 269.15 112.915" stroke="#83ADDF" stroke-width="0.75" stroke-linecap="round" stroke-linejoin="round"/>
<path d="M261.246 126.641C260.61 126.409 260.005 126.104 259.441 125.73C265.557 127.044 274.704 128.227 278.733 124.787C285.083 119.38 281.05 112.446 284.56 108.63C288.071 104.814 293.135 103.582 291.396 80.7913C292.137 87.5289 292.246 94.7734 292.579 100.17C294.198 126.281 287.934 136.714 261.246 126.641Z" fill="#93BEE5"/>
<path d="M245.95 80.775C246.92 76.4141 241.436 76.6049 241.436 76.6049C241.922 72.582 236.59 71.4645 235.358 75.3948C231.025 74.0865 229.657 75.3948 229.024 77.6734L245.95 80.775Z" fill="#C0B8B8"/>
<path d="M238.558 77.0245C239.272 77.0245 239.85 76.4461 239.85 75.7326C239.85 75.0191 239.272 74.4407 238.558 74.4407C237.845 74.4407 237.266 75.0191 237.266 75.7326C237.266 76.4461 237.845 77.0245 238.558 77.0245Z" fill="#F9F9F9" stroke="#C0B8B8" stroke-linecap="round" stroke-linejoin="round"/>
<path d="M220.793 74.4355L212.703 118.301L244.821 124.788L253.451 80.8624L220.793 74.4355Z" fill="#F9F9F9" stroke="#C0B8B8" stroke-linecap="round" stroke-linejoin="round"/>
<path d="M230.687 103.501C229.051 107.769 228.953 112.255 229.705 113.755C229.705 113.755 232.769 114.327 235.833 106.014L230.687 103.501Z" fill="#93BEE5"/>
<path d="M234.846 95.2479C227.498 92.7241 223.987 91.1977 222.663 90.838C221.338 90.4782 216.552 90.0748 215.789 90.838C215.026 91.6011 214.971 92.5714 215.244 93.5635C215.516 94.5556 214.698 95.3242 214.584 96.3491C214.469 97.3739 215.701 97.6846 215.451 98.704C215.2 99.7233 214.36 100.841 214.938 101.975C215.516 103.108 214.393 104.264 215.451 105.638C216.508 107.011 227.345 107.677 229.722 107.17L234.388 109.257C234.388 109.257 242.597 100.824 234.846 95.2479Z" fill="#B25E47"/>
<path d="M222.663 90.838C221.338 90.4837 216.552 90.0749 215.789 90.838C215.026 91.6012 214.971 92.5715 215.244 93.5636C215.516 94.5557 214.698 95.3243 214.584 96.3491C214.469 97.3739 215.701 97.6846 215.451 98.704C215.2 99.7234 214.36 100.841 214.938 101.975C215.516 103.109 214.393 104.264 215.451 105.638" stroke="#934735" stroke-width="0.75" stroke-linecap="round" stroke-linejoin="round"/>
<path d="M278.739 124.782C276.825 128.238 272.039 129.901 262.93 127.159C260.477 126.417 258.111 125.649 255.844 124.869C252.093 123.583 248.632 122.269 245.53 121.01C240.126 118.862 234.835 116.438 229.678 113.749C231.048 112.239 232.154 110.508 232.949 108.63C233.445 107.519 233.853 106.371 234.17 105.196C235.017 101.95 235.244 98.573 234.841 95.2424C236.078 95.6131 237.408 95.9947 238.809 96.3763C242.194 97.303 245.988 98.2624 249.831 99.2708C261.349 102.307 273.331 105.785 276.247 110.108C276.515 110.506 276.793 110.904 277.011 111.318C277.103 111.481 277.201 111.645 277.289 111.814C277.315 111.856 277.339 111.899 277.359 111.945C277.468 112.141 277.572 112.343 277.67 112.539C277.855 112.893 278.019 113.248 278.177 113.602C279.894 117.538 280.379 121.822 278.739 124.782Z" fill="#A7CAF0"/>
<path d="M234.846 95.2478C248.038 99.2217 271.957 103.752 276.274 110.113C277.023 111.216 277.669 112.386 278.204 113.607" stroke="#83ADDF" stroke-width="0.75" stroke-linecap="round" stroke-linejoin="round"/>
<path d="M238.809 96.3765C239.627 104.646 235.358 112.583 235.358 112.583" stroke="#83ADDF" stroke-width="0.75" stroke-linecap="round" stroke-linejoin="round"/>
<path d="M278.733 124.788C276.82 128.244 272.034 129.906 262.925 127.164C260.472 126.423 258.106 125.654 255.838 124.875C261.186 126.281 273.783 129.001 278.733 124.788Z" fill="#93BEE5"/>
<path d="M249.433 27.9753L249.657 29.9595C245.05 37.1441 238.754 39.4063 235.173 39.3736C229.253 37.8963 227.231 32.5651 226.887 26.836C226.803 25.4781 226.803 24.1164 226.887 22.7585C227.152 18.8779 227.805 15.0337 228.839 11.2839C228.839 11.2839 246.62 3.00906 247.852 19.6187C247.852 19.6187 251.668 18.9209 252.371 23.1619C252.971 26.6834 249.433 27.9753 249.433 27.9753Z" fill="#B25E47"/>
<path d="M229.744 22.7806C230.135 22.7806 230.452 22.4633 230.452 22.0719C230.452 21.6806 230.135 21.3633 229.744 21.3633C229.352 21.3633 229.035 21.6806 229.035 22.0719C229.035 22.4633 229.352 22.7806 229.744 22.7806Z" fill="#683F1D"/>
<path d="M234.693 21.8753C235.085 21.8753 235.402 21.558 235.402 21.1667C235.402 20.7753 235.085 20.458 234.693 20.458C234.302 20.458 233.984 20.7753 233.984 21.1667C233.984 21.558 234.302 21.8753 234.693 21.8753Z" fill="#683F1D"/>
<path d="M233.625 17.3455C233.701 18.3158 237.015 18.692 237.206 18.1414C237.473 17.3128 233.434 15.0724 233.625 17.3455Z" fill="#604730"/>
<path d="M227.296 18.7956C227.296 19.3407 230.899 19.5642 230.768 17.7054C230.681 16.3589 227.372 17.3347 227.296 18.7956Z" fill="#604730"/>
<path d="M246.931 24.8845C248.414 22.7041 250.747 22.933 251.003 23.3473" stroke="#934735" stroke-width="0.75" stroke-linecap="round" stroke-linejoin="round"/>
<path d="M247.563 24.1377C249.744 22.8512 250.943 25.7349 248.174 25.7349" stroke="#934735" stroke-width="0.75" stroke-linecap="round" stroke-linejoin="round"/>
<path d="M231.657 20.0112C232.257 21.1723 232.202 21.8755 231.81 22.6223C231.417 23.3691 230.212 25.0699 230.839 26.5799" stroke="#934735" stroke-width="0.75" stroke-linecap="round" stroke-linejoin="round"/>
<path d="M235.538 26.8359C234.993 28.6403 232.845 29.7686 231.848 29.5615C231.848 29.5615 232.878 32.3579 234.693 31.6438C236.781 30.7989 235.538 26.8359 235.538 26.8359Z" fill="white" stroke="#934735" stroke-width="0.75" stroke-linecap="round" stroke-linejoin="round"/>
<path d="M246.604 27.4521C247.012 27.7399 247.477 27.9374 247.968 28.0314C248.458 28.1254 248.963 28.1138 249.449 27.9973" stroke="#934735" stroke-width="0.75" stroke-linecap="round" stroke-linejoin="round"/>
<path d="M253.069 17.9234C255.108 20.7252 252.039 21.9408 252.039 21.9408C251.729 21.482 251.319 21.0999 250.839 20.8234C250.538 20.6456 250.202 20.5367 249.853 20.5044C249.505 20.4721 249.154 20.5172 248.825 20.6365C248.497 20.7558 248.198 20.9463 247.952 21.1944C247.705 21.4426 247.517 21.7421 247.4 22.0717C243.219 22.1589 245.023 18.8937 245.023 18.8937C241.273 20.3927 241.153 16.5497 242.766 14.8162C239.839 18.0869 236.121 14.8162 236.726 11.8562C235.691 15.0888 232 15.2141 232.491 12.5322C232.174 13.0832 231.79 13.5923 231.346 14.0476C228.811 16.5987 226.533 13.8732 227.492 11.8671C223.676 15.4976 222.041 11.4365 225.666 9.25605C222.793 6.90116 226.211 3.54326 228.506 5.28762C227.961 1.1066 232.278 0.926713 234.17 3.36337C234.911 -1.22649 240.646 1.28104 240.875 3.45604C245.099 0.501523 248.37 2.67653 247.961 7.47898C249.667 5.19495 253.325 6.53593 251.919 12.385C255.429 12.1343 256.023 16.4897 253.069 17.9234Z" fill="#604730"/>
<path d="M250.839 20.8234C250.538 20.6457 250.201 20.5367 249.853 20.5044C249.505 20.4721 249.154 20.5172 248.825 20.6365C248.496 20.7558 248.198 20.9464 247.952 21.1945C247.705 21.4426 247.517 21.7422 247.4 22.0717C243.219 22.1589 245.023 18.8937 245.023 18.8937C241.273 20.3928 241.153 16.5497 242.766 14.8163C239.839 18.0869 236.121 14.8163 236.726 11.8563C235.691 15.0888 232 15.2142 232.491 12.5322C232.174 13.0833 231.79 13.5924 231.346 14.0476C230.321 10.946 232.616 6.85215 236.121 8.70554C236.585 6.20892 242.314 4.58993 242.281 10.886C244.402 7.92602 249.204 8.93993 246.931 14.5873C248.719 13.2518 252.829 15.5631 250.839 20.8234Z" fill="#473526"/>
<path d="M243.137 21.9191C243.644 22.933 242.69 24.4321 241.011 25.277C239.332 26.1219 237.555 25.9802 237.048 24.9663C236.541 23.9524 237.49 22.4533 239.174 21.6084C240.858 20.7635 242.63 20.9052 243.137 21.9191Z" fill="#A0503D"/>
<path d="M229.111 25.7731C228.85 26.4872 227.972 26.8633 226.893 26.8633C226.808 25.5055 226.808 24.1437 226.893 22.7859C228.495 23.4673 229.482 24.7592 229.111 25.7731Z" fill="#A0503D"/>
<path d="M244.309 139.625V221H128.276V139.625C128.272 138.547 128.482 137.478 128.893 136.481C129.304 135.484 129.908 134.579 130.671 133.816C131.433 133.054 132.339 132.449 133.336 132.038C134.333 131.627 135.402 131.418 136.48 131.421H236.105C237.183 131.418 238.252 131.627 239.249 132.038C240.246 132.449 241.151 133.054 241.914 133.816C242.676 134.579 243.281 135.484 243.692 136.481C244.103 137.478 244.312 138.547 244.309 139.625Z" stroke="#EDEDED" stroke-width="2" stroke-linecap="round" stroke-linejoin="round"/>
<path d="M244.309 139.625V139.996H128.276V139.625C128.272 138.547 128.482 137.478 128.893 136.481C129.304 135.484 129.908 134.579 130.671 133.816C131.433 133.054 132.339 132.449 133.336 132.038C134.333 131.627 135.402 131.418 136.48 131.421H236.105C237.183 131.418 238.252 131.627 239.249 132.038C240.246 132.449 241.151 133.054 241.914 133.816C242.676 134.579 243.281 135.484 243.692 136.481C244.103 137.478 244.312 138.547 244.309 139.625Z" stroke="#C0B8B8" stroke-width="2" stroke-linecap="round" stroke-linejoin="round"/>
<path d="M228.604 135.706C228.604 136.001 228.517 136.29 228.352 136.536C228.188 136.781 227.955 136.973 227.682 137.086C227.409 137.199 227.109 137.229 226.819 137.171C226.529 137.113 226.263 136.971 226.054 136.762C225.846 136.553 225.703 136.287 225.646 135.997C225.588 135.708 225.618 135.407 225.731 135.134C225.844 134.862 226.035 134.628 226.281 134.464C226.526 134.3 226.815 134.212 227.111 134.212C227.507 134.212 227.887 134.37 228.167 134.65C228.447 134.93 228.604 135.31 228.604 135.706Z" fill="#EDEDED"/>
<path d="M231.978 137.2C232.803 137.2 233.472 136.531 233.472 135.706C233.472 134.881 232.803 134.212 231.978 134.212C231.153 134.212 230.485 134.881 230.485 135.706C230.485 136.531 231.153 137.2 231.978 137.2Z" fill="#C0B8B8"/>
<path d="M236.852 137.2C237.677 137.2 238.345 136.531 238.345 135.706C238.345 134.881 237.677 134.212 236.852 134.212C236.027 134.212 235.358 134.881 235.358 135.706C235.358 136.531 236.027 137.2 236.852 137.2Z" fill="#EDEDED"/>
<path d="M135.117 178.939C131.803 169.127 131.023 163.828 131.928 163.071C132.473 162.591 133.384 162.237 133.455 161.266C133.525 160.296 132.413 157.036 136.295 156.273C136.295 156.273 137.608 148.581 138.857 144.978C138.857 144.978 145.79 172.577 146.276 174.649C146.761 176.72 137.368 185.633 135.117 178.939Z" fill="#FEBD9D"/>
<path d="M136.295 156.273C136.041 157.508 135.859 158.756 135.75 160.012" stroke="#EF8A66" stroke-width="0.75" stroke-linecap="round" stroke-linejoin="round"/>
<path d="M131.688 165.971C131.487 164.335 131.585 163.365 131.934 163.071C132.479 162.591 133.389 162.237 133.46 161.266C133.531 160.296 132.419 157.036 136.3 156.273C136.3 156.273 137.614 148.581 138.862 144.978" stroke="#EF8A66" stroke-width="0.75" stroke-linecap="round" stroke-linejoin="round"/>
<path d="M168.829 128.47L138.452 137.037C136.679 137.537 135.647 139.38 136.147 141.154L142.043 162.061C142.544 163.834 144.387 164.866 146.16 164.366L176.537 155.799C178.31 155.299 179.342 153.456 178.842 151.683L172.946 130.775C172.446 129.002 170.603 127.97 168.829 128.47Z" fill="#F9F9F9" stroke="#C0B8B8" stroke-linecap="round" stroke-linejoin="round"/>
<path d="M167.329 131.523L141.337 138.853C140.164 139.184 139.481 140.404 139.812 141.577L144.948 159.788C145.279 160.961 146.498 161.644 147.672 161.313L173.663 153.983C174.836 153.652 175.519 152.432 175.188 151.259L170.053 133.048C169.722 131.875 168.502 131.192 167.329 131.523Z" stroke="#EDEDED" stroke-linecap="round" stroke-linejoin="round"/>
<path d="M159.795 149.143C159.803 149.297 159.803 149.452 159.795 149.606C159.71 150.779 159.301 151.905 158.612 152.858C157.923 153.811 156.983 154.553 155.896 155.002C154.809 155.45 153.618 155.587 152.458 155.397C151.298 155.206 150.213 154.696 149.326 153.924C148.44 153.152 147.785 152.148 147.437 151.025C147.089 149.902 147.061 148.704 147.355 147.566C147.65 146.427 148.256 145.394 149.105 144.58C149.954 143.767 151.013 143.207 152.163 142.961C152.592 142.864 153.031 142.817 153.471 142.82C154.302 142.819 155.126 142.982 155.894 143.299C156.662 143.617 157.36 144.082 157.948 144.67C158.536 145.257 159.003 145.954 159.322 146.722C159.64 147.489 159.805 148.312 159.806 149.143H159.795Z" stroke="#EDEDED" stroke-linecap="round" stroke-linejoin="round"/>
<path d="M159.773 149.59C159.697 150.639 159.361 151.653 158.795 152.54C158.229 153.426 157.451 154.158 156.531 154.668C155.611 155.178 154.578 155.451 153.526 155.462C152.474 155.473 151.436 155.221 150.506 154.73C151.733 152.25 153.444 148.734 153.444 148.734L159.773 149.59Z" stroke="#EDEDED" stroke-linecap="round" stroke-linejoin="round"/>
<path d="M159.795 149.143C159.803 149.297 159.803 149.452 159.795 149.606L153.482 148.767L158.258 144.989C159.257 146.141 159.803 147.618 159.795 149.143Z" stroke="#EDEDED" stroke-linecap="round" stroke-linejoin="round"/>
<path d="M158.236 144.989L153.46 148.767C153.46 148.767 152.643 145.262 152.152 142.961C152.581 142.864 153.02 142.817 153.46 142.82C154.365 142.819 155.26 143.012 156.084 143.386C156.907 143.76 157.641 144.307 158.236 144.989Z" fill="#C0B8B8" stroke="#C0B8B8" stroke-linecap="round" stroke-linejoin="round"/>
<path d="M166.984 146.821C168.178 146.401 167.077 145.79 167.868 145.452C169.023 144.962 169.399 137.821 164.264 139.287C160.372 140.377 163.207 146.728 165.115 146.145C165.633 145.987 165.616 147.306 166.984 146.821Z" fill="#F9F9F9" stroke="#C0B8B8" stroke-linecap="round" stroke-linejoin="round"/>
<path d="M165.583 141.588C165.076 142.498 165.48 143.136 166.308 143.441C167.698 143.959 165.632 145.589 165.18 144.695C164.684 143.714 167.399 144.368 166.815 146.57" stroke="#C0B8B8" stroke-linecap="round" stroke-linejoin="round"/>
<path d="M166.374 148.282C166.723 149.116 167.154 149.263 167.813 149.072C168.473 148.881 168.5 148.423 168.326 147.758L166.374 148.282Z" fill="#F9F9F9" stroke="#EDEDED" stroke-linecap="round" stroke-linejoin="round"/>
<path d="M165.813 147.753C166.129 147.207 167.993 146.875 168.255 146.935C168.516 146.995 168.751 147.753 168.407 147.949C167.687 148.27 166.919 148.471 166.134 148.543C166.056 148.52 165.983 148.479 165.922 148.424C165.861 148.369 165.814 148.301 165.783 148.225C165.752 148.149 165.739 148.067 165.744 147.986C165.749 147.904 165.773 147.824 165.813 147.753Z" fill="#F9F9F9" stroke="#EDEDED" stroke-linecap="round" stroke-linejoin="round"/>
<path d="M165.453 146.739C165.791 146.194 167.797 145.856 168.053 145.921C168.391 146.003 168.598 146.739 168.222 146.93C167.449 147.252 166.631 147.453 165.796 147.524C165.716 147.503 165.642 147.464 165.58 147.411C165.517 147.357 165.467 147.29 165.434 147.215C165.401 147.139 165.385 147.057 165.389 146.975C165.392 146.892 165.414 146.812 165.453 146.739Z" fill="#F9F9F9" stroke="#EDEDED" stroke-linecap="round" stroke-linejoin="round"/>
<path d="M159.059 141.108L160.716 141.217" stroke="#EDEDED" stroke-linecap="round" stroke-linejoin="round"/>
<path d="M162.319 136.06L163.044 137.657" stroke="#EDEDED" stroke-linecap="round" stroke-linejoin="round"/>
<path d="M167.982 136.48L167.399 137.657" stroke="#EDEDED" stroke-linecap="round" stroke-linejoin="round"/>
<path d="M140.094 160.552C137.788 164.679 139.614 169.623 142.4 170.969C145.186 172.316 146.336 163.768 146.668 161.61C147.001 159.451 147.006 156.186 147.246 154.551C147.486 152.915 145.949 151.623 144.94 154.12C143.932 156.617 143.452 158.143 143.452 158.143L140.094 160.552Z" fill="#FEBD9D"/>
<path d="M146.668 161.61C147.006 159.429 147.006 156.186 147.246 154.551C147.486 152.915 145.949 151.623 144.94 154.12C143.932 156.617 143.452 158.143 143.452 158.143L140.094 160.552" stroke="#EF8A66" stroke-width="0.75" stroke-linecap="round" stroke-linejoin="round"/>
<mask id="mask1_269_280" style="mask-type:luminance" maskUnits="userSpaceOnUse" x="128" y="131" width="117" height="90">
<path d="M244.309 139.625V221H128.276V139.625C128.272 138.547 128.482 137.478 128.893 136.481C129.304 135.484 129.908 134.579 130.671 133.816C131.433 133.054 132.339 132.449 133.336 132.038C134.333 131.627 135.402 131.418 136.48 131.421H236.105C237.183 131.418 238.252 131.627 239.249 132.038C240.246 132.449 241.151 133.054 241.914 133.816C242.676 134.579 243.281 135.484 243.692 136.481C244.103 137.478 244.312 138.547 244.309 139.625Z" fill="white"/>
</mask>
<g mask="url(#mask1_269_280)">
<path d="M214.546 144.498L212.692 167.938L192.392 169.852C194.131 164.329 195.531 158.706 196.584 153.013C197.042 150.555 197.456 147.943 197.772 145.278L205.251 144.934L214.546 144.498Z" fill="#FEBD9D"/>
<path d="M206.914 147.142C206.085 150.359 201.545 152.637 196.617 153.002C197.075 150.544 197.489 147.933 197.805 145.267L205.284 144.924C206.456 145.442 207.143 146.161 206.914 147.142Z" fill="#F4A789"/>
<path d="M246.075 169.841V224.38H241.845C241.845 224.38 239.348 214.486 228.599 193.75C228.599 193.75 228.391 194.671 227.972 196.268C227.394 198.481 226.407 201.981 225.006 206.14C222.644 213.293 219.603 220.204 215.925 226.778C208.169 230.1 199.988 232.328 191.618 233.396C191.389 233.396 191.155 233.456 190.92 233.477C182.58 234.508 172.899 234.513 163.076 231.984C156.976 230.439 151.155 227.95 145.823 224.608C146.117 224.129 159.38 198.165 163.512 189.814C163.834 189.165 164.155 188.533 164.482 187.906C168.363 180.487 173.019 174.72 185.589 169.841C188.505 168.718 191.067 167.72 193.313 166.848C201.594 163.637 205.72 162.051 208.249 161.299C210.037 160.768 211.736 160.272 213.346 159.811C228.838 155.363 236.524 154.322 243.039 164.259C244.183 166.045 245.197 167.91 246.075 169.841Z" fill="#FED81D"/>
<path d="M243.039 164.259C237.675 163.932 230.926 165.409 227.111 173.809C220.062 189.312 206.151 195.805 195.952 185.867C187.939 178.067 174.284 179.081 164.482 187.906C168.364 180.487 173.019 174.72 185.589 169.841C188.506 168.718 191.068 167.72 193.313 166.848C201.594 163.637 205.72 162.051 208.25 161.299C210.038 160.768 211.736 160.272 213.346 159.811C228.839 155.363 236.525 154.322 243.039 164.259Z" fill="#FFE05C"/>
<path d="M246.075 209.64V224.358H241.845C241.845 224.358 239.348 214.464 228.599 193.728C229.215 191.335 229.689 189.029 230.07 186.985C237.015 190.026 237.609 196.464 236.852 200.1C236.148 203.485 239.719 211.782 246.075 209.64Z" fill="#FCC71F"/>
<path d="M188.244 197.473C187.154 203.175 182.406 213.172 173.929 227.454C172.627 229.525 171.147 231.481 169.508 233.297C167.343 232.972 165.196 232.535 163.076 231.989L165.758 224.385C167.279 218.503 170.119 215.881 176.235 214.704C181.664 213.652 177.118 197.047 188.244 197.473Z" fill="#FCC71F"/>
<path d="M160.934 242.074C160.934 242.074 165.529 237.865 169.508 233.292C171.148 231.475 172.627 229.52 173.929 227.448C182.406 213.172 187.148 203.174 188.244 197.467C188.586 195.701 188.577 194.347 188.217 193.406" stroke="#F7AD2B" stroke-width="0.75" stroke-linecap="round" stroke-linejoin="round"/>
<path d="M231.15 179.522C231.15 179.522 230.861 182.656 230.06 187.006C229.689 189.05 229.204 191.367 228.588 193.749" stroke="#F7AD2B" stroke-width="0.75" stroke-linecap="round" stroke-linejoin="round"/>
<path d="M165.752 212.142C165.954 225.252 150.991 238.471 142.787 222.248C139.358 215.472 130.794 183.85 131.394 179.522C131.939 175.668 143.212 167.088 147.84 168.767C147.84 168.767 149.775 173.858 152.435 180.356C155.821 188.625 160.378 199.19 163.583 204.434C164.983 206.762 165.732 209.424 165.752 212.142Z" fill="#FED81D"/>
<path d="M159.795 197.227C158.018 200.743 155.979 204.794 153.984 208.675C152.626 206.195 152.381 202.542 155.27 199.135C158.944 194.813 147.442 187.268 152.436 180.345C154.627 185.709 157.309 192.016 159.795 197.227Z" fill="#FCC71F"/>
<path d="M159.865 197.091C159.865 197.135 159.816 197.178 159.794 197.227C158.017 200.743 155.979 204.794 153.984 208.675L152.114 212.343" stroke="#F7AD2B" stroke-width="0.75" stroke-linecap="round" stroke-linejoin="round"/>
</g>
<path d="M192.643 133.28C189.918 143.119 187.492 148.505 204.276 149.606C204.276 149.606 214.927 137.614 213.477 120.203C213.477 120.203 203.987 112.571 195.767 127.436C195.767 127.436 192.752 128.592 192.409 129.001C192.065 129.41 192.294 131.95 192.643 133.28Z" fill="#FEBD9D"/>
<path d="M195.766 127.436C195.766 127.436 192.752 128.592 192.408 129.001C192.065 129.41 192.294 131.95 192.643 133.28" stroke="#EF8A66" stroke-width="0.75" stroke-linecap="round" stroke-linejoin="round"/>
<path d="M198.061 129.546C198.453 129.546 198.77 129.229 198.77 128.837C198.77 128.446 198.453 128.129 198.061 128.129C197.67 128.129 197.353 128.446 197.353 128.837C197.353 129.229 197.67 129.546 198.061 129.546Z" fill="#5C1A55"/>
<path d="M198.678 123.103C200.084 122.127 202.553 127.807 200.765 127.785C200.046 127.785 196.966 124.291 198.678 123.103Z" fill="#BF8228"/>
<path d="M228.599 171.149C227.77 179.239 223.813 182.46 224.581 185.191C225.35 187.922 227.242 187.328 227.242 187.328C227.242 187.328 225.737 191.689 219.964 189.95C219.964 189.95 214.917 197.658 210.152 192.131C205.846 198.012 196.77 199.217 196.492 191.149C196.492 191.149 199.997 192.027 201.785 189.754C203.573 187.481 203.965 183.692 202.025 181.697C200.084 179.702 197.266 177.707 197.086 174.376C196.906 171.046 199.365 165.202 202.935 160.857C202.935 160.857 188.686 156.84 187.634 169.034L184.788 170.124C184.788 170.124 181.752 168.658 181.823 163.757C181.894 158.857 186.369 155.259 191.242 155.346C196.116 155.434 207.874 153.319 202.145 138.475C202.145 138.475 206.822 140.187 208.043 136.442C209.264 132.697 205.028 130.702 202.592 132.795C202.592 132.795 200.596 129.715 206.511 122.934C205.851 120.786 203.567 120.208 204.549 118.028C205.344 116.273 210.338 116.273 214.088 117.03C214.893 117.19 215.686 117.409 216.459 117.684C218.608 118.448 220.479 119.835 221.834 121.669C222.646 122.754 223.182 124.021 223.393 125.36C223.932 125.138 224.512 125.034 225.094 125.054C226.271 125.098 227.71 125.758 228.223 128.51C228.97 132.495 226.239 134.507 224.407 135.428C223.897 135.681 223.364 135.884 222.815 136.033C223.216 137.281 223.4 138.588 223.36 139.898C223.337 140.753 223.222 141.602 223.017 142.433C222.237 145.545 220.548 150.964 221.294 154.73C221.377 155.187 221.508 155.633 221.687 156.06C223.219 159.8 229.428 163.06 228.599 171.149Z" fill="#BF8228"/>
<path d="M224.385 135.455C223.875 135.708 223.342 135.911 222.793 136.06C222.793 136.06 220.237 136.682 219.223 132.212C218.41 128.63 220.422 126.215 223.393 125.387C223.932 125.165 224.511 125.061 225.094 125.082C219.719 129.764 222.33 133.569 224.385 135.455Z" fill="#B57724"/>
<path d="M228.599 171.149C227.77 179.239 223.813 182.46 224.581 185.191C225.35 187.922 227.242 187.328 227.242 187.328C227.242 187.328 225.737 191.689 219.964 189.95C219.964 189.95 214.917 197.658 210.152 192.131C205.846 198.012 196.77 199.217 196.492 191.149C196.492 191.149 199.997 192.027 201.785 189.754C203.573 187.481 203.965 183.692 202.025 181.697C200.084 179.702 197.266 177.707 197.086 174.376C196.906 171.046 199.365 165.202 202.935 160.857C202.935 160.857 188.686 156.84 187.634 169.034L184.788 170.124C184.788 170.124 181.752 168.658 181.823 163.757C181.894 158.857 186.369 155.259 191.242 155.346C196.116 155.434 207.874 153.319 202.145 138.475C202.145 138.475 206.822 140.187 208.043 136.442C209.264 132.697 205.028 130.702 202.592 132.795C202.592 132.795 200.596 129.715 206.511 122.934C205.851 120.786 203.567 120.208 204.549 118.028C205.344 116.273 210.338 116.273 214.088 117.03C211.58 118.568 209.902 120.982 211.297 124.76C214.726 134.027 213.761 138.486 210.79 142.444C207.819 146.401 204.461 154.436 207.318 160.857C210.174 167.279 205.977 164.324 207.236 177.031C208.495 189.738 224.571 181.997 224.069 171.645C223.617 162.291 217.942 159.146 221.251 154.747C221.333 155.203 221.465 155.649 221.643 156.077C223.219 159.8 229.428 163.06 228.599 171.149Z" fill="#B57724"/>
<path d="M202.51 135.035C204.069 134.065 205.546 134.152 206.402 134.768" stroke="#EF8A66" stroke-width="0.75" stroke-linecap="round" stroke-linejoin="round"/>
<path d="M202.646 136.556C204.941 137.543 205.372 134.588 203.496 134.55" stroke="#EF8A66" stroke-width="0.75" stroke-linecap="round" stroke-linejoin="round"/>
<path d="M214.486 121.816C216.999 122.601 220.76 126.553 220.76 126.553" stroke="#9B621F" stroke-width="0.75" stroke-linecap="round" stroke-linejoin="round"/>
<path d="M223.393 125.387C220.422 126.21 218.41 128.63 219.223 132.212C220.237 136.682 222.793 136.06 222.793 136.06" stroke="#9B621F" stroke-width="0.75" stroke-linecap="round" stroke-linejoin="round"/>
<path d="M220.122 127.442C222.423 126.521 225.17 126.128 226.217 129.039C227.263 131.95 225.732 134.207 223.393 135.87" stroke="#9B621F" stroke-width="0.75" stroke-linecap="round" stroke-linejoin="round"/>
<path d="M208.55 129.219C213.238 130.625 219.174 130.255 219.174 130.255" stroke="#9B621F" stroke-width="0.75" stroke-linecap="round" stroke-linejoin="round"/>
<path d="M209.841 137.352C213.935 138.361 219.108 135.39 219.926 134.212" stroke="#9B621F" stroke-width="0.75" stroke-linecap="round" stroke-linejoin="round"/>
<path d="M219.086 131.421C219.751 129.59 221.632 128.385 223.028 130.195C224.423 132.004 222.33 133.923 220.635 131.923" stroke="#9B621F" stroke-width="0.75" stroke-linecap="round" stroke-linejoin="round"/>
<path d="M202.94 160.885C206.909 156.202 210.256 152.463 208.555 145.703" stroke="#9B621F" stroke-width="0.75" stroke-linecap="round" stroke-linejoin="round"/>
<path d="M210.185 192.158C212.589 188.484 208.877 183.087 208.31 179.528C207.743 175.968 207.617 171.504 212.087 166.657" stroke="#9B621F" stroke-width="0.75" stroke-linecap="round" stroke-linejoin="round"/>
<path d="M216.219 150.625C219.555 159.113 220.079 160.481 218.269 166.837C216.459 173.193 215.369 176.344 218.269 180.879C221.49 185.905 220.482 187.726 219.959 189.95" stroke="#9B621F" stroke-width="0.75" stroke-linecap="round" stroke-linejoin="round"/>
<path d="M201.425 132.555C201.638 133.711 200.531 134.883 198.961 135.166C197.391 135.45 195.947 134.746 195.734 133.585C195.521 132.424 196.628 131.258 198.198 130.974C199.768 130.691 201.212 131.394 201.425 132.555Z" fill="#F4AF90"/>
<path d="M244.309 153.297V221H128.276" stroke="#EDEDED" stroke-width="2" stroke-linecap="round" stroke-linejoin="round"/>
<path d="M105.092 103.215C97.7846 99.566 90.6959 95.4946 83.8618 91.0216C82.257 90.0167 80.8621 89.1318 79.6173 88.4119C75.3212 86.6475 71.4355 84.0154 68.2035 80.6803C58.9346 70.7214 63.5241 59.0302 77.1425 61.7224H77.2775C77.57 61.8649 77.8625 62.0149 78.1624 62.1798C79.5723 62.9297 81.1621 63.9796 82.9469 65.1795C85.5416 66.9643 88.4363 69.1241 91.3834 71.4488C100.547 78.663 110.281 87.347 113.356 90.4067C120.068 97.0809 117.173 109.057 105.092 103.215Z" fill="#A7CAF0"/>
<path d="M83.8616 91.0216C82.2567 90.0167 80.8619 89.1318 79.617 88.4119C78.0967 87.7499 76.6168 86.9986 75.1851 86.1621" stroke="#83ADDF" stroke-width="0.71" stroke-linecap="round" stroke-linejoin="round"/>
<path d="M82.9544 65.1945C82.4294 65.292 81.897 65.397 81.3721 65.547C79.0094 66.1099 76.8305 67.2692 75.0436 68.9143C73.2568 70.5594 71.9216 72.6352 71.1657 74.9434C70.4368 76.9784 69.4407 78.9076 68.2035 80.6803C58.9346 70.7214 63.5241 59.0302 77.1425 61.7224H77.2775C77.57 61.8649 77.8625 62.0149 78.1624 62.1798C79.5798 62.9822 81.1996 63.9721 82.9544 65.1945Z" fill="#C3DCF8"/>
<path d="M105.092 103.215C97.7844 99.5658 90.6957 95.4944 83.8616 91.0214C84.1765 82.0749 85.6764 74.5233 91.3607 71.4636C100.525 78.6778 110.259 87.3618 113.333 90.4215C120.068 97.0807 117.173 109.057 105.092 103.215Z" fill="#B25E47"/>
<path d="M81.312 91.1715C82.9843 92.6713 86.3739 94.4711 87.2663 94.0962C87.2663 94.0962 84.9041 89.5967 88.1962 81.7525C91.4883 73.9084 94.308 72.3936 94.308 72.3936C94.308 72.3936 92.5607 69.7164 90.1235 69.1689C90.1235 69.1689 80.2246 74.0659 81.312 91.1715Z" fill="#83ADDF"/>
<path d="M107.634 104.235C112.681 108.735 119.843 106.777 128.977 89.5367C138.111 72.2961 139.333 69.1689 139.333 69.1689C139.333 69.1689 146.832 69.6639 147.5 68.674C148.167 67.6841 145.67 67.4066 144.013 66.7317C142.355 66.0568 141.92 65.4269 142.79 65.0369C143.66 64.647 149.794 64.5945 151.137 64.6395C152.479 64.6845 153.386 63.5296 153.192 62.8547C153.192 62.8547 155.344 63.1396 155.764 61.3548C156.041 60.155 153.311 60.6724 153.311 60.6724C153.311 60.6724 153.949 59.84 153.237 59.525C152.524 59.2101 141.74 59.36 138.778 59.6375C135.816 59.915 134.556 60.6724 131.234 64.272C127.912 67.8716 112.089 86.0196 109.749 89.2367C107.409 92.4538 102.242 99.3906 107.634 104.235Z" fill="#B25E47"/>
<path d="M115.359 82.4048C112.666 85.5694 110.507 88.1641 109.749 89.2065" stroke="#934735" stroke-width="0.71" stroke-linecap="round" stroke-linejoin="round"/>
<path d="M142.16 69.2812C144.373 69.3262 147.125 69.2812 147.5 68.6738C148.13 67.6839 145.67 67.4064 144.013 66.7315C142.355 66.0566 141.92 65.4267 142.79 65.0367C143.66 64.6468 149.795 64.5943 151.137 64.6393C152.479 64.6843 153.387 63.5294 153.192 62.8545C153.192 62.8545 155.344 63.1394 155.764 61.3546C156.041 60.1548 153.312 60.6722 153.312 60.6722C153.312 60.6722 153.949 59.8398 153.237 59.5248C151.609 59.3384 149.969 59.2783 148.332 59.3449" stroke="#934735" stroke-width="0.71" stroke-linecap="round" stroke-linejoin="round"/>
<path d="M139.333 69.1687L139.828 67.6389" stroke="#934735" stroke-width="0.71" stroke-linecap="round" stroke-linejoin="round"/>
<path d="M153.192 62.8545L144.778 63.042" stroke="#934735" stroke-width="0.71" stroke-linecap="round" stroke-linejoin="round"/>
<path d="M153.312 60.6423L144.59 61.3023" stroke="#934735" stroke-width="0.71" stroke-linecap="round" stroke-linejoin="round"/>
<path d="M57.8096 64.1895C59.8869 73.0535 52.2977 77.763 49.748 77.763C47.1983 77.763 37.3594 71.0588 39.7591 65.7119C41.7839 61.2124 46.6284 54.6056 46.8683 49.3412C47.1083 44.0768 52.0653 37.8225 57.0897 42.9369C58.1731 44.0129 58.8513 45.4303 59.0095 46.949C59.4894 51.0285 56.9922 56.0154 57.4347 61.7148C57.4951 62.5482 57.6205 63.3756 57.8096 64.1895Z" fill="#B25E47"/>
<path d="M57.4343 61.7224C50.3251 61.3474 49.8002 55.0256 52.3349 49.5437C53.7972 46.3866 56.4144 45.9441 59.0092 46.9565C59.4966 51.0286 56.9919 56.0155 57.4343 61.7224Z" fill="#914839"/>
<path d="M79.617 88.4118C77.4357 93.1312 75.6619 98.0285 74.3151 103.05C71.7354 112.222 70.7755 120.096 70.3706 121.266C69.9656 122.435 69.6206 122.668 64.3712 122.593C59.1218 122.518 26.178 122.593 26.178 122.593C26.178 122.593 27.8803 100.613 27.8728 91.1715C27.9013 89.9817 27.8461 88.7914 27.7078 87.6094C27.1004 83.9573 24.4532 74.9433 24.7082 69.8214C24.7982 68.0741 25.2256 66.7842 26.208 66.3043C30.3175 64.272 35.6495 63.4621 39.4215 63.3046C39.8565 63.3046 40.2764 63.3046 40.6664 63.3046C40.7482 63.3985 40.8187 63.5017 40.8764 63.6121C41.1538 64.077 41.4088 64.7519 41.8513 65.3819C42.8336 66.7767 45.9308 68.6365 47.9931 68.5315C50.0553 68.4265 49.7404 73.2785 50.9927 73.6459C52.2451 74.0134 52.3126 72.1461 52.68 69.5064C53.0475 66.8667 57.802 63.972 57.802 63.972C57.802 63.972 57.802 63.882 57.757 63.7396C57.712 63.5971 57.7195 63.5521 57.7045 63.4396C58.4544 63.0121 59.2043 62.6072 59.9917 62.2322C64.6187 59.9825 69.6431 58.6851 75.5975 61.0099L76.1524 61.2423C76.5124 61.3998 76.8498 61.5723 77.1723 61.7448C78.8854 62.6383 80.3395 63.9581 81.3943 65.5768C85.9613 72.6486 81.5218 83.9498 79.617 88.4118Z" fill="#A7CAF0"/>
<path d="M81.3719 65.5469C79.0092 66.1098 76.8303 67.2692 75.0435 68.9143C73.2566 70.5593 71.9214 72.6352 71.1655 74.9434C70.4366 76.9784 69.4405 78.9076 68.2034 80.6802C61.5441 90.2492 49.0805 93.4813 42.5413 84.1448C40.8857 81.7676 39.0317 79.5349 36.9994 77.4706C33.3848 73.8335 29.2752 71.0588 24.6558 69.8289C24.7458 68.0816 25.1732 66.7918 26.1556 66.3118C30.2651 64.2796 35.597 63.4697 39.3691 63.3122C39.8041 63.3122 40.224 63.3122 40.614 63.3122C40.6958 63.406 40.7663 63.5092 40.8239 63.6196C41.1014 64.0846 41.3564 64.7595 41.7988 65.3894C42.7812 66.7843 45.8784 68.6441 47.9406 68.5391C50.0029 68.4341 49.6879 73.2861 50.9403 73.6535C52.1927 74.021 52.2602 72.1537 52.6276 69.514C52.9951 66.8743 57.7495 63.9796 57.7495 63.9796C57.7495 63.9796 57.7495 63.8896 57.7045 63.7471C57.6595 63.6046 57.6671 63.5596 57.6521 63.4472C58.402 63.0197 59.1519 62.6148 59.9393 62.2398C64.5663 59.99 69.5907 58.6927 75.545 61.0174L76.1 61.2499C76.46 61.4074 76.7974 61.5799 77.1199 61.7523C78.8394 62.6312 80.3038 63.938 81.3719 65.5469Z" fill="#C3DCF8"/>
<path d="M42.5415 69.8287C42.5415 69.8287 48.8408 87.2042 52.3504 91.5312C52.3504 91.5312 56.7074 74.9656 57.0524 67.189" stroke="#683F1D" stroke-width="0.94" stroke-miterlimit="10"/>
<path d="M59.5943 72.3636C57.1046 71.8612 57.0596 68.539 54.8173 69.2215C52.5751 69.9039 54.3299 74.9433 50.9477 74.9433C47.5656 74.9433 49.013 70.4438 47.2657 70.3013C45.5184 70.1589 43.7036 72.7236 40.9664 74.0509C38.2292 75.3783 36.2194 65.4944 39.3615 63.2821C39.9615 62.8772 40.3064 62.9447 40.5839 63.2821C40.8614 63.6196 41.2138 64.5645 41.7688 65.3594C42.7511 66.7542 45.8483 68.614 47.9106 68.509C49.9728 68.404 49.6579 73.256 50.9102 73.6235C52.1626 73.9909 52.2301 72.1236 52.5975 69.4839C52.965 66.8442 57.7195 63.9495 57.7195 63.9495C57.7195 63.9495 57.6745 63.7246 57.622 63.4171C57.5395 62.9297 57.427 62.2172 57.397 61.7298C58.265 61.5703 59.1612 61.7415 59.9092 62.2097C60.3304 62.56 60.5993 63.0601 60.6591 63.6046C61.1466 66.0118 62.084 72.8585 59.5943 72.3636Z" fill="white"/>
<path d="M57.0593 91.1714H48.4802V104.49H57.0593V91.1714Z" fill="white" stroke="#683F1D" stroke-width="0.94" stroke-linecap="round" stroke-linejoin="round"/>
<path d="M27.8432 91.1714C25.8025 95.8278 23.4991 100.365 20.9439 104.76C17.6893 110.309 13.6548 116.009 9.69521 118.641C6.89052 120.493 4.10834 120.816 1.63361 118.476C1.26997 118.134 0.965863 117.733 0.733728 117.291C-1.95847 112.237 3.24593 101.153 8.42785 92.0413C12.1324 85.532 15.807 80.0426 16.5944 78.4453L27.8432 91.1714Z" fill="#B25E47"/>
<path d="M37.0971 76.2255C37.1014 76.6425 37.0688 77.0591 36.9996 77.4704C36.0772 83.5972 27.8281 91.1788 27.8281 91.1788L16.5793 78.4303C18.0352 75.1467 19.927 72.0744 22.2037 69.2963C23.2596 67.9889 24.6188 66.9592 26.1633 66.2966C31.7501 64.3093 36.9321 69.9712 37.0971 76.2255Z" fill="#A7CAF0"/>
<path d="M37.0969 76.2256C37.1013 76.6426 37.0687 77.0592 36.9994 77.4704C33.3848 73.8333 29.2753 71.0586 24.6558 69.8288C23.8411 69.6021 23.0117 69.4317 22.1736 69.3188C23.2295 68.0114 24.5887 66.9817 26.1331 66.3192C31.75 64.3094 36.9319 69.9713 37.0969 76.2256Z" fill="#C3DCF8"/>
<path d="M17.3814 74.9431C17.3814 74.9431 31.8923 90.9088 31.8398 91.1713C31.7873 91.4338 28.3077 94.8159 28.3077 94.8159C28.3077 94.8159 15.1167 80.41 15.1167 79.6751C15.1167 78.9402 16.6465 75.4381 17.3814 74.9431Z" fill="#83ADDF"/>
<path d="M53.6176 124.018H21.9112L14.7195 82.0151H46.4184L53.6176 124.018Z" fill="#F9F9F9" stroke="#C0B8B8" stroke-width="0.94" stroke-linecap="round" stroke-linejoin="round"/>
<path d="M36.1451 84.1447H25.7288L26.2987 80.0876H34.1803L36.1451 84.1447Z" fill="#C0B8B8"/>
<path d="M32.317 81.8438C33.2189 80.8613 33.0051 79.1976 31.8396 78.1277C30.6741 77.0578 28.9981 76.9869 28.0963 77.9694C27.1945 78.9518 27.4082 80.6156 28.5737 81.6855C29.7393 82.7554 31.4152 82.8262 32.317 81.8438Z" fill="#C0B8B8"/>
<path d="M31.3837 80.9867C31.8878 80.4375 31.7697 79.5087 31.1198 78.9121C30.4699 78.3156 29.5344 78.2772 29.0303 78.8264C28.5261 79.3756 28.6443 80.3044 29.2942 80.901C29.944 81.4975 30.8796 81.5359 31.3837 80.9867Z" fill="#F9F9F9" stroke="#C0B8B8" stroke-width="0.94" stroke-linecap="round" stroke-linejoin="round"/>
<path d="M53.1379 108.742C52.883 109.559 53.3104 109.657 53.4754 110.287C53.6346 110.823 53.6063 111.398 53.395 111.916C53.1836 112.434 52.802 112.865 52.313 113.137C51.4956 113.691 44.3114 113.601 42.5641 114.021C41.4018 114.299 33.9026 116.474 27.3933 118.521C24.0562 119.563 20.989 120.576 19.1443 121.273C13.7149 123.343 2.6911 123.958 0.726318 117.299C-0.338563 113.654 3.411 110.062 8.35295 107.662C11.9254 105.887 15.8393 104.905 19.8267 104.782C20.1566 104.782 20.5766 104.782 20.9665 104.782C26.6059 104.655 39.617 103.568 40.5919 103.515C41.5667 103.463 44.4839 101.625 46.7861 100.868C47.0807 100.758 47.3943 100.709 47.7083 100.723C48.0223 100.737 48.3302 100.815 48.6137 100.95C48.8972 101.086 49.1504 101.278 49.3582 101.513C49.566 101.749 49.7242 102.024 49.8233 102.323C49.8233 102.323 53.2729 100.523 54.0453 101.745C54.9677 103.193 53.003 104.302 53.4754 105.3C54.1878 106.837 53.4004 107.917 53.1379 108.742Z" fill="#B25E47"/>
<path d="M46.749 100.845C47.0436 100.736 47.3572 100.686 47.6712 100.701C47.9852 100.715 48.2931 100.792 48.5766 100.928C48.86 101.064 49.1132 101.255 49.3211 101.491C49.5289 101.727 49.6871 102.002 49.7862 102.3C49.7862 102.3 53.2358 100.5 54.0082 101.723C54.9306 103.17 52.9658 104.28 53.4383 105.277C54.1882 106.837 53.3858 107.917 53.1233 108.742C52.8608 109.567 53.2958 109.657 53.4608 110.287C53.62 110.823 53.5916 111.398 53.3803 111.916C53.169 112.434 52.7874 112.865 52.2984 113.137" stroke="#934735" stroke-width="0.71" stroke-linecap="round" stroke-linejoin="round"/>
<path d="M8.33032 107.654C11.9028 105.879 15.8167 104.897 19.804 104.775" stroke="#934735" stroke-width="0.71" stroke-linecap="round" stroke-linejoin="round"/>
<path d="M49.8008 102.3L46.3662 103.493" stroke="#934735" stroke-width="0.71" stroke-linecap="round" stroke-linejoin="round"/>
<path d="M63.0067 56.6528C65.6449 56.6528 67.7837 54.5141 67.7837 51.8758C67.7837 49.2376 65.6449 47.0989 63.0067 47.0989C60.3685 47.0989 58.2297 49.2376 58.2297 51.8758C58.2297 54.5141 60.3685 56.6528 63.0067 56.6528Z" stroke="#FED81D" stroke-width="0.94" stroke-linecap="round" stroke-linejoin="round"/>
<path d="M59.0696 56.8479C54.7951 57.7778 50.6781 53.1508 48.7658 50.2411C43.2764 41.8721 48.2333 32.5656 52.9728 32.1682C57.7123 31.7707 60.6819 35.2653 62.9467 42.487C63.0817 42.922 63.2016 43.3494 63.3066 43.7769C63.6203 45.0053 63.8161 46.2608 63.8916 47.5264C64.154 52.4309 62.3018 56.143 59.0696 56.8479Z" fill="#B25E47"/>
<path d="M49.6506 33.1503L42.4589 36.5249C41.184 38.0247 38.8518 38.5347 38.5143 36.5249C38.5143 36.5249 36.0696 38.3097 34.5473 36.0674C33.2949 34.2376 35.2372 32.8128 35.2372 32.8128C34.9784 32.8196 34.7215 32.7657 34.4873 32.6553C33.2724 32.0329 33.6774 29.8806 35.3722 30.3081C34.5471 30.0869 33.8397 29.5551 33.3979 28.824C32.9562 28.0929 32.8145 27.2193 33.0025 26.386C33.0594 25.9732 33.1994 25.5762 33.4141 25.2191C33.6288 24.8619 33.9137 24.552 34.2515 24.308C34.5894 24.0641 34.9732 23.8912 35.3798 23.7998C35.7864 23.7084 36.2073 23.7004 36.617 23.7763C35.5747 22.3215 36.617 20.3117 38.1694 21.2341C37.8169 18.2344 43.0588 16.8246 44.3337 20.1392C45.3761 18.7369 47.6633 19.0144 47.6333 21.6916C48.2707 19.5993 51.3304 19.9817 50.9254 22.9589C50.9254 22.9589 52.1178 21.1291 53.9251 24.0988C55.7324 27.0685 49.6506 33.1503 49.6506 33.1503Z" fill="#604730"/>
<path d="M49.6505 33.1504L42.4588 36.525C41.184 38.0248 38.8517 38.5347 38.5143 36.525C38.5143 36.525 36.0696 38.3098 34.5472 36.0675C33.2949 34.2377 35.2371 32.8129 35.2371 32.8129C36.3845 33.6828 36.4445 35.4976 38.3643 34.5602C40.2841 33.6228 37.1644 29.8957 38.9342 29.3108C40.704 28.7259 40.4341 31.838 41.8289 31.6355C43.2237 31.4331 36.8045 26.1986 40.4791 24.4438C44.1537 22.689 46.2159 26.4086 47.9332 26.8211C49.6505 27.2335 49.7405 22.5915 47.5958 21.6766C48.2332 19.5844 51.2928 19.9668 50.8879 22.944C50.8879 22.944 52.0802 21.1142 53.8875 24.0839C55.6948 27.0535 49.6505 33.1504 49.6505 33.1504Z" fill="#473526"/>
<path d="M60.0371 41.1444C60.0371 41.3294 60.1106 41.5068 60.2414 41.6376C60.3722 41.7684 60.5496 41.8419 60.7345 41.8419C60.9195 41.8419 61.0969 41.7684 61.2277 41.6376C61.3585 41.5068 61.4319 41.3294 61.4319 41.1444C61.4319 40.9595 61.3585 40.7821 61.2277 40.6513C61.0969 40.5205 60.9195 40.447 60.7345 40.447C60.5496 40.447 60.3722 40.5205 60.2414 40.6513C60.1106 40.7821 60.0371 40.9595 60.0371 41.1444Z" fill="#683F1D"/>
<path d="M57.0524 42.9144C57.4376 42.9144 57.7498 42.6021 57.7498 42.217C57.7498 41.8318 57.4376 41.5195 57.0524 41.5195C56.6672 41.5195 56.355 41.8318 56.355 42.217C56.355 42.6021 56.6672 42.9144 57.0524 42.9144Z" fill="#683F1D"/>
<path d="M58.1321 36.7273C58.1321 37.5822 61.3492 37.7997 61.5592 37.3047C61.7692 36.8098 58.1321 34.65 58.1321 36.7273Z" fill="#604730"/>
<path d="M52.3504 39.1196C52.3504 39.757 56.3474 38.7671 56.0999 37.2598C55.8525 35.7525 52.2904 38.0022 52.3504 39.1196Z" fill="#604730"/>
<path d="M58.5446 39.4495C58.4621 41.6992 59.647 42.2317 60.9068 42.7566C61.2317 42.9654 61.4661 43.2889 61.5634 43.6627C61.6607 44.0365 61.6137 44.4331 61.4318 44.7739" stroke="#934735" stroke-width="0.71" stroke-linecap="round" stroke-linejoin="round"/>
<path d="M56.8875 47.9088C58.2223 47.9913 61.4319 47.0989 61.4319 47.0989C61.4319 47.0989 61.432 48.7787 60.0371 49.1386C58.6423 49.4986 57.0974 48.6437 56.8875 47.9088Z" fill="white" stroke="#934735" stroke-width="0.71" stroke-linecap="round" stroke-linejoin="round"/>
<path d="M49.5159 49.5058C47.8961 51.1857 44.5964 51.7181 43.569 48.5984C42.3092 44.7739 47.2286 42.6516 49.2309 46.2062L49.5159 49.5058Z" fill="#B25E47"/>
<path d="M48.4655 50.3086C47.9201 50.6174 47.3132 50.8017 46.6882 50.8485" stroke="#934735" stroke-width="0.71" stroke-linecap="round" stroke-linejoin="round"/>
<path d="M44.8135 47.8788C45.1359 46.0265 47.3257 45.7941 47.9331 47.4439" stroke="#934735" stroke-width="0.71" stroke-linecap="round" stroke-linejoin="round"/>
<path d="M47.633 46.9042C45.6682 46.3492 45.3158 49.3489 47.7905 48.5615" stroke="#934735" stroke-width="0.71" stroke-linecap="round" stroke-linejoin="round"/>
<path d="M58.8445 34.8601C58.6363 34.8939 58.4234 34.8847 58.2189 34.8331C58.0144 34.7814 57.8226 34.6885 57.6553 34.5599C57.4881 34.4313 57.349 34.2699 57.2466 34.0855C57.1442 33.9011 57.0806 33.6977 57.0597 33.4878C56.8648 35.655 54.42 35.6925 53.6926 33.7652C53.6101 35.88 51.6078 36.105 50.8054 34.5151C51.7953 36.7199 49.643 37.5748 48.3307 37.1398C49.718 37.9498 49.5156 39.3296 48.0982 39.4646C48.4991 39.5484 48.8696 39.7401 49.1695 40.0189C49.4695 40.2977 49.6877 40.6532 49.8005 41.0469C50.093 42.3593 48.6982 43.4691 48.6982 43.4691C48.6982 43.4691 49.0956 43.3791 49.8605 44.4065C50.6254 45.4339 49.0431 46.3863 48.4882 46.0188C47.9333 45.6514 48.0832 44.519 46.9209 44.459C46.4839 44.4204 46.0435 44.4508 45.616 44.549C45.1243 44.6538 44.6693 44.8876 44.2976 45.2263C43.926 45.5649 43.6512 45.9964 43.5013 46.4763C41.828 44.1117 41.1571 41.1816 41.6347 38.3245C42.1122 35.4674 43.6996 32.9149 46.051 31.223C47.5121 30.2535 49.2625 29.8166 51.0079 29.9856C52.3161 30.0805 53.6014 30.3791 54.8175 30.8706C55.2224 31.028 55.4474 31.1405 55.4474 31.1405C55.4474 31.1405 55.3199 28.8908 57.5697 29.1007C60.0744 29.3332 58.8445 31.6805 58.8445 31.6805C60.4494 31.8979 60.4044 34.6276 58.8445 34.8601Z" fill="#604730"/>
<path d="M50.7979 44.4742C50.3255 45.4341 51.0604 46.7615 52.4477 47.4739C53.8351 48.1863 55.3424 47.9463 55.8148 46.9939C56.2873 46.0416 55.5524 44.6992 54.165 43.9943C52.7777 43.2894 51.2479 43.5293 50.7979 44.4742Z" fill="#A0503D"/>
<path d="M63.8914 47.5262C63.615 47.5656 63.3331 47.5355 63.0712 47.4387C62.8093 47.3418 62.5757 47.1811 62.3916 46.9712C61.7391 46.1538 62.1516 44.7215 63.314 43.7766C63.6251 45.0053 63.8184 46.2608 63.8914 47.5262Z" fill="#A0503D"/>
<path d="M45.6159 44.534C45.1242 44.6388 44.6692 44.8726 44.2975 45.2112C43.9259 45.5499 43.6511 45.9814 43.5012 46.4613C41.7764 34.7101 47.6182 31.0805 51.0003 29.9631C52.3085 30.058 53.5938 30.3566 54.8099 30.848C46.6508 31.208 45.3009 38.8121 45.6159 44.534Z" fill="#FED81D"/>
<path d="M51.3831 30.5107C51.0456 28.066 51.3006 23.7615 54.2252 21.5117C54.2252 21.5117 57.0524 28.366 52.253 30.5107H51.3831Z" fill="#FED81D"/>
<path d="M41.499 26.3786C44.9786 26.1236 49.2007 29.1083 50.3255 30.9906C50.318 30.9756 45.1661 34.1477 41.499 26.3786Z" fill="#FED81D"/>
<path d="M51.8704 30.0608C52.6172 28.9537 53.1136 27.6972 53.3252 26.3787" stroke="#F7AD2B" stroke-width="0.71" stroke-linecap="round" stroke-linejoin="round"/>
<path d="M45.7585 29.0708C46.546 29.3033 50.318 30.9906 50.318 30.9906" stroke="#F7AD2B" stroke-width="0.71" stroke-linecap="round" stroke-linejoin="round"/>
<path d="M50.0481 29.9559C51.458 29.026 52.7778 29.7759 52.8303 30.7058C52.8828 31.6357 50.5431 32.3106 49.9956 31.8082C49.8484 31.7006 49.7296 31.5588 49.6494 31.395C49.5692 31.2313 49.53 31.0505 49.5351 30.8682C49.5403 30.686 49.5897 30.5077 49.679 30.3487C49.7684 30.1898 49.8951 30.055 50.0481 29.9559Z" fill="#FED81D"/>
<path d="M50.0481 29.9559C51.458 29.026 52.7778 29.7759 52.8303 30.7058C52.8828 31.6357 50.5431 32.3106 49.9956 31.8082C49.8484 31.7006 49.7296 31.5588 49.6494 31.395C49.5692 31.2313 49.53 31.0505 49.5351 30.8682C49.5403 30.686 49.5897 30.5077 49.679 30.3487C49.7684 30.1898 49.8951 30.055 50.0481 29.9559Z" stroke="#F7AD2B" stroke-width="0.71" stroke-linecap="round" stroke-linejoin="round"/>
<path d="M43.9435 49.7686C42.7004 50.1688 41.6422 51.002 40.9615 52.1166C40.2808 53.2311 40.0228 54.553 40.2344 55.8417C40.4461 57.1304 41.1133 58.3004 42.1147 59.1387C43.1161 59.977 44.3852 60.4279 45.691 60.4096C46.9969 60.3912 48.2527 59.9046 49.2301 59.0384C50.2076 58.1723 50.8416 56.984 51.0168 55.6898C51.1921 54.3957 50.897 53.0816 50.1851 51.9867C49.4733 50.8917 48.3921 50.0887 47.1382 49.7236" stroke="#FED81D" stroke-width="0.94" stroke-linecap="round" stroke-linejoin="round"/>
</svg>
