<svg width="282" height="199" viewBox="0 0 282 199" fill="none" xmlns="http://www.w3.org/2000/svg">
<path d="M179.656 100.418H52.4794C51.0231 100.418 49.8425 101.598 49.8425 103.055V103.289C49.8425 104.745 51.0231 105.926 52.4794 105.926H179.656C181.112 105.926 182.293 104.745 182.293 103.289V103.055C182.293 101.598 181.112 100.418 179.656 100.418Z" stroke="#DDDDDD" stroke-width="2" stroke-miterlimit="10"/>
<path d="M178.751 6.90015H53.3838C51.428 6.90015 49.8425 8.48564 49.8425 10.4414V10.7629C49.8425 12.7187 51.428 14.3042 53.3838 14.3042H178.751C180.707 14.3042 182.293 12.7187 182.293 10.7629V10.4414C182.293 8.48564 180.707 6.90015 178.751 6.90015Z" stroke="#DDDDDD" stroke-width="2" stroke-miterlimit="10"/>
<path d="M177.428 14.304H54.7025V100.417H177.428V14.304Z" stroke="#DDDDDD" stroke-width="2" stroke-miterlimit="10"/>
<path d="M168.345 39.4474L154.518 39.1532C154.518 39.1532 157.934 30.7304 155.711 24.6175L169.005 24.3342C169.624 26.0322 170.021 27.8029 170.187 29.6026C170.47 32.4847 170.247 36.1131 168.345 39.4474Z" stroke="#DDDDDD" stroke-linecap="round" stroke-linejoin="round"/>
<path d="M159.105 29.1504H167.822" stroke="#DDDDDD" stroke-linecap="round" stroke-linejoin="round"/>
<path d="M158.675 34.1846H167.392" stroke="#DDDDDD" stroke-linecap="round" stroke-linejoin="round"/>
<path d="M160.625 31.5964L167.485 31.7326" stroke="#DDDDDD" stroke-linecap="round" stroke-linejoin="round"/>
<path d="M63.9861 26.9873H77.4975C77.4975 26.9873 76.7566 37.475 80.9516 41.0544L65.9638 41.4249C65.9638 41.4249 63 36.4889 63.9861 26.9873Z" stroke="#DDDDDD" stroke-linecap="round" stroke-linejoin="round"/>
<path d="M72.91 31.3513H75.1002" stroke="#DDDDDD" stroke-linecap="round" stroke-linejoin="round"/>
<path d="M66.3997 31.3513H71.8151" stroke="#DDDDDD" stroke-linecap="round" stroke-linejoin="round"/>
<path d="M66.8356 34.5222H72.3709" stroke="#DDDDDD" stroke-linecap="round" stroke-linejoin="round"/>
<path d="M67.402 37.181C67.5109 37.072 75.6341 36.9849 75.6341 36.9849" stroke="#DDDDDD" stroke-linecap="round" stroke-linejoin="round"/>
<path d="M85.5879 39.8452H98.2276C98.2276 39.8452 97.345 50.5072 100.723 54.3046H87.4621C85.0334 49.8946 84.3639 44.7287 85.5879 39.8452Z" fill="#EDEDED" stroke="#DDDDDD" stroke-linecap="round" stroke-linejoin="round"/>
<path d="M88.3993 47.2598H95.6889" stroke="#F9F9F9" stroke-linecap="round" stroke-linejoin="round"/>
<path d="M88.7589 50.0496H92.9812" stroke="#F9F9F9" stroke-linecap="round" stroke-linejoin="round"/>
<path d="M88.3993 43.4463L94.8935 43.7568" stroke="#F9F9F9" stroke-linecap="round" stroke-linejoin="round"/>
<path d="M86.7266 73.3675L96.2881 73.0025L102.897 54.3045L125.12 52.1579L135.765 34.5222" stroke="#DDDDDD" stroke-width="2" stroke-linecap="round" stroke-linejoin="round"/>
<path d="M136.332 33.5522L129.707 38.2812L135.231 41.621L136.332 33.5522Z" fill="#DDDDDD" stroke="#DDDDDD" stroke-width="2" stroke-linecap="round" stroke-linejoin="round"/>
<path d="M19.8669 38.7336C30.2869 38.7336 38.7339 30.2866 38.7339 19.8667C38.7339 9.44677 30.2869 0.999756 19.8669 0.999756C9.44702 0.999756 1 9.44677 1 19.8667C1 30.2866 9.44702 38.7336 19.8669 38.7336Z" stroke="#DDDDDD" stroke-width="2" stroke-linecap="round" stroke-linejoin="round"/>
<path d="M10.7686 10.0166L19.867 19.8669L27.4399 15.7481" stroke="#DDDDDD" stroke-width="2" stroke-linecap="round" stroke-linejoin="round"/>
<path d="M162.031 164.804H129.985C126.669 164.804 123.981 167.492 123.981 170.808V171.352C123.981 174.668 126.669 177.356 129.985 177.356H162.031C165.347 177.356 168.035 174.668 168.035 171.352V170.808C168.035 167.492 165.347 164.804 162.031 164.804Z" stroke="#DDDDDD" stroke-miterlimit="10"/>
<path d="M238.142 24.1436H212.514C211.009 24.1436 209.79 25.3632 209.79 26.8676V27.1128C209.79 28.6173 211.009 29.8369 212.514 29.8369H238.142C239.646 29.8369 240.866 28.6173 240.866 27.1128V26.8676C240.866 25.3632 239.646 24.1436 238.142 24.1436Z" stroke="#DDDDDD" stroke-miterlimit="10"/>
<path d="M48.0388 118.931C48.1641 114.757 50.9699 111.516 52.2121 109.957C53.4543 108.399 51.4439 107.206 52.2121 103.79C53.3998 98.5599 59.5671 101.502 59.5671 93.079C59.5671 90.4639 60.1882 89.9028 60.1882 89.9028C60.1882 89.9028 55.5791 79.7583 63.9256 76.3914C63.9256 76.3914 64.672 72.0873 72.2722 70.1532C79.8724 68.2191 86.7261 76.0699 81.8065 87.4075L81.4305 96.3806C82.1436 96.5159 82.7924 96.8821 83.2769 97.4226C83.7613 97.9631 84.0544 98.648 84.111 99.3717C84.6558 103.185 89.5265 100.805 89.7771 110.644L48.0388 118.931Z" fill="#7F542D"/>
<path d="M65.7126 105.588C61.9371 106.759 58.9733 106.547 58.9733 103.174C58.9733 100.003 62.8905 98.3145 62.2422 93.166C61.5938 88.0175 62.5963 85.5713 64.3288 83.3594C66.0613 81.1474 68.562 73.5527 74.7184 74.8984C80.8748 76.2441 81.801 87.4291 81.801 87.4291L78.5321 97.8079C78.5321 97.8079 82.5147 103.338 81.3434 105.348C80.172 107.358 65.7126 105.588 65.7126 105.588Z" fill="#704725"/>
<path d="M80.4772 98.2546C80.4772 98.2546 83.5935 98.3037 82.7981 102.308C82.5145 103.677 82.7 105.101 83.3247 106.351C83.9493 107.601 84.9767 108.605 86.2413 109.2" stroke="#A56F42" stroke-width="0.75" stroke-linecap="round" stroke-linejoin="round"/>
<path d="M63.9257 79.2627C60.4661 83.3161 61.8063 87.3641 61.8063 87.3641" stroke="#A56F42" stroke-width="0.75" stroke-linecap="round" stroke-linejoin="round"/>
<path d="M60.5697 100.712C56.8159 102.635 54.6258 106.394 56.963 110.045C57.4412 110.756 57.7566 111.565 57.8865 112.412C58.0165 113.26 57.9579 114.126 57.7149 114.948" stroke="#A56F42" stroke-width="0.75" stroke-linecap="round" stroke-linejoin="round"/>
<path d="M63.9257 76.3914C63.9257 76.3914 66.7042 77.1977 67.5051 78.9193" stroke="#A56F42" stroke-width="0.75" stroke-linecap="round" stroke-linejoin="round"/>
<path d="M69.4829 76.1409C69.4829 76.1409 75.6992 70.4203 80.1558 75.5961" stroke="#A56F42" stroke-width="0.75" stroke-linecap="round" stroke-linejoin="round"/>
<path d="M83.5336 94.3919C83.6698 101.6 78.7283 103.425 76.3475 103.567C70.8993 103.763 65.838 97.5736 64.1491 95.2473C64.0891 94.7624 64.0238 94.2666 63.942 93.7654C60.7004 94.4573 59.371 92.9427 59.006 90.6545C58.641 88.3663 61.4304 85.713 65.048 88.6441C68.4368 86.3069 68.9108 83.0598 68.2025 80.1777C69.0023 79.0272 70.1493 78.1628 71.4756 77.7109C72.8019 77.259 74.238 77.2433 75.5738 77.6661C79.3603 78.7557 82.0027 83.9533 83.0433 89.5921C83.281 90.8793 83.4357 92.1805 83.5064 93.4875C83.5173 93.7926 83.5281 94.0923 83.5336 94.3919Z" fill="#FEBD9D"/>
<path d="M77.8021 81.676C77.9165 82.6349 80.39 82.7657 81.5014 82.2208C82.6128 81.676 77.4752 78.9411 77.8021 81.676Z" fill="#7F542D"/>
<path d="M70.1256 83.73C69.9349 84.5799 72.3648 83.4631 73.2528 83.4031C74.1409 83.3432 74.604 82.9509 74.1572 81.8613C73.7105 80.7717 70.5506 81.8994 70.1256 83.73Z" fill="#7F542D"/>
<path d="M74.9852 88.6605C75.3884 88.6605 75.7152 88.3337 75.7152 87.9305C75.7152 87.5273 75.3884 87.2004 74.9852 87.2004C74.582 87.2004 74.2551 87.5273 74.2551 87.9305C74.2551 88.3337 74.582 88.6605 74.9852 88.6605Z" fill="#683F1D"/>
<path d="M80.1558 86.819C80.559 86.819 80.8859 86.4921 80.8859 86.0889C80.8859 85.6857 80.559 85.3589 80.1558 85.3589C79.7526 85.3589 79.4258 85.6857 79.4258 86.0889C79.4258 86.4921 79.7526 86.819 80.1558 86.819Z" fill="#683F1D"/>
<path d="M77.9438 85.7021C77.8948 87.8814 78.9463 88.6332 79.1969 88.8784C79.7962 89.4614 81.1746 88.8784 80.548 91.0032" stroke="#EF8A66" stroke-width="0.75" stroke-linecap="round" stroke-linejoin="round"/>
<path d="M75.4212 94.768C76.3638 93.8255 79.9487 94.0216 80.3246 94.3976C80.7005 94.7735 80.0467 96.3916 78.4886 96.3698C76.9304 96.348 74.9799 95.2093 75.4212 94.768Z" fill="white" stroke="#EF8A66" stroke-width="0.75" stroke-linecap="round" stroke-linejoin="round"/>
<path d="M61.0436 90.8943C61.8717 89.6848 63.5824 90.088 64.2743 90.6927C62.0569 90.3222 61.8554 92.7957 64.3397 92.1365" stroke="#EF8A66" stroke-width="0.75" stroke-linecap="round" stroke-linejoin="round"/>
<path d="M75.6556 93.1225C75.3124 94.1522 73.4763 94.4573 71.5313 93.809C69.5863 93.1606 68.3169 91.7986 68.6656 90.7689C69.0143 89.7392 70.8449 89.4341 72.7899 90.0879C74.7349 90.7417 76.0043 92.1146 75.6556 93.1225Z" fill="#F4AF90"/>
<path d="M83.5009 93.4877C82.591 93.6566 81.8337 93.4877 81.4851 92.9865C80.9402 92.1638 81.6158 90.7092 83.0378 89.5923C83.2756 90.8795 83.4302 92.1806 83.5009 93.4877Z" fill="#F4AF90"/>
<path d="M61.9535 94.3974C61.9535 94.711 62.0465 95.0175 62.2207 95.2782C62.3949 95.5389 62.6425 95.7422 62.9322 95.8621C63.2219 95.9821 63.5407 96.0136 63.8482 95.9524C64.1557 95.8912 64.4382 95.7402 64.66 95.5185C64.8817 95.2968 65.0327 95.0143 65.0939 94.7067C65.155 94.3992 65.1236 94.0804 65.0036 93.7907C64.8836 93.501 64.6804 93.2534 64.4197 93.0792C64.159 92.905 63.8525 92.812 63.5389 92.812C63.3307 92.812 63.1245 92.853 62.9322 92.9327C62.7398 93.0124 62.5651 93.1292 62.4179 93.2764C62.2706 93.4236 62.1538 93.5984 62.0742 93.7907C61.9945 93.9831 61.9535 94.1892 61.9535 94.3974Z" fill="#C3DCF8"/>
<path d="M125.991 116.86L118.238 126.896C118.238 126.896 107.887 168.601 102.651 172.115C101.002 173.203 99.1113 173.871 97.1447 174.061C95.1781 174.251 93.1949 173.957 91.3679 173.205C91.3679 173.178 91.3679 173.156 91.3679 173.129C91.3679 173.101 86.7424 169.233 87.625 163.502C87.7067 162.957 98.0691 145.065 102.509 137.176C106.056 130.824 110.371 123.556 110.371 123.556L125.991 116.86Z" fill="#FEBD9D"/>
<path d="M110.393 123.561C110.393 123.561 110.998 114.142 111.21 113.079C111.423 112.017 117.786 105.898 118.69 105.414C119.595 104.929 125.228 106.596 125.691 107.113C126.154 107.631 125.631 108.84 124.117 108.748C122.602 108.655 123.904 112.322 123.904 112.322C123.904 112.322 126.351 114.915 125.991 116.86C125.991 116.86 116.484 126.438 116.359 126.405C116.233 126.373 110.393 123.561 110.393 123.561Z" fill="#FEBD9D"/>
<path d="M110.393 123.561C110.393 123.561 110.998 114.142 111.21 113.079C111.423 112.017 117.786 105.898 118.69 105.414C119.595 104.929 125.228 106.596 125.691 107.113C126.154 107.631 125.631 108.84 124.117 108.748C122.602 108.655 123.904 112.322 123.904 112.322C123.904 112.322 126.351 114.915 125.991 116.86C125.991 116.86 116.484 126.438 116.359 126.405C116.233 126.373 110.393 123.561 110.393 123.561Z" fill="#FEBD9D"/>
<path d="M111.21 113.079C111.423 111.989 117.786 105.898 118.691 105.414C119.595 104.929 125.228 106.596 125.692 107.113C126.155 107.631 125.632 108.84 124.117 108.748" stroke="#EF8A66" stroke-width="0.75" stroke-linecap="round" stroke-linejoin="round"/>
<path d="M120.298 109.2C120.39 108.993 123.932 107.811 124.536 108.023C125.141 108.236 128.05 113.079 128.143 114.049C128.236 115.019 126.857 119.274 125.599 118.898C124.34 118.522 125.648 114.91 125.648 114.91L120.298 109.2Z" fill="#FEBD9D" stroke="#EF8A66" stroke-width="0.75" stroke-linecap="round" stroke-linejoin="round"/>
<path d="M122.75 117.59C123.779 118.271 124.972 116.708 125.648 114.91L123.36 113.052C123.36 113.052 121.235 116.593 122.75 117.59Z" fill="#FEBD9D" stroke="#EF8A66" stroke-width="0.75" stroke-linecap="round" stroke-linejoin="round"/>
<path d="M126.198 113.537L126.939 115.406C126.961 115.46 126.968 115.519 126.959 115.577C126.95 115.635 126.926 115.689 126.888 115.734C126.85 115.778 126.801 115.812 126.746 115.831C126.691 115.85 126.631 115.854 126.574 115.841L124.607 115.427L108.263 101.633C108.139 101.528 108.037 101.401 107.962 101.257C107.888 101.113 107.842 100.956 107.828 100.794C107.815 100.633 107.833 100.47 107.882 100.316C107.932 100.162 108.011 100.018 108.116 99.8947C108.327 99.6456 108.629 99.4902 108.954 99.4627C109.28 99.4351 109.603 99.5376 109.854 99.7477L126.198 113.537Z" fill="#683F1D"/>
<path d="M115.607 112.703C117.448 110.045 119.47 107.952 120.45 107.713C121.932 107.353 122.27 109.113 118.783 114.202C119.354 115.651 119.444 117.245 119.041 118.749C118.638 120.254 117.763 121.589 116.544 122.559" fill="#FEBD9D"/>
<path d="M115.607 112.703C117.448 110.045 119.47 107.952 120.45 107.713C121.932 107.353 122.27 109.113 118.783 114.202C119.354 115.651 119.444 117.245 119.041 118.749C118.638 120.254 117.763 121.589 116.544 122.559" stroke="#EF8A66" stroke-width="0.75" stroke-linecap="round" stroke-linejoin="round"/>
<path d="M100.668 143.872C100.554 144.417 99.7255 145.932 99.5784 146.46C97.1649 156.735 93.1224 166.673 91.3681 173.113C90.8714 174.981 90.4731 176.874 90.1749 178.784C89.2923 184.167 89.0145 189.239 89.0145 189.239L49.1994 188.493L44.3778 188.405L44.563 168.04L44.6066 163.758C44.6066 163.758 33.2254 162.974 33.1382 163.213C33.0511 163.453 33.6831 156.991 33.6831 156.991C29.9511 152.715 29.7223 146.444 30.643 142.668C31.2641 140.14 33.7975 133.33 36.3962 127.653C37.4347 125.26 38.6531 122.949 40.0411 120.739C43.3099 115.902 45.3367 115.536 49.6243 114.654C53.912 113.771 61.1908 109.941 61.1908 109.941L75.0291 108.399C75.0291 108.399 82.2642 108.901 88.7094 108.628C94.8385 108.367 98.2818 109.751 100.973 115.395C101.12 115.689 101.256 116 101.398 116.321C103.387 120.957 105.174 127.577 106.04 130.998C103.294 137.634 100.668 143.872 100.668 143.872Z" fill="#FED81D"/>
<path d="M100.978 115.395C95.3287 114.779 91.7983 119.47 87.6523 128.351C82.6999 138.925 71.8962 140.385 61.5502 132.093C52.4409 124.782 45.7506 123.06 36.4233 127.659C37.4618 125.265 38.6802 122.954 40.0681 120.745C43.337 115.907 45.3638 115.542 49.6514 114.659C53.9391 113.777 61.2179 109.947 61.2179 109.947L75.0289 108.399C75.0289 108.399 82.2641 108.901 88.7092 108.628C94.8438 108.367 98.2871 109.751 100.978 115.395Z" fill="#FFE05C"/>
<path d="M50.3597 160.865L54.059 137.247C55.0887 138.827 57.9272 141.023 57.0119 145.485C54.6801 156.751 62.4601 147.827 65.4947 153.248C66.7532 155.504 56.1184 159.192 50.3597 160.865Z" fill="#FCC71F"/>
<path d="M63.8549 108.323C62.7653 107.854 61.218 109.385 61.218 109.957C61.218 110.529 62.7871 115.405 64.8792 117.683C66.9713 119.96 70.7959 120.461 72.2451 115.111C76.1078 119.132 79.8725 117.617 79.3658 112.719C78.8591 107.822 75.3614 106.874 75.3614 106.874L63.8549 108.323Z" fill="white"/>
<path d="M50.0275 162.984L50.3598 160.865L54.0591 137.247L55.2196 129.87" stroke="#F7AD2B" stroke-width="0.75" stroke-linecap="round" stroke-linejoin="round"/>
<path d="M33.7102 157.002C39.3665 155.194 45.3395 154.595 51.2423 155.242" stroke="#F7AD2B" stroke-width="0.75" stroke-linecap="round" stroke-linejoin="round"/>
<path d="M74.3643 122.984C75.1828 122.984 75.8462 122.32 75.8462 121.502C75.8462 120.683 75.1828 120.02 74.3643 120.02C73.5459 120.02 72.8824 120.683 72.8824 121.502C72.8824 122.32 73.5459 122.984 74.3643 122.984Z" fill="white"/>
<path d="M75.8518 129.2C76.6702 129.2 77.3337 128.537 77.3337 127.718C77.3337 126.9 76.6702 126.236 75.8518 126.236C75.0333 126.236 74.3699 126.9 74.3699 127.718C74.3699 128.537 75.0333 129.2 75.8518 129.2Z" fill="white"/>
<path d="M36.9521 177.798H36.9248C30.6649 175.646 32.5935 166.046 33.3181 161.028L40.3081 159.339L51.0083 156.757C51.0083 156.757 52.8443 180.326 36.9521 177.798Z" fill="#FEBD9D"/>
<path d="M76.3474 103.556C76.3474 103.692 76.2602 106.171 76.1894 107.953C76.1621 108.737 76.1294 109.391 76.1185 109.636C76.075 110.459 74.3316 113.891 70.6704 112.976C67.0092 112.06 63.9419 108.906 63.8548 108.307C63.7676 107.707 65.4347 103.006 64.5467 95.7759C67.7339 92.0494 77.0774 94.3975 76.3474 103.556Z" fill="#FEBD9D"/>
<path d="M76.3476 103.556C76.3476 103.556 76.2605 106.127 76.1896 107.958C73.6671 107.615 68.8837 106.122 69.1724 99.6875C70.2239 101.278 73.8469 103.681 76.3476 103.556Z" fill="#F4A789"/>
<path d="M106.879 140.761C106.838 140.759 106.798 140.748 106.762 140.728C106.726 140.708 106.696 140.68 106.672 140.647L94.5282 123.398C94.5039 123.368 94.4872 123.332 94.4796 123.294C94.472 123.256 94.4738 123.217 94.4846 123.18C94.4929 123.143 94.5089 123.109 94.5314 123.079C94.5539 123.049 94.5826 123.024 94.6154 123.006C95.3805 122.515 96.2581 122.228 97.1651 122.172C99.1373 122.172 101.137 124.008 104.073 128.514C109.522 136.86 107.762 139.955 107.097 140.674C107.071 140.701 107.04 140.723 107.005 140.738C106.97 140.753 106.933 140.761 106.896 140.761H106.879Z" fill="#F9F9F9"/>
<path d="M97.165 122.444C98.8866 122.444 100.761 123.932 103.844 128.666C108.372 135.607 108.061 139.187 106.895 140.489L94.746 123.24C95.4713 122.773 96.304 122.499 97.165 122.444ZM97.165 121.9C96.2121 121.954 95.2892 122.253 94.4845 122.766C94.4177 122.803 94.3594 122.854 94.3134 122.915C94.2674 122.976 94.2347 123.046 94.2176 123.12C94.2006 123.195 94.1997 123.272 94.2147 123.347C94.2297 123.422 94.2604 123.493 94.3047 123.556L106.449 140.805C106.496 140.872 106.558 140.927 106.63 140.966C106.701 141.006 106.781 141.029 106.863 141.034H106.895C106.971 141.033 107.047 141.017 107.116 140.986C107.185 140.955 107.248 140.91 107.299 140.854C107.996 140.075 109.843 136.877 104.302 128.367C101.306 123.774 99.2408 121.9 97.165 121.9Z" fill="#DDDDDD"/>
<path d="M111.869 143.932C111.818 143.93 111.767 143.915 111.722 143.888L106.748 140.723C106.713 140.699 106.683 140.668 106.661 140.631C106.64 140.594 106.626 140.553 106.623 140.511C106.621 140.469 106.627 140.428 106.642 140.389C106.657 140.351 106.68 140.316 106.71 140.287C107.249 139.801 107.951 139.533 108.677 139.535C109.231 139.556 109.774 139.69 110.273 139.931C110.772 140.172 111.215 140.514 111.575 140.936C112.954 142.467 112.12 143.796 112.12 143.807C112.093 143.848 112.056 143.881 112.012 143.903C111.968 143.925 111.919 143.935 111.869 143.932Z" fill="#F9F9F9"/>
<path d="M108.677 139.808C109.193 139.828 109.699 139.955 110.163 140.181C110.627 140.407 111.039 140.727 111.374 141.121C112.627 142.51 111.869 143.66 111.869 143.66L106.895 140.489C107.383 140.046 108.019 139.803 108.677 139.808ZM108.677 139.263C107.883 139.258 107.117 139.552 106.53 140.086C106.467 140.142 106.419 140.212 106.387 140.29C106.356 140.368 106.343 140.452 106.35 140.536C106.357 140.62 106.383 140.702 106.427 140.774C106.47 140.846 106.53 140.907 106.601 140.952L111.575 144.117C111.696 144.196 111.843 144.223 111.984 144.193C112.125 144.164 112.248 144.08 112.327 143.959C112.365 143.899 113.297 142.439 111.782 140.756C111.398 140.305 110.923 139.94 110.389 139.683C109.856 139.426 109.274 139.283 108.682 139.263H108.677Z" fill="#DDDDDD"/>
<path d="M68.4042 137.727L95.8792 121.502C95.8792 121.502 105.016 131.08 106.895 140.489L77.7532 155.619C77.7532 155.619 74.517 145.207 68.4042 137.727Z" fill="#F9F9F9" stroke="#DDDDDD" stroke-linecap="round" stroke-linejoin="round"/>
<path d="M79.1152 154.905L86.1488 157.002L111.87 143.66C110.504 142.202 108.793 141.112 106.895 140.489L79.1152 154.905Z" fill="#DDDDDD" stroke="#DDDDDD" stroke-miterlimit="10"/>
<path d="M92.0492 146.204C91.7877 147.44 89.2924 147.729 87.7615 147.631C86.2306 147.533 81.142 147.827 81.142 147.827C81.142 147.827 83.9641 149.353 84.2583 149.641C85.179 151.001 85.8915 152.49 86.3722 154.06C87.1132 156.332 86.5629 157.694 85.8274 157.53C85.0919 157.367 84.8249 156.174 84.8249 156.174C84.5634 157.694 83.6209 156.43 83.6209 156.43C83.6209 156.915 81.2836 161.072 80.352 160.244C79.4204 159.415 80.7334 157.296 80.7334 157.296H79.7691C77.9883 158.754 76.1138 160.094 74.1575 161.306C72.3661 162.346 70.4058 163.064 68.3661 163.425C68.3661 163.425 63.8605 166.618 58.1835 170.018C51.1717 174.234 42.3838 178.784 38.1125 178.075C37.0041 177.933 35.9577 177.484 35.0912 176.778C34.2248 176.072 33.5729 175.138 33.2092 174.082C33.1988 174.048 33.1861 174.016 33.171 173.984C33.1438 173.908 33.1002 173.788 33.0512 173.63C32.4137 171.45 30.9645 162.058 50.9974 156.74L51.1227 156.708L65.484 153.237C68.475 150.186 75.1272 144.248 76.2278 143.921C77.3283 143.594 92.3107 144.961 92.0492 146.204Z" fill="#FEBD9D"/>
<path d="M80.7115 157.28C80.7115 157.28 79.3876 159.383 80.3302 160.227C81.2727 161.072 83.5991 156.915 83.5991 156.414C83.5991 156.414 84.5416 157.678 84.8031 156.152C84.8031 156.152 85.0592 157.356 85.8056 157.52C86.552 157.683 87.1077 156.316 86.3504 154.044C85.8727 152.474 85.16 150.987 84.2365 149.631C83.9477 149.337 81.1201 147.811 81.1201 147.811C81.1201 147.811 86.2142 147.517 87.7451 147.615C89.276 147.713 91.7713 147.424 92.0274 146.188C92.2834 144.951 77.2901 143.589 76.1896 143.916C75.6448 144.079 73.6943 145.643 71.5205 147.55" stroke="#EF8A66" stroke-width="0.75" stroke-linecap="round" stroke-linejoin="round"/>
<path d="M81.1419 147.827L78.5922 146.82" stroke="#EF8A66" stroke-width="0.75" stroke-linecap="round" stroke-linejoin="round"/>
<path d="M79.2568 150.208C79.2568 150.208 83.3321 151.963 83.6154 152.556C83.8987 153.15 84.7322 154.954 84.8139 156.169" stroke="#EF8A66" stroke-width="0.75" stroke-linecap="round" stroke-linejoin="round"/>
<path d="M79.7146 153.188C79.7146 153.188 82.7438 155.057 83.1033 155.417C83.3513 155.709 83.5251 156.056 83.61 156.43" stroke="#EF8A66" stroke-width="0.75" stroke-linecap="round" stroke-linejoin="round"/>
<path d="M203.104 149.228C203.298 154.68 203.14 160.14 202.63 165.572C201.791 174.78 201.186 182.538 202.358 188.454H264.592C264.592 188.454 267 179.737 263.693 162.047C260.386 144.357 255.875 135.4 254.431 132.333L203.104 149.228Z" fill="#FFE05C"/>
<path d="M254.355 132.431C252.933 134.262 247.196 140.652 233.167 145.387L232.513 145.605C229.177 146.708 225.788 147.64 222.358 148.4C208.83 151.374 202.363 149.489 202.363 149.489C202.183 145.196 200.331 141.121 198.882 138.549C198.354 137.608 197.772 136.698 197.138 135.825C196.842 138.307 196.318 140.756 195.575 143.142C194.196 147.555 191.325 151.233 191.472 151.38C184.21 162.396 170.998 145.06 174.196 129.277C174.196 129.277 177.868 114.278 180.734 102.804C181.137 101.17 181.551 99.7803 181.981 98.5599C184.618 91.1014 187.855 90.295 192.709 88.0667C195.373 86.9172 201.726 85.8548 201.726 85.8548C202.138 84.9231 202.732 84.083 203.473 83.3833C204.214 82.6836 205.087 82.1385 206.04 81.7796L205.883 80.6899C206.781 80.5755 207.724 80.4502 208.694 80.3086L210.377 80.058L210.573 80.0253L211.385 79.9C212.371 79.742 213.379 79.5676 214.382 79.3824L215.324 79.208L216.032 79.0664C219.619 78.4161 223.138 77.4405 226.547 76.1516C226.989 75.9719 227.43 75.8084 227.86 75.6667L228.253 75.536L228.547 75.4488L229.032 75.3126C229.195 75.2636 229.359 75.2254 229.522 75.1873L229.773 75.1274L230.317 75.0184L230.503 74.9803L231.048 74.8931L231.287 74.8604H231.38C231.565 74.8314 231.747 74.8096 231.925 74.7951L232.508 74.7515H232.671H233.314C238.441 74.7515 242.777 77.5191 245.452 83.1035C246.461 85.2799 247.183 87.5783 247.599 89.9409C250.1 103.251 248.411 116.855 248.411 116.855L254.496 131.341C254.571 131.519 254.598 131.714 254.573 131.905C254.548 132.097 254.473 132.278 254.355 132.431Z" fill="#C3DCF8"/>
<path d="M245.442 83.0654C235.047 81.9104 225.349 89.8647 220.974 98.3202C215.308 109.271 201.644 110.143 196.915 105.13C193.733 101.753 188.454 97.2796 181.987 98.5327C184.624 91.0742 187.86 90.2678 192.714 88.0395C195.33 86.9118 201.491 85.8603 201.726 85.8331C202.138 84.9014 202.733 84.0612 203.473 83.3616C204.214 82.6619 205.087 82.1167 206.041 81.7578L205.883 80.6682C206.782 80.5538 207.724 80.4285 208.694 80.2868L210.377 80.0362L210.573 80.0035L211.385 79.8782C212.371 79.7202 213.379 79.5459 214.382 79.3607L215.324 79.1863L216.033 79.0447C219.125 78.464 222.172 77.6666 225.153 76.6584C225.638 76.4895 226.101 76.3097 226.547 76.1136C226.994 75.9174 227.43 75.7703 227.86 75.6287L228.253 75.4979L228.547 75.4107L229.032 75.2745C229.195 75.2255 229.359 75.1874 229.522 75.1492L229.773 75.0893L230.318 74.9803L230.503 74.9422L231.048 74.855L231.287 74.8223H231.38C231.565 74.7933 231.747 74.7715 231.925 74.757L232.508 74.7134H232.671H233.314C238.43 74.7134 242.767 77.481 245.442 83.0654Z" fill="#D0E5F7"/>
<path d="M197.138 135.793C197.073 136.337 197.002 136.882 196.915 137.373C196.648 137.073 188.378 127.691 178.005 126.934C179.944 125.768 182.679 124.449 184.58 124.902C187.849 125.675 184.036 110.192 190.906 105.926C190.056 109.456 188.618 115.062 188.939 119.966C189.44 127.337 193.908 131.696 197.138 135.793Z" fill="#A7CAF0"/>
<path d="M233.57 142.45C233.514 143.429 233.38 144.402 233.167 145.36L232.513 145.577C229.177 146.68 225.788 147.613 222.358 148.372L221.949 148.024C214.774 141.742 221.949 137.367 220.129 126.896C218.076 115.084 221.41 108.459 223.834 105.37C223.145 111.348 222.781 117.359 222.745 123.376C222.854 132.426 223.535 135.705 224.924 136.626C226.733 137.661 229.62 138.451 232.905 138.805L233.57 142.45Z" fill="#A7CAF0"/>
<path d="M225.322 80.0634C225.181 84.7052 223.439 89.1554 220.391 92.6595C219.122 90.7363 216.757 88.1212 215.166 88.2683C210.808 88.666 210.116 95.9829 210.116 95.9829C210.116 95.9829 208.481 88.3555 206.487 89.0201C203.665 89.9518 201.126 96.2389 201.126 96.2389C200.335 92.7764 200.542 89.1602 201.726 85.8112C202.138 84.8795 202.733 84.0393 203.473 83.3397C204.214 82.64 205.087 82.0948 206.041 81.736L205.883 80.6463C206.782 80.5319 207.724 80.4066 208.694 80.2649L210.377 80.0143L210.573 79.9816L211.385 79.8563C212.371 79.6983 213.379 79.524 214.382 79.3388L215.324 79.1644L216.032 79.0228C219.125 78.4421 222.172 77.6447 225.153 76.6365C225.282 77.774 225.338 78.9186 225.322 80.0634Z" fill="#83ADDF"/>
<path d="M245.42 138.015C243.299 145.66 240.587 153.129 237.307 160.353C231.761 172.671 220.598 193.129 220.598 193.129L210.192 191.674C210.192 191.674 215.815 175.793 217.819 165.67C218.855 160.429 220.494 153.728 221.944 148.013C223.3 142.69 224.493 138.206 224.891 136.615C226.7 137.65 229.587 138.44 232.873 138.794C237.067 139.318 241.322 139.054 245.42 138.015Z" fill="#B25E47"/>
<path d="M245.42 138.015C247.054 136.294 248.4 116.817 248.4 116.817" stroke="#83ADDF" stroke-width="0.75" stroke-linecap="round" stroke-linejoin="round"/>
<path d="M226.019 91.0249C226.019 91.0249 225.474 95.3126 224.897 97.7479C224.652 98.734 224.238 101.643 223.807 105.375C223.118 111.353 222.754 117.364 222.718 123.381C222.826 132.431 223.508 135.711 224.897 136.631" stroke="#83ADDF" stroke-width="0.75" stroke-linecap="round" stroke-linejoin="round"/>
<path d="M222.946 129.407C228.173 131.931 234.071 132.716 239.776 131.646" stroke="#83ADDF" stroke-width="0.75" stroke-linecap="round" stroke-linejoin="round"/>
<path d="M240.222 138.931C240.364 135.182 241.628 128.034 243.682 125.425C245.959 122.532 247.713 124.836 247.713 124.836" stroke="#83ADDF" stroke-width="0.75" stroke-linecap="round" stroke-linejoin="round"/>
<path d="M243.764 129.211C243.762 129.447 243.832 129.679 243.962 129.876C244.093 130.073 244.279 130.227 244.498 130.318C244.716 130.409 244.956 130.433 245.188 130.387C245.42 130.341 245.633 130.227 245.8 130.06C245.968 129.893 246.081 129.68 246.127 129.448C246.173 129.216 246.149 128.975 246.058 128.757C245.967 128.539 245.813 128.353 245.616 128.222C245.419 128.091 245.188 128.022 244.951 128.023C244.637 128.025 244.335 128.15 244.113 128.373C243.891 128.595 243.765 128.896 243.764 129.211Z" fill="#83ADDF"/>
<path d="M210.197 91.9131C210.546 94.392 210.415 95.1275 209.473 98.4073C208.53 101.687 206.171 112.224 207.898 119.71C209.74 127.702 214.164 137.144 214.027 139.868C213.891 142.592 212.987 147.876 218.021 149.211" stroke="#83ADDF" stroke-width="0.75" stroke-linecap="round" stroke-linejoin="round"/>
<path d="M196.915 137.378C196.648 137.078 188.378 127.697 178.005 126.939C177.77 126.939 177.541 126.907 177.313 126.901" stroke="#83ADDF" stroke-width="0.75" stroke-linecap="round" stroke-linejoin="round"/>
<path d="M191.287 100.418C191.409 101.213 191.482 102.016 191.505 102.82C191.399 103.871 191.199 104.911 190.906 105.926C190.056 109.456 188.617 115.062 188.939 119.966C189.424 127.337 193.908 131.696 197.111 135.793" stroke="#83ADDF" stroke-width="0.75" stroke-linecap="round" stroke-linejoin="round"/>
<path d="M144.286 116.299C141.589 116.43 140.663 116.032 138.407 114.708C136.152 113.384 133.063 109.26 132.442 102.864L139.737 99.1047C139.737 99.1047 149.985 112.017 144.286 116.299Z" fill="#B25E47"/>
<path d="M129.837 103.91C130.382 107.527 131.118 109.08 131.968 108.987C132.818 108.895 133.558 106.808 132.442 102.864L129.837 103.91Z" fill="#B25E47" stroke="#934735" stroke-miterlimit="10"/>
<path d="M132.6 103.109C133.144 106.727 133.874 108.28 134.724 108.187C135.574 108.094 136.315 106.008 135.204 102.063L132.6 103.109Z" fill="#B25E47" stroke="#934735" stroke-miterlimit="10"/>
<path d="M104.476 62.2479L135.765 49.6082L155.722 92.6703L127.413 106.863L104.476 62.2479Z" fill="#EDEDED" stroke="#EDEDED" stroke-width="2" stroke-linecap="round" stroke-linejoin="round"/>
<path d="M108.557 62.2479L139.851 49.6082L155.722 92.6703L129.598 103.174L108.557 62.2479Z" fill="#F9F9F9" stroke="#DDDDDD" stroke-width="2" stroke-linecap="round" stroke-linejoin="round"/>
<path d="M140.32 102.308C136.353 98.9249 133.782 93.2043 135.307 92.447C136.473 91.8695 139.388 95.133 141.954 96.3588C144.124 97.4533 145.926 99.1575 147.141 101.262C147.724 102.488 150.524 107.675 151.804 108.492C153.085 109.309 171.042 122.02 174.191 123.943C177.34 125.866 191.919 135.253 192.714 145.283C193.51 155.313 182.466 158.582 175.771 153.853C170.698 150.285 145.626 118.048 144.286 116.299C144.286 116.299 146.067 112.284 142.559 109.946C140.494 108.568 139.677 105.735 140.32 102.308Z" fill="#B25E47"/>
<path d="M142.586 109.947C140.521 108.568 139.704 105.746 140.347 102.319C136.381 98.9359 133.809 93.2153 135.335 92.458C136.5 91.8805 139.415 95.1439 141.981 96.3698C144.151 97.4643 145.953 99.1684 147.168 101.273C147.484 101.932 148.437 103.736 149.451 105.392" stroke="#934735" stroke-width="0.75" stroke-linecap="round" stroke-linejoin="round"/>
<path d="M206.046 81.7633C206.16 82.2488 206.16 82.7543 206.046 83.2398C206.046 83.2398 205.583 83.9045 206.83 85.7732C207.797 87.1627 209.097 88.2868 210.611 89.0421C210.982 89.1238 218.664 84.847 219.873 79.6168C219.873 79.6168 216.512 69.9844 219.045 68.241C221.579 66.4976 225.272 53.956 214.104 57.1976C214.104 57.1976 211.979 47.1077 205.027 47.8105C198.075 48.5133 195.536 55.1982 194.343 61.8395C193.15 68.4808 196.294 79.5677 201.529 79.1101L206.046 81.7633Z" fill="#B25E47"/>
<path d="M198.108 63.5174C197.563 64.607 196.005 64.8958 194.654 64.1929C193.303 63.4901 192.655 62.0518 193.21 60.9785C193.766 59.9052 195.319 59.6001 196.67 60.303C198.021 61.0058 198.669 62.4441 198.108 63.5174Z" fill="#A0503D"/>
<path d="M205.354 77.1106C206.653 76.7618 207.802 75.9962 208.623 74.9314C208.623 74.9314 210.96 78.9903 205.163 80.7446C205.18 80.7446 203.867 77.4048 205.354 77.1106Z" fill="#914839"/>
<path d="M232.873 72.8935C232.742 73.8851 229.114 74.9856 230.105 76.5166C231.195 78.1946 229.947 80.4065 227.011 78.9137C224.477 77.6334 223.393 78.0965 222.434 80.0688C221.475 82.041 219.476 80.1069 217.602 80.205C215.727 80.303 213.663 79.7746 213.788 77.6988C213.913 75.6231 217.22 74.9747 215.869 73.0243C214.518 71.0739 213.69 69.434 216 66.1814C216 66.1814 220.151 65.0918 220.086 61.5069C220.021 57.922 215.673 57.7858 214.191 60.3192C214.191 60.3192 211.527 57.7858 210.868 55.1816C210.323 53.0024 209.653 51.0192 208.808 50.0985C208.663 49.9327 208.49 49.7943 208.296 49.6899C208.296 49.6899 202.341 47.0257 199.481 52.5883C196.621 58.1509 195.123 68.3225 197.013 72.4631C197.712 74.0403 198.906 75.3468 200.414 76.1853C201.922 77.0237 203.662 77.3485 205.371 77.1104L205.665 79.099L206.062 81.7468C205.109 82.1057 204.236 82.6508 203.495 83.3505C202.754 84.0502 202.16 84.8904 201.748 85.822C201.748 85.822 195.379 86.8844 192.709 88.034C192.709 88.034 191.952 85.6695 189.68 84.9775C187.408 84.2856 184.548 83.561 184.286 80.3357C184.025 77.1104 179.317 77.9494 178.266 74.6805C177.214 71.4117 179.448 69.2869 180.897 68.3607C182.347 67.4345 183.959 65.5658 182.875 63.392C181.791 61.2182 182.842 59.1806 185.278 57.5679C187.713 55.9552 187.337 54.19 187.403 52.3595C187.479 50.0658 189.037 49.412 190.573 48.2516C192.251 46.9985 189.887 43.2774 194.659 42.6236C197.296 42.2586 197.667 41.6702 199.628 40.0521C201.11 38.8372 203.578 40.9129 206.166 39.5618C208.754 38.2106 210.116 37.6549 212.491 40.1883C214.867 42.7217 218.337 41.4577 218.762 45.0426C219.176 48.4913 217.547 49.205 217.427 49.3031C217.558 49.3031 222.145 49.3358 223.219 53.4872C224.292 57.6387 222.396 58.456 225.027 61.1147C227.659 63.7733 228.808 65.0864 227.577 67.2002C226.885 68.3825 227.169 70.0006 229.702 70.4691C232.235 70.9377 233.025 71.9074 232.873 72.8935Z" fill="#604730"/>
<path d="M199.465 52.5882C196.599 58.1508 195.106 68.3225 196.997 72.4631C197.696 74.0402 198.89 75.3468 200.398 76.1852C201.906 77.0237 203.645 77.3484 205.354 77.1103L205.648 79.0989C203.709 83.0379 198.517 84.1058 195.373 83.2885C191.222 82.1989 194.283 79.7908 190.246 78.2272C185.468 76.3803 190.083 71.9673 189.228 71.052C188.372 70.1367 187.005 68.6058 188.487 66.5028C189.969 64.3998 193.39 64.28 193.096 61.7193C192.802 59.1587 193.439 58.3033 195.204 57.2791C198.473 55.3886 197.928 52.3267 197.307 50.5615C196.686 48.7963 198.157 44.7156 202.543 44.3016C206.209 43.9692 207.991 46.0668 208.792 50.0984C208.647 49.9326 208.474 49.7942 208.28 49.6898C208.28 49.6898 202.325 47.0257 199.465 52.5882Z" fill="#473526"/>
<path d="M208.792 50.0984C208.007 46.0668 206.209 43.9692 202.543 44.3016C198.184 44.7047 196.686 48.8018 197.307 50.5615C197.928 52.3213 198.462 55.3886 195.204 57.2791C193.439 58.3033 192.812 59.1587 193.096 61.7193C193.379 64.28 190.045 64.4434 188.487 66.5028C187.443 67.8031 186.777 69.3657 186.563 71.0193" stroke="#896442" stroke-width="0.75" stroke-linecap="round" stroke-linejoin="round"/>
<path d="M196.19 68.6877C194.654 69.2326 193.466 70.551 193.684 71.8422C193.946 73.444 193.455 73.9398 192.469 74.234C191.483 74.5282 190.502 74.4301 190.007 76.1681C189.862 76.7604 189.766 77.3635 189.718 77.9714C189.62 78.8431 189.484 79.535 188.628 80.0417" stroke="#896442" stroke-width="0.75" stroke-linecap="round" stroke-linejoin="round"/>
<path d="M211.696 49.9677C213.079 49.5766 214.5 49.3355 215.934 49.2485" stroke="#896442" stroke-width="0.75" stroke-linecap="round" stroke-linejoin="round"/>
<path d="M193.657 80.7444C194.273 78.892 196.414 80.0797 196.555 78.0803C196.596 77.3792 196.899 76.7191 197.403 76.2307C197.908 75.7423 198.577 75.4613 199.279 75.4434" stroke="#896442" stroke-width="0.75" stroke-linecap="round" stroke-linejoin="round"/>
<path d="M215.444 63.0323C216.054 61.2072 217.88 60.8149 218.332 61.0874" stroke="#934735" stroke-width="0.75" stroke-linecap="round" stroke-linejoin="round"/>
<path d="M215.782 62.3296C217.553 61.7848 217.928 64.3182 216.125 64.1493" stroke="#934735" stroke-width="0.75" stroke-linecap="round" stroke-linejoin="round"/>
<path d="M203.905 53.8852C203.665 54.7133 204.907 55.0565 205.703 54.8658C206.498 54.6752 206.907 55.2908 207.261 54.953C207.615 54.6152 206.771 53.5147 205.812 53.1606C205.639 53.0816 205.453 53.0378 205.263 53.0315C205.073 53.0253 204.884 53.0568 204.707 53.1242C204.529 53.1916 204.367 53.2936 204.23 53.4242C204.092 53.5549 203.982 53.7115 203.905 53.8852Z" fill="#604730"/>
<path d="M201.66 54.1574C201.976 54.833 200.963 55.2906 200.255 55.247C199.546 55.2035 199.285 55.7919 198.942 55.5303C198.598 55.2688 199.159 54.2391 199.933 53.8087C200.069 53.717 200.222 53.6533 200.383 53.6211C200.543 53.589 200.709 53.5892 200.87 53.6216C201.03 53.6541 201.183 53.7182 201.319 53.8101C201.454 53.9021 201.57 54.0202 201.66 54.1574Z" fill="#604730"/>
<path d="M204.286 60.1613C204.689 60.1613 205.016 59.8344 205.016 59.4312C205.016 59.028 204.689 58.7012 204.286 58.7012C203.883 58.7012 203.556 59.028 203.556 59.4312C203.556 59.8344 203.883 60.1613 204.286 60.1613Z" fill="#683F1D"/>
<path d="M199.285 59.7692C199.688 59.7692 200.015 59.4423 200.015 59.0391C200.015 58.6359 199.688 58.3091 199.285 58.3091C198.882 58.3091 198.555 58.6359 198.555 59.0391C198.555 59.4423 198.882 59.7692 199.285 59.7692Z" fill="#683F1D"/>
<path d="M200.663 64.3835C199.574 63.7243 198.484 62.2478 199.933 61.8011C201.383 61.3543 201.846 60.7114 201.889 57.0176" stroke="#934735" stroke-width="0.75" stroke-linecap="round" stroke-linejoin="round"/>
<path d="M202.804 68.2572C204.439 67.7669 204.439 65.021 204.439 65.021C203.121 65.7929 201.744 66.4579 200.32 67.0096C200.32 67.0096 201.017 68.7911 202.804 68.2572Z" fill="white" stroke="#934735" stroke-width="0.75" stroke-linecap="round" stroke-linejoin="round"/>
<path d="M215.983 66.1816C215.352 66.2197 214.719 66.2197 214.087 66.1816" stroke="#934735" stroke-width="0.75" stroke-linecap="round" stroke-linejoin="round"/>
<path d="M205.332 63.6263C205.877 64.7159 207.435 65.0046 208.786 64.3018C210.138 63.599 210.786 62.1607 210.23 61.0874C209.674 60.0141 208.122 59.709 206.771 60.4118C205.419 61.1147 204.771 62.553 205.332 63.6263Z" fill="#A0503D"/>
<path d="M277.309 186.193H5.67864C3.2089 186.193 1.20679 188.825 1.20679 192.072V192.611C1.20679 195.858 3.2089 198.49 5.67864 198.49H277.309C279.779 198.49 281.781 195.858 281.781 192.611V192.072C281.781 188.825 279.779 186.193 277.309 186.193Z" fill="#EDEDED"/>
<path d="M9.61987 198.49C16.8063 193.968 27.4741 192.971 35.6014 198.49" stroke="#DDDDDD" stroke-width="0.75" stroke-linecap="round" stroke-linejoin="round"/>
<path d="M7.13745 186.193C14.2286 191.364 18.9408 190.955 27.6897 190.803C34.2006 190.694 42.0419 195.052 47.268 198.49" stroke="#DDDDDD" stroke-width="0.75" stroke-linecap="round" stroke-linejoin="round"/>
<path d="M40.7861 186.193C45.9294 193.794 49.4895 194.742 51.226 192.786C53.0578 190.704 54.956 190.143 56.8914 192.339C59.1418 194.883 62.2792 189.724 64.0447 186.193" stroke="#DDDDDD" stroke-width="0.75" stroke-linecap="round" stroke-linejoin="round"/>
<path d="M60.8411 198.49C62.9133 195.967 66.6433 192.851 72.3916 192.339C79.2299 191.734 87.925 195.896 92.5833 198.49" stroke="#DDDDDD" stroke-width="0.75" stroke-linecap="round" stroke-linejoin="round"/>
<path d="M83.5815 186.193C91.6052 191.723 100.375 194.965 107.458 192.339C114.375 189.784 130.886 192.96 136.883 186.193" stroke="#DDDDDD" stroke-width="0.75" stroke-linecap="round" stroke-linejoin="round"/>
<path d="M114.014 198.49C119.153 194.638 127.16 192.29 133.402 198.49" stroke="#DDDDDD" stroke-width="0.75" stroke-linecap="round" stroke-linejoin="round"/>
<path d="M142.238 198.49C151.77 188.721 170.863 186.94 186.79 192.279C205.635 198.599 214.094 191.309 217.521 186.193" stroke="#DDDDDD" stroke-width="0.75" stroke-linecap="round" stroke-linejoin="round"/>
<path d="M159.408 198.49C166.325 194.398 175.642 193.559 185.456 198.49" stroke="#DDDDDD" stroke-width="0.75" stroke-linecap="round" stroke-linejoin="round"/>
<path d="M219.718 198.489C231.298 191.407 240.569 192.219 249.144 198.489" stroke="#DDDDDD" stroke-width="0.75" stroke-linecap="round" stroke-linejoin="round"/>
<path d="M236.051 186.193C255.136 194.616 270.931 201.143 281.333 189.707" stroke="#DDDDDD" stroke-width="0.75" stroke-linecap="round" stroke-linejoin="round"/>
<path d="M251.278 186.193C260.964 193.668 272.278 193.107 279.236 186.869" stroke="#DDDDDD" stroke-width="0.75" stroke-linecap="round" stroke-linejoin="round"/>
</svg>
